<svg width="22" height="22" viewBox="0 0 22 22" fill="none" xmlns="http://www.w3.org/2000/svg">
<path d="M6.65198 21.2326H14.838C18.9515 21.2326 19.6883 19.5851 19.9031 17.5795L20.6706 9.39349C20.9469 6.89674 20.2306 4.86047 15.8613 4.86047H5.62873C1.25943 4.86047 0.543147 6.89674 0.819427 9.39349L1.58687 17.5795C1.80175 19.5851 2.5385 21.2326 6.65198 21.2326Z" stroke="#01A368" stroke-width="1.5" stroke-miterlimit="10" stroke-linecap="round" stroke-linejoin="round"/>
<path d="M6.65204 4.86047V4.04186C6.65204 2.2307 6.65204 0.767442 9.92646 0.767442H11.5637C14.8381 0.767442 14.8381 2.2307 14.8381 4.04186V4.86047" stroke="#01A368" stroke-width="1.5" stroke-miterlimit="10" stroke-linecap="round" stroke-linejoin="round"/>
<path d="M12.7916 12.0233V13.0465C12.7916 13.0567 12.7916 13.0567 12.7916 13.067C12.7916 14.1823 12.7813 15.093 10.7451 15.093C8.71901 15.093 8.69855 14.1926 8.69855 13.0772V12.0233C8.69855 11 8.69855 11 9.7218 11H11.7683C12.7916 11 12.7916 11 12.7916 12.0233Z" stroke="#01A368" stroke-width="1.5" stroke-miterlimit="10" stroke-linecap="round" stroke-linejoin="round"/>
<path d="M20.6195 9.97674C18.2558 11.6958 15.5544 12.7191 12.7916 13.067" stroke="#01A368" stroke-width="1.5" stroke-miterlimit="10" stroke-linecap="round" stroke-linejoin="round"/>
<path d="M1.14692 10.253C3.44924 11.8289 6.04831 12.7805 8.69854 13.0772" stroke="#01A368" stroke-width="1.5" stroke-miterlimit="10" stroke-linecap="round" stroke-linejoin="round"/>
</svg>
