<svg width="194" height="194" viewBox="0 0 194 194" fill="none" xmlns="http://www.w3.org/2000/svg">
<g filter="url(#filter0_d_155_1158)">
<circle cx="97" cy="77" r="39" fill="white"/>
</g>
<path d="M96.575 82.425L93.8 85.2C93.215 85.785 92.285 85.785 91.685 85.215C91.52 85.05 91.355 84.9 91.19 84.735C89.645 83.175 88.25 81.54 87.005 79.83C85.775 78.12 84.785 76.41 84.065 74.715C83.36 73.005 83 71.37 83 69.81C83 68.79 83.18 67.815 83.54 66.915C83.9 66 84.47 65.16 85.265 64.41C86.225 63.465 87.275 63 88.385 63C88.805 63 89.225 63.09 89.6 63.27C89.99 63.45 90.335 63.72 90.605 64.11L94.085 69.015C94.355 69.39 94.55 69.735 94.685 70.065C94.82 70.38 94.895 70.695 94.895 70.98C94.895 71.34 94.79 71.7 94.58 72.045C94.385 72.39 94.1 72.75 93.74 73.11L92.6 74.295C92.435 74.46 92.36 74.655 92.36 74.895C92.36 75.015 92.375 75.12 92.405 75.24C92.45 75.36 92.495 75.45 92.525 75.54C92.795 76.035 93.26 76.68 93.92 77.46C94.595 78.24 95.315 79.035 96.095 79.83C96.245 79.98 96.41 80.13 96.56 80.28C97.16 80.865 97.175 81.825 96.575 82.425Z" fill="#0FAD74"/>
<path d="M112.955 87.495C112.955 87.915 112.88 88.35 112.73 88.77C112.685 88.89 112.64 89.01 112.58 89.13C112.325 89.67 111.995 90.18 111.56 90.66C110.825 91.47 110.015 92.055 109.1 92.43C109.085 92.43 109.07 92.445 109.055 92.445C108.17 92.805 107.21 93 106.175 93C104.645 93 103.01 92.64 101.285 91.905C99.5604 91.17 97.8354 90.18 96.1254 88.935C95.5404 88.5 94.9554 88.065 94.4004 87.6L99.3054 82.695C99.7254 83.01 100.1 83.25 100.415 83.415C100.49 83.445 100.58 83.49 100.685 83.535C100.805 83.58 100.925 83.595 101.06 83.595C101.315 83.595 101.51 83.505 101.675 83.34L102.815 82.215C103.19 81.84 103.55 81.555 103.895 81.375C104.24 81.165 104.585 81.06 104.96 81.06C105.245 81.06 105.545 81.12 105.875 81.255C106.205 81.39 106.55 81.585 106.925 81.84L111.89 85.365C112.28 85.635 112.55 85.95 112.715 86.325C112.865 86.7 112.955 87.075 112.955 87.495Z" fill="#0FAD74"/>
<defs>
<filter id="filter0_d_155_1158" x="0" y="0" width="194" height="194" filterUnits="userSpaceOnUse" color-interpolation-filters="sRGB">
<feFlood flood-opacity="0" result="BackgroundImageFix"/>
<feColorMatrix in="SourceAlpha" type="matrix" values="0 0 0 0 0 0 0 0 0 0 0 0 0 0 0 0 0 0 127 0" result="hardAlpha"/>
<feOffset dy="20"/>
<feGaussianBlur stdDeviation="29"/>
<feComposite in2="hardAlpha" operator="out"/>
<feColorMatrix type="matrix" values="0 0 0 0 0 0 0 0 0 0 0 0 0 0 0 0 0 0 0.08 0"/>
<feBlend mode="normal" in2="BackgroundImageFix" result="effect1_dropShadow_155_1158"/>
<feBlend mode="normal" in="SourceGraphic" in2="effect1_dropShadow_155_1158" result="shape"/>
</filter>
</defs>
</svg>
