<svg width="16" height="15" viewBox="0 0 16 15" fill="none" xmlns="http://www.w3.org/2000/svg">
<path d="M8.86844 1.08314L10.1992 3.74467C10.3807 4.11516 10.8646 4.47054 11.2729 4.53859L13.6849 4.93933C15.2274 5.19641 15.5903 6.31546 14.4788 7.41939L12.6037 9.29456C12.2861 9.61213 12.1122 10.2246 12.2105 10.6631L12.7473 12.9844C13.1707 14.8218 12.1954 15.5325 10.5697 14.5723L8.30891 13.2339C7.90061 12.992 7.22767 12.992 6.8118 13.2339L4.55101 14.5723C2.93292 15.5325 1.94997 14.8142 2.3734 12.9844L2.91024 10.6631C3.00854 10.2246 2.83463 9.61213 2.51706 9.29456L0.641892 7.41939C-0.462038 6.31546 -0.106663 5.19641 1.43581 4.93933L3.84783 4.53859C4.24857 4.47054 4.73248 4.11516 4.91395 3.74467L6.24471 1.08314C6.97059 -0.361046 8.15013 -0.361046 8.86844 1.08314Z" fill="#FFB800"/>
</svg>
