<svg width="214" height="175" viewBox="0 0 214 175" fill="none" xmlns="http://www.w3.org/2000/svg">
<g clip-path="url(#clip0_104_1803)">
<path d="M22.0661 163.675L21.2794 160.335C23.9393 159.638 26.2611 158.986 28.921 158.289L29.7077 161.629C27.4308 162.62 24.7709 163.316 22.0661 163.675ZM37.6875 159.538L36.5627 156.243C39.2226 155.546 41.4996 154.555 44.1595 153.858L45.2843 157.154C42.6692 158.189 40.3474 158.841 37.6875 159.538ZM52.8362 154.431L51.7114 151.135C53.9884 150.144 56.6034 149.109 58.8804 148.118L60.3433 151.369C57.7282 152.404 55.1131 153.44 52.8362 154.431ZM67.4674 148.014L66.0045 144.763C68.2815 143.772 70.8516 142.398 73.1286 141.408L74.5915 144.658C72.3145 145.649 69.7443 147.023 67.4674 148.014ZM81.6259 140.626L79.8698 137.759C82.1019 136.43 84.334 135.101 86.5661 133.771L88.3222 136.639C86.1349 138.306 83.9028 139.636 81.6259 140.626ZM95.3566 132.606L93.6005 129.739C95.8326 128.41 98.0198 126.742 100.252 125.413L102.346 128.236C99.7759 129.61 97.5438 130.939 95.3566 132.606ZM108.232 123.322L106.137 120.5C108.325 118.832 110.174 117.209 112.361 115.542L114.455 118.364C112.651 120.325 110.419 121.655 108.232 123.322ZM120.679 113.406L118.63 110.922C120.479 109.299 122.666 107.631 124.47 105.67L126.858 108.109C124.715 110.115 122.866 111.738 120.679 113.406ZM132.653 102.519L130.266 100.08C132.07 98.1182 133.919 96.4953 135.724 94.534L138.111 96.9732C136.307 98.9346 134.503 100.896 132.653 102.519ZM143.524 91.0891L140.799 88.6947C142.603 86.7333 144.407 84.7719 145.873 82.8554L148.937 85.205C147.133 87.1664 145.328 89.1277 143.524 91.0891ZM153.967 79.0272L151.241 76.6327C153.046 74.6714 154.467 72.4163 155.933 70.4997L158.614 72.5557C157.192 74.8107 155.388 76.7721 153.967 79.0272ZM163.261 66.0841L160.242 64.073C161.663 61.8179 163.085 59.5629 164.551 57.6463L167.525 59.3189C166.442 61.5292 164.682 63.8291 163.261 66.0841ZM171.789 52.5537L168.815 50.8811C170.236 48.626 171.319 46.4157 172.741 44.1606L175.715 45.8333C174.631 48.0435 173.21 50.2986 171.789 52.5537ZM179.551 38.4358L176.577 36.7632C177.66 34.5529 179.037 31.9594 180.12 29.7491L183.094 31.4217C182.011 33.632 180.634 36.2256 179.551 38.4358ZM186.254 24.1139L182.987 22.8246C184.025 20.2758 185.108 18.0655 185.808 15.5615L189.076 16.8508C187.992 19.0611 187.292 21.5651 186.254 24.1139ZM191.808 8.91079L188.586 7.95999C189.286 5.45601 190.324 2.90723 191.024 0.403253L194.247 1.35406C193.208 3.90284 192.508 6.40682 191.808 8.91079Z" fill="#FCA680"/>
<path d="M36.3492 172.805L38.0189 169.828L23.1942 161.803L32.3087 147.506L29.2899 145.495L18.1676 162.814L36.3492 172.805Z" fill="#FCA680"/>
</g>
<defs>
<clipPath id="clip0_104_1803">
<rect width="195" height="150" fill="white" transform="translate(0 25.7174) scale(1.00392) rotate(-7.54872)"/>
</clipPath>
</defs>
</svg>
