<svg width="86" height="86" viewBox="0 0 86 86" fill="none" xmlns="http://www.w3.org/2000/svg">
<path d="M84.1954 47.3767C83.7097 44.0115 81.066 41.3679 77.7008 40.8822V38.8905C77.7008 33.3953 73.5236 28.9212 68.3888 28.9212C63.402 28.9212 59.2269 33.2594 59.0768 38.5925H59.1404L59.0768 38.6034V60.1931C59.0768 67.0949 53.9169 72.6996 47.5738 72.6996C41.2306 72.6996 36.0707 67.0872 36.0707 60.1931V58.323C37.6592 58.323 39.3573 57.1716 39.3573 53.9409V51.1856C46.3884 49.3878 51.4081 43.3504 51.4081 36.5055V34.2213H49.2171L49.171 19.963C49.1552 17.3237 47.2613 15.0702 44.664 14.6004C44.1038 12.8841 42.2582 11.9469 40.5418 12.5072C38.8255 13.0675 37.8883 14.913 38.4487 16.6294C39.0089 18.3457 40.8545 19.2829 42.5709 18.7226C43.0249 18.5744 43.4409 18.3285 43.7896 18.0022C44.1384 17.676 44.4114 17.2773 44.5895 16.8342C45.2729 17.0286 45.8748 17.4392 46.3052 18.0044C46.7355 18.5697 46.9711 19.2592 46.9767 19.9696L47.026 34.2213H44.8349V36.5373C44.7476 40.3479 42.1928 43.6595 38.5291 44.711C36.5687 45.333 34.464 45.333 32.5036 44.711C28.8442 43.6559 26.2951 40.3449 26.2109 36.5373V34.2213H22.9243V19.9794C22.9274 19.259 23.1671 18.5596 23.6065 17.9887C24.046 17.4179 24.6608 17.0072 25.3564 16.8199C26.0232 18.5173 27.9397 19.3527 29.6371 18.6859C31.3344 18.0191 32.1698 16.1025 31.503 14.4052C30.8362 12.708 28.9196 11.8725 27.2224 12.5393C26.7682 12.7177 26.3591 12.9946 26.0247 13.3501C25.6904 13.7055 25.4389 14.1307 25.2885 14.5949C22.6629 15.0435 20.7405 17.3158 20.7333 19.9794V34.2213H18.5422V36.5C18.5422 43.3526 23.5652 49.3922 30.593 51.1856V53.9409C30.593 57.1716 32.2911 58.323 33.8796 58.323V60.1931C33.8796 68.3 40.0223 74.8907 47.5738 74.8907C55.1252 74.8907 61.2679 68.2923 61.2679 60.1931V38.656C61.3774 34.4985 64.5742 31.1155 68.3888 31.1155C72.3152 31.1155 75.5098 34.6037 75.5098 38.8938V40.8822C71.3179 41.4872 68.4102 45.3759 69.0152 49.5678C69.6202 53.7597 73.5089 56.6674 77.7008 56.0624C81.8927 55.4574 84.8004 51.5685 84.1954 47.3767ZM41.5483 16.6928C41.2578 16.6928 40.9791 16.5774 40.7737 16.372C40.5682 16.1665 40.4528 15.8879 40.4528 15.5973C40.4528 15.3068 40.5682 15.0281 40.7737 14.8227C40.9791 14.6172 41.2578 14.5018 41.5483 14.5018C41.8389 14.5018 42.1175 14.6172 42.323 14.8227C42.5284 15.0281 42.6439 15.3068 42.6439 15.5973C42.6439 15.8879 42.5284 16.1665 42.323 16.372C42.1175 16.5774 41.8389 16.6928 41.5483 16.6928ZM28.402 14.5018C28.6925 14.5018 28.9712 14.6172 29.1766 14.8227C29.3821 15.0281 29.4975 15.3068 29.4975 15.5973C29.4975 15.8879 29.3821 16.1665 29.1766 16.372C28.9712 16.5774 28.6925 16.6928 28.402 16.6928C28.1114 16.6928 27.8328 16.5774 27.6273 16.372C27.4219 16.1665 27.3064 15.8879 27.3064 15.5973C27.3064 15.3068 27.4219 15.0281 27.6273 14.8227C27.8328 14.6172 28.1114 14.5018 28.402 14.5018ZM20.7333 36.5V36.4124H24.0199V36.5373C24.102 41.2989 27.2699 45.4543 31.8398 46.7947C34.2344 47.553 36.8049 47.553 39.1995 46.7947C43.7716 45.4561 46.9423 41.3005 47.026 36.5373V36.4124H49.2171V36.5C49.2171 42.5945 44.5194 47.9571 38.0426 49.2542C36.5218 49.5587 34.964 49.6352 33.4206 49.481C32.9126 49.4317 32.4075 49.3553 31.9077 49.252C25.4309 47.9571 20.7333 42.5945 20.7333 36.5ZM33.8796 56.1319C32.8937 56.1319 32.7841 54.5982 32.7841 53.9409V51.6162C32.8717 51.6271 32.9616 51.6315 33.0503 51.6403C33.1599 51.6523 33.2694 51.6611 33.379 51.6709C33.8972 51.7169 34.4197 51.7476 34.9467 51.7487H35.0015C35.5273 51.7487 36.0488 51.7169 36.5637 51.6709C36.6732 51.6611 36.7894 51.6523 36.9022 51.6403C36.9887 51.6304 37.0786 51.6271 37.1651 51.6162V53.9409C37.1651 54.5982 37.0556 56.1319 36.0696 56.1319H33.8796ZM76.6053 53.9409C73.5801 53.9409 71.1277 51.4884 71.1277 48.4632C71.1277 45.4381 73.5801 42.9856 76.6053 42.9856C79.6305 42.9856 82.083 45.4381 82.083 48.4632C82.0794 51.487 79.629 53.9373 76.6053 53.9409Z" fill="white" fill-opacity="0.3"/>
<path d="M76.6052 45.1767C74.7901 45.1767 73.3187 46.6481 73.3187 48.4632C73.3187 50.2784 74.7901 51.7498 76.6052 51.7498C78.4204 51.7498 79.8918 50.2784 79.8918 48.4632C79.8918 46.6481 78.4204 45.1767 76.6052 45.1767ZM76.6052 49.5588C76.3147 49.5588 76.036 49.4434 75.8306 49.2379C75.6251 49.0324 75.5097 48.7538 75.5097 48.4632C75.5097 48.1727 75.6251 47.894 75.8306 47.6886C76.036 47.4831 76.3147 47.3677 76.6052 47.3677C76.8958 47.3677 77.1745 47.4831 77.3799 47.6886C77.5854 47.894 77.7008 48.1727 77.7008 48.4632C77.7008 48.7538 77.5854 49.0324 77.3799 49.2379C77.1745 49.4434 76.8958 49.5588 76.6052 49.5588Z" fill="white" fill-opacity="0.3"/>
</svg>
