<svg width="87" height="87" viewBox="0 0 87 87" fill="none" xmlns="http://www.w3.org/2000/svg">
<path d="M70.3705 4.78278C65.1637 1.35426 59.2286 -0.285514 53.207 0.0406861C47.341 0.35854 41.8411 2.60043 37.7227 6.35205C34.5652 9.2283 32.3271 12.8228 31.0713 17.0346C30.0801 20.361 29.7445 23.9627 30.0653 27.7844C21.4749 26.243 13.7555 28.1843 8.0204 33.4086C3.903 37.1593 1.16149 42.4247 0.299872 48.2352C-0.583996 54.1994 0.4971 60.2608 3.42592 65.7634C6.61159 71.7473 13.4409 79.7265 27.8895 83.7546C41.2633 87.4829 58.0545 86.9299 77.7967 82.1099C78.2439 82.0003 78.6481 81.7819 78.9783 81.4811C79.3086 81.1803 79.5641 80.7985 79.7143 80.363C86.3531 61.1509 88.4688 44.4812 86.0032 30.8172C83.3393 16.0542 76.0319 8.51113 70.3705 4.78278ZM75.0709 77.1916C51.5118 82.7317 35.9151 81.1496 25.7014 77.3223L31.3004 72.2221C32.0593 71.5308 32.3621 70.4705 32.0832 69.4833L30.0292 62.2084L49.1882 69.603C49.6576 69.7842 50.1681 69.831 50.6627 69.7384C51.1572 69.6457 51.6161 69.4172 51.9881 69.0784C52.36 68.7395 52.6303 68.3038 52.7685 67.8201C52.9068 67.3363 52.9076 66.8236 52.7709 66.3394L47.1906 46.5756L54.2431 49.2975C54.7125 49.4786 55.223 49.5254 55.7175 49.4327C56.212 49.34 56.6709 49.1114 57.0428 48.7726L72.2324 34.936C73.3384 33.9286 73.4181 32.2151 72.4108 31.1092C71.4034 30.0033 69.6899 29.9233 68.5839 30.9308L54.6323 43.6397L44.0872 39.5692C43.6178 39.3882 43.1073 39.3414 42.6128 39.4342C42.1184 39.5269 41.6595 39.7554 41.2876 40.0942C40.9157 40.433 40.6454 40.8686 40.5071 41.3523C40.3688 41.836 40.3678 42.3487 40.5044 42.8329L46.0842 62.5971L26.9252 55.2025C26.4558 55.0214 25.9453 54.9746 25.4508 55.0673C24.9563 55.16 24.4974 55.3885 24.1254 55.7273C23.7535 56.0661 23.4833 56.5018 23.345 56.9855C23.2067 57.4692 23.2058 57.9819 23.3425 58.4661L26.4139 69.3446L20.3424 74.8753C13.0711 70.88 9.62041 65.8689 8.20939 63.2177C3.42873 54.2361 4.85091 43.6255 11.6694 37.4144C16.8265 32.7166 24.2358 31.4807 32.5312 33.9333C32.9778 34.0656 33.4511 34.0804 33.9052 33.9762C34.3593 33.8721 34.7788 33.6525 35.1232 33.3388L35.1238 33.3383C35.4682 33.0245 35.7258 32.6272 35.8719 32.1848C36.018 31.7424 36.0476 31.2698 35.9577 30.8127C34.2896 22.3224 36.2122 15.0577 41.3717 10.3577C48.193 4.14403 58.8924 3.71274 67.3905 9.30829C73.2849 13.19 91.1028 29.489 75.0709 77.1916Z" fill="#01A368" fill-opacity="0.2"/>
</svg>
