<svg width="100" height="100" viewBox="0 0 100 100" fill="none" xmlns="http://www.w3.org/2000/svg">
<circle cx="50" cy="50" r="50" fill="#EBF8F3"/>
<g clip-path="url(#clip0_104_2779)">
<path d="M69.7014 49.2184C69.3443 48.8201 60.7564 39.4531 50 39.4531C39.2436 39.4531 30.6558 48.8201 30.2987 49.2184C30.1064 49.4333 30 49.7116 30 50C30 50.2884 30.1064 50.5667 30.2987 50.7816C30.6558 51.1799 39.2438 60.5469 50 60.5469C60.7563 60.5469 69.3443 51.1799 69.7014 50.7816C69.8937 50.5667 70 50.2884 70 50C70 49.7116 69.8937 49.4333 69.7014 49.2184ZM50 58.2031C45.4773 58.2031 41.7969 54.5227 41.7969 50C41.7969 45.4773 45.4773 41.7969 50 41.7969C54.5228 41.7969 58.2032 45.4773 58.2032 50C58.2032 54.5227 54.5228 58.2031 50 58.2031Z" fill="#0FAD74"/>
<path d="M51.1719 47.6562C51.1719 46.4773 51.7571 45.4402 52.6474 44.8023C51.8485 44.3934 50.9574 44.1406 50 44.1406C46.7693 44.1406 44.1406 46.7693 44.1406 50C44.1406 53.2307 46.7693 55.8594 50 55.8594C52.8925 55.8594 55.2866 53.7473 55.7595 50.9877C53.3997 51.7474 51.1719 49.9627 51.1719 47.6562Z" fill="#0FAD74"/>
</g>
<defs>
<clipPath id="clip0_104_2779">
<rect width="40" height="40" fill="white" transform="translate(30 30)"/>
</clipPath>
</defs>
</svg>
