<svg width="100" height="100" viewBox="0 0 100 100" fill="none" xmlns="http://www.w3.org/2000/svg">
<circle cx="50" cy="50" r="50" fill="#EBF8F3"/>
<path d="M59.2166 42.95C59.0999 42.9333 58.9833 42.9333 58.8666 42.95C56.2833 42.8667 54.2333 40.75 54.2333 38.15C54.2333 35.5 56.3833 33.3333 59.0499 33.3333C61.6999 33.3333 63.8666 35.4833 63.8666 38.15C63.8499 40.75 61.7999 42.8667 59.2166 42.95Z" fill="#01A368"/>
<path d="M64.65 54.5C62.7833 55.75 60.1666 56.2167 57.75 55.9C58.3833 54.5333 58.7166 53.0167 58.7333 51.4167C58.7333 49.75 58.3666 48.1667 57.6666 46.7833C60.1333 46.45 62.75 46.9167 64.6333 48.1667C67.2666 49.9 67.2666 52.75 64.65 54.5Z" fill="#01A368"/>
<path d="M40.7333 42.95C40.85 42.9333 40.9666 42.9333 41.0833 42.95C43.6666 42.8667 45.7166 40.75 45.7166 38.15C45.7166 35.4833 43.5666 33.3333 40.9 33.3333C38.25 33.3333 36.1 35.4833 36.1 38.15C36.1 40.75 38.15 42.8667 40.7333 42.95Z" fill="#01A368"/>
<path d="M40.9166 51.4167C40.9166 53.0333 41.2666 54.5667 41.9 55.95C39.55 56.2 37.1 55.7 35.3 54.5167C32.6666 52.7667 32.6666 49.9167 35.3 48.1667C37.0833 46.9667 39.6 46.4833 41.9666 46.75C41.2833 48.15 40.9166 49.7333 40.9166 51.4167Z" fill="#01A368"/>
<path d="M50.2 56.45C50.0667 56.4333 49.9167 56.4333 49.7667 56.45C46.7 56.35 44.25 53.8333 44.25 50.7333C44.2667 47.5667 46.8167 45 50 45C53.1667 45 55.7333 47.5667 55.7333 50.7333C55.7167 53.8333 53.2833 56.35 50.2 56.45Z" fill="#01A368"/>
<path d="M44.7834 59.9C42.2667 61.5833 42.2667 64.35 44.7834 66.0167C47.65 67.9333 52.35 67.9333 55.2167 66.0167C57.7334 64.3333 57.7334 61.5667 55.2167 59.9C52.3667 57.9833 47.6667 57.9833 44.7834 59.9Z" fill="#01A368"/>
</svg>
