<svg width="100" height="100" viewBox="0 0 100 100" fill="none" xmlns="http://www.w3.org/2000/svg">
<circle cx="50" cy="50" r="50" fill="#EBF8F3"/>
<g clip-path="url(#clip0_104_2798)">
<path d="M48.8238 50.5434C48.1092 50.9587 47.2974 51.1771 46.4709 51.1765C43.8761 51.1765 41.765 49.0654 41.765 46.4706H44.1179C44.1179 47.7917 45.2123 48.862 46.5421 48.8224C47.8219 48.7845 48.8238 47.7008 48.8238 46.4205V32.3674C48.8238 31.0991 47.8137 30 46.4709 30C44.6897 30 43.1367 30.9948 42.3377 32.4579C44.0453 32.7681 45.5713 33.7551 46.5572 35.2282L44.6018 36.5369C43.8344 35.3904 42.554 34.7059 41.1768 34.7059C37.6088 34.7059 34.7062 37.6086 34.7062 41.1765C34.7067 41.813 34.8009 42.446 34.9856 43.0551C32.6413 44.5538 31.1768 47.1729 31.1768 50C31.1768 53.2435 33.8156 55.8824 37.0591 55.8824C38.5061 55.8834 39.9025 55.3501 40.9804 54.3848L42.5495 56.138C40.3782 58.0813 37.4187 58.6782 34.7718 57.9118C34.1833 62.0256 37.5978 65.6456 41.765 65.2675V65.2941C41.765 67.8889 43.8761 70 46.4709 70C47.8146 70 48.8238 68.9002 48.8238 67.6326V50.5434ZM61.1609 54.7059H59.4513V52.3529H61.1768C63.5262 52.3529 65.587 53.612 66.7206 55.4907C68.0742 53.9822 68.8229 52.0268 68.8229 50C68.8229 47.9732 68.0742 46.0178 66.7206 44.5093C65.587 46.388 63.5263 47.6471 61.1768 47.6471H59.4513V45.2941H61.1609C63.4279 45.2941 65.2959 43.4392 65.2944 41.1722C65.292 37.3958 62.0422 34.387 58.2357 34.7325V34.7059C58.2357 32.1096 56.1177 29.9859 53.5041 30.0001C52.2122 30.0071 51.1768 31.0755 51.1768 32.3674V42.9412C51.1768 44.2386 52.2324 45.2941 53.5298 45.2941V47.6471C52.7033 47.6477 51.8914 47.4293 51.1768 47.014V55.8824C51.1768 57.1798 52.2324 58.2353 53.5298 58.2353V60.5882C52.7033 60.5889 51.8914 60.3705 51.1768 59.9551V67.6327C51.1768 68.901 52.1869 70.0001 53.5298 70.0001C56.1246 70.0001 58.2357 67.889 58.2357 65.2942V65.2676C62.0419 65.6129 65.2921 62.6045 65.2944 58.8278C65.2958 56.5608 63.4278 54.7059 61.1609 54.7059Z" fill="#0FAD74"/>
</g>
<defs>
<clipPath id="clip0_104_2798">
<rect width="40" height="40" fill="white" transform="translate(30 30)"/>
</clipPath>
</defs>
</svg>
