<svg width="194" height="194" viewBox="0 0 194 194" fill="none" xmlns="http://www.w3.org/2000/svg">
<g filter="url(#filter0_d_155_1074)">
<circle cx="97" cy="77" r="39" fill="white"/>
</g>
<path d="M105.5 65.25H90.5C86 65.25 83 67.5 83 72.75V83.25C83 88.5 86 90.75 90.5 90.75H105.5C110 90.75 113 88.5 113 83.25V72.75C113 67.5 110 65.25 105.5 65.25ZM106.205 74.385L101.51 78.135C100.52 78.93 99.26 79.32 98 79.32C96.74 79.32 95.465 78.93 94.49 78.135L89.795 74.385C89.315 73.995 89.24 73.275 89.615 72.795C90.005 72.315 90.71 72.225 91.19 72.615L95.885 76.365C97.025 77.28 98.96 77.28 100.1 76.365L104.795 72.615C105.275 72.225 105.995 72.3 106.37 72.795C106.76 73.275 106.685 73.995 106.205 74.385Z" fill="#FCA680"/>
<defs>
<filter id="filter0_d_155_1074" x="0" y="0" width="194" height="194" filterUnits="userSpaceOnUse" color-interpolation-filters="sRGB">
<feFlood flood-opacity="0" result="BackgroundImageFix"/>
<feColorMatrix in="SourceAlpha" type="matrix" values="0 0 0 0 0 0 0 0 0 0 0 0 0 0 0 0 0 0 127 0" result="hardAlpha"/>
<feOffset dy="20"/>
<feGaussianBlur stdDeviation="29"/>
<feComposite in2="hardAlpha" operator="out"/>
<feColorMatrix type="matrix" values="0 0 0 0 0 0 0 0 0 0 0 0 0 0 0 0 0 0 0.08 0"/>
<feBlend mode="normal" in2="BackgroundImageFix" result="effect1_dropShadow_155_1074"/>
<feBlend mode="normal" in="SourceGraphic" in2="effect1_dropShadow_155_1074" result="shape"/>
</filter>
</defs>
</svg>
