<svg width="85" height="87" viewBox="0 0 85 87" fill="none" xmlns="http://www.w3.org/2000/svg">
<path d="M72.7461 60.5234H67.0665V54.8891C67.0713 54.6768 67.0338 54.4656 66.9562 54.268C66.8785 54.0703 66.7623 53.89 66.6142 53.7378C66.4662 53.5855 66.2893 53.4642 66.0938 53.3811C65.8984 53.2979 65.6884 53.2545 65.476 53.2534H60.3869C59.9485 53.2522 59.5271 53.4227 59.2129 53.7285C58.8987 54.0342 58.7167 54.4509 58.7059 54.8891V60.5234H52.9351C52.4967 60.5223 52.0753 60.6928 51.7611 60.9986C51.4469 61.3043 51.2649 61.7209 51.2541 62.1592V67.2483C51.2649 67.6866 51.4469 68.1032 51.7611 68.4089C52.0753 68.7147 52.4967 68.8852 52.9351 68.884H58.7059V74.7001C58.7167 75.1384 58.8987 75.555 59.2129 75.8608C59.5271 76.1665 59.9485 76.3371 60.3869 76.3359H65.476C65.6884 76.3348 65.8984 76.2913 66.0938 76.2082C66.2893 76.125 66.4662 76.0037 66.6142 75.8515C66.7623 75.6992 66.8785 75.519 66.9562 75.3213C67.0338 75.1236 67.0713 74.9124 67.0665 74.7001V68.884H72.7461C72.9585 68.8829 73.1685 68.8395 73.3639 68.7563C73.5594 68.6732 73.7362 68.5519 73.8843 68.3996C74.0324 68.2474 74.1486 68.0671 74.2263 67.8694C74.3039 67.6718 74.3414 67.4606 74.3366 67.2483V62.1592C74.3414 61.9469 74.3039 61.7357 74.2263 61.538C74.1486 61.3404 74.0324 61.1601 73.8843 61.0079C73.7362 60.8556 73.5594 60.7343 73.3639 60.6512C73.1685 60.568 72.9585 60.5246 72.7461 60.5234ZM71.7921 66.3395H66.203C65.7646 66.3383 65.3432 66.5089 65.029 66.8146C64.7148 67.1204 64.5328 67.537 64.522 67.9753V73.7914H61.2505V67.9753C61.2553 67.763 61.2178 67.5518 61.1401 67.3541C61.0625 67.1564 60.9462 66.9762 60.7982 66.8239C60.6501 66.6717 60.4732 66.5504 60.2778 66.4672C60.0824 66.3841 59.8723 66.3406 59.6599 66.3395H53.7986V63.068H59.6599C59.8723 63.0669 60.0824 63.0234 60.2778 62.9403C60.4732 62.8571 60.6501 62.7358 60.7982 62.5836C60.9462 62.4313 61.0625 62.2511 61.1401 62.0534C61.2178 61.8557 61.2553 61.6445 61.2505 61.4322V55.7979H64.522V61.4322C64.5328 61.8705 64.7148 62.2871 65.029 62.5929C65.3432 62.8986 65.7646 63.0692 66.203 63.068H71.7921V66.3395Z" fill="#FCA680" fill-opacity="0.3"/>
<path d="M63.2188 42.5587C59.7044 42.5597 56.2423 43.411 53.1281 45.0398C50.0138 46.6686 47.3399 49.0267 45.3344 51.9128C44.9918 51.8074 44.6676 51.7049 44.3619 51.6053L43.127 48.1029C46.9438 45.2434 47.9893 40.7783 48.2746 38.6155C50.8413 37.9192 53.1985 34.9033 54.1429 30.9068C54.6518 28.7452 53.9066 26.7327 52.2879 25.8986C51.8393 25.6677 51.3421 25.5471 50.8375 25.5467C50.9211 24.9195 51.0084 24.1523 51.0987 23.2103C51.3099 21.0062 51.444 18.7799 51.444 18.2158C51.444 17.8159 51.452 17.4037 51.4604 16.9673C51.5278 13.487 51.6116 9.1558 47.7726 5.27285C44.3273 1.7883 39.4498 -0.132638 34.3926 0.0071293C29.3546 0.144897 24.6303 2.29466 21.4308 5.90517C21.3326 6.01628 21.2329 6.12812 21.1316 6.24068C19.2017 8.39699 16.5585 11.3503 16.7483 18.9132C16.7664 19.6534 17.4753 23.046 18.2094 25.6316C17.7814 25.6741 17.3664 25.8023 16.9891 26.0086C15.4353 26.8483 14.7228 28.8167 15.2161 30.907C16.1612 34.9104 18.526 37.9299 21.0985 38.6185C21.406 40.7396 22.4826 45.1605 26.2019 48.0224L24.5729 51.3724C23.4097 51.737 22.0987 52.0982 20.7455 52.4773C11.9998 54.9286 0 58.2854 0 69.1911V80.5938C0 83.2876 1.44075 86.1505 4.0269 86.1505H63.295C63.3068 86.1505 63.3182 86.1491 63.3299 86.1487C69.0982 86.1156 74.6181 83.7972 78.68 79.7014C82.7419 75.6057 85.0146 70.0667 84.9999 64.2984C84.9852 58.53 82.6844 53.0027 78.6016 48.9277C74.5189 44.8528 68.9872 42.5625 63.2188 42.5587ZM23.028 7.93697C23.132 7.82089 23.2345 7.70578 23.3357 7.59164C26.07 4.50586 30.1254 2.66816 34.4624 2.54966C38.8202 2.42861 43.0114 4.07492 45.9635 7.06093C49.0471 10.1796 48.9778 13.7589 48.9168 16.9168C48.9069 17.3494 48.9013 17.782 48.8999 18.2147C48.8999 18.4844 48.8726 19.044 48.8261 19.7559C48.2108 17.469 47.3506 15.2601 46.1661 13.9686L46.072 13.7803C45.9645 13.5654 45.7984 13.3852 45.5929 13.2608C45.3873 13.1363 45.1507 13.0726 44.9105 13.0771C44.6702 13.0815 44.4361 13.1539 44.2353 13.2858C44.0345 13.4178 43.8751 13.6039 43.7757 13.8227C41.7257 18.3317 39.695 18.1502 36.3308 17.8501C35.9339 17.8133 35.5366 17.7806 35.139 17.7518C33.859 17.6609 33.3959 18.409 33.2561 18.7332C32.8413 19.6965 33.4177 20.7367 34.4727 21.9701C31.1141 21.5691 30.2628 19.1125 29.4958 16.8966C28.9635 15.3586 28.3602 13.6153 26.606 13.6153C25.7607 13.5987 24.9216 13.7632 24.1451 14.0977C23.3687 14.4323 22.6727 14.9291 22.1041 15.5547C20.8004 16.9542 20.0658 18.9495 19.6569 20.9048C19.4913 20.2279 19.3699 19.5411 19.2933 18.8485C19.1274 12.2952 21.1996 9.97968 23.028 7.93697ZM23.5273 37.4433C23.5119 37.1156 23.3714 36.8063 23.1347 36.5791C22.8979 36.3519 22.5831 36.2242 22.255 36.2223H22.1996C20.3362 36.2223 18.3688 33.1827 17.6921 30.3217C17.4331 29.224 17.7732 28.4764 18.1987 28.2463C18.6798 27.9868 19.1928 28.4439 19.3909 28.6527C19.5573 28.8278 19.77 28.952 20.0042 29.0107C20.2385 29.0694 20.4846 29.0602 20.7138 28.9842C20.9431 28.9082 21.146 28.7685 21.2987 28.5815C21.4515 28.3945 21.5479 28.1679 21.5767 27.9281C21.702 27.7098 21.7596 27.4592 21.7419 27.2081C21.6067 25.2567 21.7432 19.6703 23.9666 17.2878C24.281 16.9389 24.6642 16.6589 25.0921 16.4652C25.52 16.2716 25.9833 16.1686 26.4529 16.1627C26.6441 16.4388 26.8993 17.1758 27.0907 17.7292C28.0336 20.4533 29.7886 25.5228 37.5662 24.4132C37.8046 24.3791 38.0285 24.2781 38.2118 24.1219C38.3951 23.9657 38.5303 23.7606 38.6016 23.5305C38.673 23.3005 38.6776 23.0549 38.6149 22.8224C38.5521 22.5898 38.4247 22.3798 38.2474 22.2169C37.6306 21.6498 37.0452 21.0496 36.4936 20.419C39.4847 20.6787 42.5358 20.7765 45.0574 16.8087C46.651 19.7974 47.4807 25.7405 47.6839 28.1005C47.7112 28.4177 47.8564 28.7131 48.0908 28.9284C48.3252 29.1438 48.6319 29.2634 48.9502 29.2638C48.9865 29.2638 49.0229 29.2621 49.0605 29.2589C49.291 29.2391 49.5117 29.1568 49.6989 29.0209C49.886 28.885 50.0326 28.7005 50.1227 28.4875C50.3739 28.2392 50.757 27.9713 51.1223 28.1591C51.5891 28.3995 51.9257 29.2198 51.6663 30.3219C50.99 33.1834 49.0227 36.2229 47.1588 36.2229H47.127C46.8801 36.2189 46.6372 36.2863 46.4277 36.417C46.2499 36.5278 46.1024 36.681 45.9983 36.8627C45.8942 37.0445 45.8367 37.2492 45.831 37.4586C45.7764 38.499 45.2837 43.8186 40.9489 46.5128C40.9418 46.5169 40.9353 46.5217 40.9284 46.526C39.2406 47.5673 37.1381 48.0955 34.6792 48.0955C32.227 48.0955 30.1292 47.5553 28.4433 46.4895C24.1701 43.7914 23.5983 38.4806 23.5271 37.4433H23.5273ZM26.6227 52.9755L28.3857 49.3506C30.2114 50.206 32.321 50.6396 34.6794 50.6396C37.0036 50.6396 39.0852 50.2278 40.8917 49.4161L42.1687 53.0382C42.2326 53.2197 42.3368 53.3843 42.4735 53.5197C42.6103 53.655 42.7759 53.7576 42.958 53.8197C43.275 53.9278 43.6106 54.0381 43.9647 54.1507C43.3412 55.3214 42.8266 56.547 42.4275 57.8119C41.2501 59.2063 38.7792 61.3392 34.6794 61.3392C33.2959 61.3542 31.9248 61.0773 30.6555 60.5267C29.3862 59.9761 28.2473 59.1641 27.313 58.1436C25.9709 56.7041 25.2114 55.0995 24.9553 53.9177C25.2674 53.8219 25.5732 53.726 25.872 53.6289C26.0346 53.576 26.1849 53.4909 26.3138 53.3786C26.4427 53.2663 26.5479 53.1292 26.6227 52.9755ZM2.54453 80.5938V69.1911C2.54453 60.2149 13.0271 57.2832 21.4318 54.9275C21.7875 54.8277 22.1494 54.7294 22.4955 54.6318C23.416 58.4991 27.5631 63.883 34.6728 63.883C37.1093 63.9137 39.5017 63.2321 41.5562 61.9219C41.0701 66.268 41.9024 70.6599 43.9449 74.5269C45.9873 78.3939 49.1456 81.5573 53.0093 83.606H4.0269C3.21701 83.606 2.54453 81.9868 2.54453 80.5938ZM63.2188 83.606C59.4113 83.606 55.6893 82.4769 52.5235 80.3615C49.3577 78.2461 46.8903 75.2395 45.4332 71.7218C43.9761 68.2042 43.5949 64.3334 44.3377 60.5991C45.0806 56.8647 46.914 53.4345 49.6064 50.7422C52.2987 48.0499 55.7289 46.2164 59.4632 45.4736C63.1976 44.7307 67.0683 45.112 70.586 46.569C74.1037 48.0261 77.1103 50.4935 79.2257 53.6593C81.3411 56.8251 82.4702 60.5471 82.4702 64.3546C82.4645 69.4587 80.4344 74.352 76.8253 77.9611C73.2162 81.5702 68.3229 83.6003 63.2188 83.606Z" fill="#FCA680" fill-opacity="0.3"/>
</svg>
