<svg width="194" height="194" viewBox="0 0 194 194" fill="none" xmlns="http://www.w3.org/2000/svg">
<g filter="url(#filter0_d_68_1023)">
<circle cx="97" cy="77" r="39" fill="white"/>
</g>
<path d="M92.0523 78.4621L94.5115 73.8013C94.6097 73.6152 94.7614 73.4627 94.947 73.3635C95.1326 73.2643 95.3436 73.2228 95.5529 73.2445C95.7622 73.2661 95.9603 73.3499 96.1216 73.485C96.2829 73.6202 96.4002 73.8005 96.4582 74.0028L98.7143 81.8688L100.724 78.9226C100.821 78.7807 100.951 78.6646 101.103 78.5844C101.254 78.5042 101.424 78.4622 101.595 78.4623H114.65C115.525 76.8785 116 75.0832 116 73.2456C116 67.2996 111.163 62.4622 105.217 62.4622C102.545 62.4622 99.9705 63.461 98 65.2337C96.0296 63.461 93.4551 62.4622 90.7835 62.4622C84.8375 62.4622 80 67.2996 80 73.2456C80 75.0833 80.4753 76.8785 81.3498 78.4621H92.0523Z" fill="#0FAD74"/>
<path d="M102.153 80.5715L99.191 84.9131C99.0782 85.0786 98.9205 85.2084 98.7365 85.2876C98.5525 85.3668 98.3498 85.3919 98.152 85.3601C97.9543 85.3283 97.7697 85.2408 97.6199 85.1079C97.47 84.975 97.3611 84.8022 97.3059 84.6096L95.1534 77.105L93.6211 80.0092C93.4385 80.3551 93.0795 80.5717 92.6883 80.5717H82.8711C83.0628 80.779 83.2626 80.9787 83.47 81.1703L96.0318 92.7685C96.5674 93.2639 97.2703 93.5388 98 93.5379C98.7673 93.5379 99.4891 93.2421 100.035 92.7044L112.53 81.1702C112.738 80.978 112.938 80.7782 113.129 80.5715H102.153Z" fill="#0FAD74"/>
<defs>
<filter id="filter0_d_68_1023" x="0" y="0" width="194" height="194" filterUnits="userSpaceOnUse" color-interpolation-filters="sRGB">
<feFlood flood-opacity="0" result="BackgroundImageFix"/>
<feColorMatrix in="SourceAlpha" type="matrix" values="0 0 0 0 0 0 0 0 0 0 0 0 0 0 0 0 0 0 127 0" result="hardAlpha"/>
<feOffset dy="20"/>
<feGaussianBlur stdDeviation="29"/>
<feComposite in2="hardAlpha" operator="out"/>
<feColorMatrix type="matrix" values="0 0 0 0 0 0 0 0 0 0 0 0 0 0 0 0 0 0 0.08 0"/>
<feBlend mode="normal" in2="BackgroundImageFix" result="effect1_dropShadow_68_1023"/>
<feBlend mode="normal" in="SourceGraphic" in2="effect1_dropShadow_68_1023" result="shape"/>
</filter>
</defs>
</svg>
