<svg width="47" height="90" viewBox="0 0 47 90" fill="none" xmlns="http://www.w3.org/2000/svg">
<path fill-rule="evenodd" clip-rule="evenodd" d="M30.9581 32.2661C24.7442 36.8664 18.7678 40.6587 11.084 35.6093C-4.55452 25.3318 8.85536 1.99731 26.2892 5.67208C35.7007 7.65566 40.9154 16.7361 41.2827 25.2813C42.0879 43.9798 29.5486 72.7711 16.7977 87.267L14.3388 89.9771C18.5398 87.624 17.6289 88.4137 20.958 85.1698C34.3016 72.1637 48.2096 40.6513 46.9165 22.6334C45.6659 5.20064 26.9478 -6.42058 10.7953 3.85996C-11.0194 17.7447 4.06346 45.5334 22.2314 39.5274C27.1037 37.9172 28.2793 35.9847 30.9581 32.2661Z" fill="#0FAD74" fill-opacity="0.2"/>
</svg>
