<svg width="194" height="194" viewBox="0 0 194 194" fill="none" xmlns="http://www.w3.org/2000/svg">
<g filter="url(#filter0_d_68_950)">
<circle cx="97" cy="77" r="39" fill="white"/>
</g>
<path d="M96.9594 76.875C96.0748 76.4697 95.0773 76.3823 94.1357 76.6275C94.112 75.9871 93.856 75.3773 93.4157 74.9119C91.5774 73.2727 88.7492 73.977 87.8975 75.2212C86.826 76.8187 87.6506 78.045 87.5882 79.6819C87.6737 80.9337 87.3964 82.1837 86.7894 83.2819L83.5382 89.0081C83.4801 89.108 83.4548 89.2236 83.4659 89.3387C83.477 89.4537 83.5239 89.5624 83.6 89.6494L86.9525 93.5531C87.006 93.6141 87.0717 93.6631 87.1453 93.6971C87.219 93.731 87.299 93.749 87.38 93.75C87.4798 93.7505 87.578 93.7242 87.6641 93.6737C87.7502 93.6232 87.8211 93.5505 87.8694 93.4631L91.8069 86.5444C92.6493 85.0661 93.9918 83.9371 95.5925 83.3606C96.605 83.0344 97.644 82.7177 98.1294 81.78C98.5534 80.9091 98.6492 79.9146 98.3994 78.9787C98.3318 78.5428 98.1673 78.1275 97.9181 77.7635C97.6689 77.3994 97.3413 77.0958 96.9594 76.875Z" fill="#0FAD74"/>
<path d="M112.529 67.7794L111.624 62.7112C111.607 62.623 111.57 62.54 111.515 62.4691C111.46 62.3982 111.389 62.3415 111.307 62.3036C111.226 62.2656 111.137 62.2476 111.047 62.251C110.957 62.2544 110.87 62.2791 110.791 62.3231L103.878 66.2775C102.403 67.1257 100.672 67.4151 99.0013 67.0931L98.3488 66.9694C96.0668 66.1987 94.6071 68.2856 94.3607 69.4387C93.5445 71.502 95.1336 73.1552 96.8301 73.6294C95.461 76.2506 98.755 78.329 100.408 78.2306C101.851 78.3178 103.029 76.875 103.321 75.795C103.584 75.1075 103.917 74.4496 104.317 73.8319C104.855 72.9205 105.621 72.1645 106.539 71.6381L112.254 68.37C112.355 68.3117 112.435 68.2238 112.485 68.1181C112.534 68.0125 112.55 67.8942 112.529 67.7794ZM92.7632 69.2407C92.9124 69.2407 93.0555 69.1815 93.1609 69.076C93.2664 68.9705 93.3257 68.8274 93.3257 68.6782V65.3595C93.3257 65.2103 93.2664 65.0672 93.1609 64.9617C93.0555 64.8562 92.9124 64.797 92.7632 64.797C92.614 64.797 92.4709 64.8562 92.3655 64.9617C92.26 65.0672 92.2007 65.2103 92.2007 65.3595V68.6782C92.2007 68.8274 92.26 68.9705 92.3655 69.076C92.4709 69.1815 92.614 69.2407 92.7632 69.2407ZM89.9541 70.4299C90.063 70.5307 90.2074 70.5843 90.3557 70.5792C90.504 70.574 90.6443 70.5105 90.7459 70.4023C90.8476 70.2942 90.9024 70.1503 90.8984 70.0019C90.8945 69.8536 90.832 69.7128 90.7247 69.6103L88.2266 67.2613C88.1177 67.1605 87.9734 67.1068 87.825 67.112C87.6767 67.1171 87.5364 67.1807 87.4348 67.2888C87.3331 67.3969 87.2783 67.5408 87.2823 67.6892C87.2863 67.8376 87.3487 67.9783 87.456 68.0809L89.9541 70.4299ZM85.6791 73.1557H89.0906C89.2398 73.1557 89.3829 73.0965 89.4884 72.991C89.5939 72.8855 89.6531 72.7424 89.6531 72.5932C89.6531 72.444 89.5939 72.301 89.4884 72.1955C89.3829 72.09 89.2398 72.0307 89.0906 72.0307H85.6791C85.5299 72.0307 85.3868 72.09 85.2813 72.1955C85.1758 72.301 85.1166 72.444 85.1166 72.5932C85.1166 72.7424 85.1758 72.8855 85.2813 72.991C85.3868 73.0965 85.5299 73.1557 85.6791 73.1557ZM99.1391 82.1726C98.99 82.1726 98.8469 82.2319 98.7414 82.3374C98.6359 82.4428 98.5766 82.5859 98.5766 82.7351V86.1275C98.5766 86.2767 98.6359 86.4198 98.7414 86.5253C98.8469 86.6308 98.99 86.69 99.1391 86.69C99.2883 86.69 99.4314 86.6308 99.5369 86.5253C99.6424 86.4198 99.7016 86.2767 99.7016 86.1275V82.7351C99.7016 82.5859 99.6424 82.4428 99.5369 82.3374C99.4314 82.2319 99.2883 82.1726 99.1391 82.1726ZM101.958 80.9548C101.852 80.85 101.708 80.7917 101.559 80.7927C101.41 80.7937 101.267 80.8539 101.162 80.9601C101.057 81.0664 100.999 81.2099 101 81.3591C101.001 81.5083 101.061 81.651 101.168 81.7558L103.703 84.2589C103.81 84.3609 103.952 84.4169 104.1 84.4148C104.248 84.4126 104.389 84.3526 104.492 84.2475C104.596 84.1425 104.654 84.0009 104.654 83.8533C104.655 83.7057 104.597 83.5639 104.494 83.4585L101.958 80.9548ZM106.41 78.2942H102.83C102.681 78.2942 102.538 78.3534 102.433 78.4589C102.327 78.5644 102.268 78.7075 102.268 78.8567C102.268 79.0059 102.327 79.1489 102.433 79.2544C102.538 79.3599 102.681 79.4192 102.83 79.4192H106.41C106.559 79.4192 106.702 79.3599 106.808 79.2544C106.913 79.1489 106.973 79.0059 106.973 78.8567C106.973 78.7075 106.913 78.5644 106.808 78.4589C106.702 78.3534 106.559 78.2942 106.41 78.2942Z" fill="#0FAD74"/>
<defs>
<filter id="filter0_d_68_950" x="0" y="0" width="194" height="194" filterUnits="userSpaceOnUse" color-interpolation-filters="sRGB">
<feFlood flood-opacity="0" result="BackgroundImageFix"/>
<feColorMatrix in="SourceAlpha" type="matrix" values="0 0 0 0 0 0 0 0 0 0 0 0 0 0 0 0 0 0 127 0" result="hardAlpha"/>
<feOffset dy="20"/>
<feGaussianBlur stdDeviation="29"/>
<feComposite in2="hardAlpha" operator="out"/>
<feColorMatrix type="matrix" values="0 0 0 0 0 0 0 0 0 0 0 0 0 0 0 0 0 0 0.08 0"/>
<feBlend mode="normal" in2="BackgroundImageFix" result="effect1_dropShadow_68_950"/>
<feBlend mode="normal" in="SourceGraphic" in2="effect1_dropShadow_68_950" result="shape"/>
</filter>
</defs>
</svg>
