<svg width="76" height="76" viewBox="0 0 76 76" fill="none" xmlns="http://www.w3.org/2000/svg">
<path d="M62.6776 52.2499H58.0391V47.6484C58.043 47.475 58.0124 47.3025 57.949 47.1411C57.8855 46.9796 57.7906 46.8324 57.6697 46.7081C57.5488 46.5837 57.4043 46.4847 57.2447 46.4167C57.0851 46.3488 56.9135 46.3134 56.7401 46.3124H52.5838C52.2258 46.3115 51.8816 46.4508 51.625 46.7005C51.3684 46.9502 51.2197 47.2904 51.2109 47.6484V52.2499H46.4979C46.1398 52.249 45.7957 52.3883 45.539 52.638C45.2824 52.8877 45.1338 53.2279 45.125 53.5859V57.7421C45.1338 58.1001 45.2824 58.4403 45.539 58.69C45.7957 58.9397 46.1398 59.079 46.4979 59.0781H51.2109V63.8281C51.2197 64.186 51.3684 64.5263 51.625 64.776C51.8816 65.0257 52.2258 65.165 52.5838 65.164H56.7401C56.9135 65.1631 57.0851 65.1276 57.2447 65.0597C57.4043 64.9918 57.5488 64.8927 57.6697 64.7684C57.7906 64.644 57.8855 64.4968 57.949 64.3354C58.0124 64.1739 58.043 64.0015 58.0391 63.8281V59.0781H62.6776C62.851 59.0771 63.0226 59.0417 63.1822 58.9738C63.3418 58.9058 63.4863 58.8068 63.6072 58.6825C63.7281 58.5581 63.823 58.4109 63.8865 58.2494C63.9499 58.088 63.9805 57.9155 63.9766 57.7421V53.5859C63.9805 53.4125 63.9499 53.24 63.8865 53.0786C63.823 52.9171 63.7281 52.7699 63.6072 52.6456C63.4863 52.5212 63.3418 52.4222 63.1822 52.3542C63.0226 52.2863 62.851 52.2509 62.6776 52.2499ZM61.8984 56.9999H57.3338C56.9758 56.999 56.6316 57.1383 56.375 57.388C56.1184 57.6377 55.9697 57.9779 55.9609 58.3359V63.0859H53.2891V58.3359C53.293 58.1625 53.2624 57.99 53.199 57.8286C53.1355 57.6671 53.0406 57.5199 52.9197 57.3956C52.7988 57.2712 52.6543 57.1722 52.4947 57.1042C52.3351 57.0363 52.1635 57.0009 51.9901 56.9999H47.2031V54.3281H51.9901C52.1635 54.3271 52.3351 54.2917 52.4947 54.2238C52.6543 54.1558 52.7988 54.0568 52.9197 53.9325C53.0406 53.8081 53.1355 53.6609 53.199 53.4994C53.2624 53.338 53.293 53.1655 53.2891 52.9921V48.3906H55.9609V52.9921C55.9697 53.3501 56.1184 53.6903 56.375 53.94C56.6316 54.1897 56.9758 54.329 57.3338 54.3281H61.8984V56.9999Z" fill="#01A368" fill-opacity="0.3"/>
<path d="M54.8966 37.5781C52.0264 37.5789 49.1989 38.2741 46.6555 39.6044C44.1121 40.9347 41.9283 42.8605 40.2904 45.2176C40.0105 45.1315 39.7458 45.0478 39.4961 44.9664L38.4876 42.106C41.6048 39.7707 42.4586 36.124 42.6917 34.3576C44.7879 33.7889 46.713 31.3259 47.4843 28.0619C47.8999 26.2966 47.2913 24.6529 45.9693 23.9717C45.6029 23.7832 45.1969 23.6846 44.7848 23.6844C44.8531 23.1721 44.9243 22.5456 44.9981 21.7762C45.1706 19.9761 45.2801 18.1579 45.2801 17.6971C45.2801 17.3706 45.2867 17.0339 45.2935 16.6775C45.3485 13.8351 45.417 10.2978 42.2817 7.12661C39.4679 4.28076 35.4844 2.71193 31.3542 2.82607C27.2396 2.93859 23.3813 4.69431 20.7682 7.64302C20.688 7.73376 20.6066 7.8251 20.5239 7.91703C18.9478 9.6781 16.789 12.0901 16.944 18.2667C16.9588 18.8713 17.5377 21.642 18.1373 23.7537C17.7878 23.7884 17.4489 23.8931 17.1407 24.0615C15.8717 24.7473 15.2898 26.3549 15.6927 28.0621C16.4645 31.3317 18.3959 33.7977 20.4968 34.3601C20.748 36.0924 21.6272 39.703 24.6648 42.0403L23.3344 44.7763C22.3844 45.0741 21.3137 45.369 20.2086 45.6786C13.0659 47.6806 3.26562 50.4221 3.26562 59.3288V68.6415C3.26562 70.8415 4.44229 73.1797 6.55441 73.1797H54.9588C54.9685 73.1797 54.9778 73.1785 54.9873 73.1782C59.6983 73.1511 64.2065 71.2577 67.5238 67.9127C70.8412 64.5677 72.6973 60.044 72.6853 55.3329C72.6733 50.6219 70.7942 46.1077 67.4598 42.7797C64.1254 39.4516 59.6077 37.5812 54.8966 37.5781ZM22.0727 9.3024C22.1576 9.2076 22.2413 9.11359 22.324 9.02037C24.5571 6.5002 27.8691 4.99935 31.4112 4.90257C34.9702 4.80371 38.3932 6.14825 40.8041 8.58693C43.3225 11.134 43.266 14.0572 43.2161 16.6363C43.2081 16.9895 43.2035 17.3429 43.2023 17.6962C43.2023 17.9165 43.18 18.3736 43.142 18.955C42.6396 17.0872 41.937 15.2832 40.9696 14.2284L40.8927 14.0747C40.805 13.8991 40.6693 13.752 40.5015 13.6504C40.3336 13.5487 40.1404 13.4967 39.9442 13.5003C39.7479 13.504 39.5568 13.5631 39.3928 13.6708C39.2287 13.7786 39.0986 13.9306 39.0174 14.1093C37.3432 17.7918 35.6847 17.6436 32.9371 17.3985C32.6129 17.3685 32.2885 17.3417 31.9638 17.3182C30.9183 17.244 30.5401 17.8549 30.426 18.1197C30.0872 18.9065 30.5579 19.756 31.4196 20.7633C28.6766 20.4358 27.9814 18.4295 27.355 16.6198C26.9202 15.3637 26.4275 13.9399 24.9948 13.9399C24.3044 13.9264 23.6192 14.0607 22.985 14.3339C22.3509 14.6071 21.7825 15.0129 21.3181 15.5239C20.2534 16.6668 19.6534 18.2964 19.3194 19.8933C19.1842 19.3405 19.0851 18.7795 19.0226 18.2138C18.887 12.8618 20.5794 10.9707 22.0727 9.3024ZM22.4804 33.4003C22.4679 33.1327 22.3531 32.88 22.1598 32.6945C21.9665 32.509 21.7093 32.4047 21.4414 32.4031H21.3961C19.8743 32.4031 18.2675 29.9207 17.7148 27.5841C17.5033 26.6876 17.781 26.077 18.1285 25.8891C18.5214 25.6771 18.9405 26.0505 19.1023 26.221C19.2381 26.364 19.4118 26.4654 19.6031 26.5134C19.7945 26.5613 19.9955 26.5538 20.1827 26.4918C20.3699 26.4297 20.5356 26.3156 20.6604 26.1629C20.7852 26.0101 20.8639 25.825 20.8874 25.6292C20.9897 25.451 21.0367 25.2463 21.0223 25.0412C20.9119 23.4475 21.0234 18.8851 22.8392 16.9392C23.096 16.6543 23.409 16.4256 23.7584 16.2675C24.1079 16.1093 24.4863 16.0252 24.8698 16.0204C25.026 16.2459 25.2344 16.8478 25.3907 17.2998C26.1608 19.5246 27.5941 23.6648 33.946 22.7586C34.1408 22.7308 34.3236 22.6483 34.4733 22.5207C34.623 22.3931 34.7334 22.2256 34.7917 22.0377C34.85 21.8498 34.8537 21.6493 34.8025 21.4594C34.7513 21.2694 34.6472 21.0979 34.5024 20.9648C33.9987 20.5017 33.5205 20.0116 33.0701 19.4965C35.5129 19.7086 38.0047 19.7885 40.0642 16.5479C41.3657 18.9888 42.0433 23.8426 42.2092 25.7701C42.2315 26.0291 42.3501 26.2703 42.5415 26.4462C42.733 26.6221 42.9834 26.7198 43.2434 26.7201C43.2731 26.7201 43.3028 26.7187 43.3335 26.7161C43.5217 26.6999 43.702 26.6327 43.8549 26.5217C44.0077 26.4107 44.1274 26.2601 44.201 26.0861C44.4061 25.8833 44.719 25.6645 45.0174 25.8179C45.3986 26.0142 45.6735 26.6841 45.4617 27.5843C44.9093 29.9213 43.3026 32.4036 41.7804 32.4036H41.7544C41.5527 32.4003 41.3544 32.4554 41.1832 32.5621C41.0381 32.6526 40.9176 32.7777 40.8326 32.9262C40.7475 33.0746 40.7006 33.2418 40.6959 33.4128C40.6514 34.2625 40.249 38.6071 36.7087 40.8074C36.703 40.8108 36.6976 40.8146 36.692 40.8182C35.3136 41.6686 33.5965 42.1 31.5882 42.1C29.5855 42.1 27.8723 41.6588 26.4953 40.7884C23.0054 38.5848 22.5385 34.2475 22.4803 33.4003H22.4804ZM25.0085 46.0855L26.4483 43.1251C27.9394 43.8236 29.6623 44.1778 31.5884 44.1778C33.4866 44.1778 35.1867 43.8414 36.662 43.1785L37.7049 46.1367C37.7571 46.2849 37.8422 46.4194 37.9539 46.5299C38.0656 46.6405 38.2008 46.7243 38.3496 46.775C38.6084 46.8633 38.8825 46.9534 39.1718 47.0453C38.6625 48.0014 38.2423 49.0024 37.9163 50.0354C36.9547 51.1742 34.9367 52.9162 31.5884 52.9162C30.4585 52.9284 29.3387 52.7023 28.3021 52.2526C27.2655 51.8029 26.3353 51.1397 25.5722 50.3063C24.4762 49.1307 23.8558 47.8201 23.6467 46.855C23.9016 46.7768 24.1514 46.6984 24.3954 46.6191C24.5282 46.5759 24.6509 46.5064 24.7562 46.4147C24.8615 46.323 24.9474 46.2111 25.0085 46.0855ZM5.34375 68.6415V59.3288C5.34375 51.9979 13.9049 49.6036 20.7691 47.6797C21.0596 47.5982 21.3551 47.5179 21.6377 47.4382C22.3896 50.5967 25.7765 54.9937 31.583 54.9937C33.5729 55.0188 35.5268 54.4621 37.2047 53.392C36.8077 56.9416 37.4874 60.5284 39.1555 63.6866C40.8236 66.8448 43.403 69.4283 46.5585 71.1015H6.55441C5.89297 71.1015 5.34375 69.7791 5.34375 68.6415ZM54.8966 71.1015C51.787 71.1015 48.7473 70.1794 46.1617 68.4518C43.5762 66.7241 41.561 64.2686 40.3711 61.3957C39.1811 58.5228 38.8697 55.3615 39.4764 52.3117C40.0831 49.2618 41.5805 46.4604 43.7793 44.2615C45.9781 42.0627 48.7796 40.5653 51.8294 39.9586C54.8793 39.352 58.0406 39.6633 60.9135 40.8533C63.7864 42.0433 66.2419 44.0585 67.9695 46.644C69.6971 49.2295 70.6193 52.2693 70.6193 55.3789C70.6147 59.5474 68.9567 63.5438 66.0091 66.4914C63.0615 69.4389 59.0651 71.0969 54.8966 71.1015Z" fill="#01A368" fill-opacity="0.3"/>
</svg>
