<svg width="194" height="194" viewBox="0 0 194 194" fill="none" xmlns="http://www.w3.org/2000/svg">
<g filter="url(#filter0_d_68_939)">
<circle cx="97" cy="77" r="39" fill="white"/>
</g>
<g clip-path="url(#clip0_68_939)">
<path d="M96.9416 78.489C96.2984 78.8628 95.5677 79.0594 94.8239 79.0588C92.4886 79.0588 90.5886 77.1589 90.5886 74.8235H92.7063C92.7063 76.0125 93.6912 76.9758 94.888 76.9402C96.0398 76.906 96.9416 75.9307 96.9416 74.7784V62.1306C96.9416 60.9892 96.0325 60 94.8239 60C93.2209 60 91.8231 60.8953 91.1041 62.2121C92.6409 62.4913 94.0143 63.3796 94.9016 64.7053L93.1417 65.8832C92.4511 64.8514 91.2987 64.2353 90.0592 64.2353C86.8481 64.2353 84.2357 66.8478 84.2357 70.0588C84.2361 70.6317 84.3209 71.2014 84.4872 71.7496C82.3773 73.0984 81.0592 75.4556 81.0592 78C81.0592 80.9192 83.4341 83.2941 86.3533 83.2941C87.6556 83.295 88.9123 82.8151 89.8825 81.9463L91.2947 83.5242C89.3405 85.2732 86.677 85.8104 84.2948 85.1206C83.7651 88.8231 86.8381 92.081 90.5886 91.7407V91.7647C90.5886 94.1 92.4886 96 94.8239 96C96.0332 96 96.9416 95.0101 96.9416 93.8694V78.489ZM108.045 82.2353H106.506V80.1176H108.059C110.174 80.1176 112.028 81.2508 113.049 82.9416C114.267 81.5839 114.941 79.8241 114.941 78C114.941 76.1759 114.267 74.4161 113.049 73.0584C112.028 74.7492 110.174 75.8824 108.059 75.8824H106.506V73.7647H108.045C110.085 73.7647 111.766 72.0953 111.765 70.0549C111.763 66.6563 108.838 63.9483 105.412 64.2592V64.2353C105.412 61.8987 103.506 59.9873 101.154 60.0001C99.9911 60.0064 99.0593 60.968 99.0593 62.1306V71.6471C99.0593 72.8147 100.009 73.7647 101.177 73.7647V75.8824C100.433 75.883 99.7024 75.6863 99.0593 75.3126V83.2941C99.0593 84.4618 100.009 85.4118 101.177 85.4118V87.5294C100.433 87.53 99.7024 87.3334 99.0593 86.9596V93.8694C99.0593 95.0109 99.9683 96.0001 101.177 96.0001C103.512 96.0001 105.412 94.1001 105.412 91.7648V91.7408C108.838 92.0516 111.763 89.3441 111.765 85.9451C111.766 83.9047 110.085 82.2353 108.045 82.2353Z" fill="#FCA680"/>
</g>
<defs>
<filter id="filter0_d_68_939" x="0" y="0" width="194" height="194" filterUnits="userSpaceOnUse" color-interpolation-filters="sRGB">
<feFlood flood-opacity="0" result="BackgroundImageFix"/>
<feColorMatrix in="SourceAlpha" type="matrix" values="0 0 0 0 0 0 0 0 0 0 0 0 0 0 0 0 0 0 127 0" result="hardAlpha"/>
<feOffset dy="20"/>
<feGaussianBlur stdDeviation="29"/>
<feComposite in2="hardAlpha" operator="out"/>
<feColorMatrix type="matrix" values="0 0 0 0 0 0 0 0 0 0 0 0 0 0 0 0 0 0 0.08 0"/>
<feBlend mode="normal" in2="BackgroundImageFix" result="effect1_dropShadow_68_939"/>
<feBlend mode="normal" in="SourceGraphic" in2="effect1_dropShadow_68_939" result="shape"/>
</filter>
<clipPath id="clip0_68_939">
<rect width="36" height="36" fill="white" transform="translate(80 60)"/>
</clipPath>
</defs>
</svg>
