<svg width="112" height="38" viewBox="0 0 112 38" fill="none" xmlns="http://www.w3.org/2000/svg">
<path d="M110.193 9.38693L71.9732 17.3711C71.6594 17.4366 71.3748 17.6009 71.1611 17.8398C70.9474 18.0788 70.8157 18.3799 70.7855 18.699L70.3312 23.5122L62.5642 1.91967C62.4456 1.59054 62.2159 1.31312 61.9147 1.13524C61.6134 0.957358 61.2595 0.890183 60.9141 0.945292C60.2031 1.06244 59.6708 1.6648 59.6511 2.38617L59.1399 20.8256L54.472 10.7142C54.332 10.4111 54.0951 10.1633 53.7985 10.01C53.502 9.85661 53.1628 9.80646 52.8345 9.86744C52.5059 9.92774 52.2069 10.0963 51.9852 10.3461C51.7634 10.596 51.6316 10.9129 51.6107 11.2463L50.5246 28.0147L42.445 1.0701C42.3468 0.741931 42.1393 0.457252 41.8568 0.263381C41.5744 0.0695099 41.2342 -0.0218759 40.8927 0.00441289C40.5511 0.0304593 40.2288 0.172601 39.9792 0.407213C39.7296 0.641825 39.5678 0.954777 39.5208 1.29406L36.2136 25.01L1.19435 32.3257C0.804593 32.4071 0.463143 32.64 0.245117 32.9732C0.0270898 33.3064 -0.0496545 33.7125 0.0317671 34.1023C0.113189 34.492 0.346107 34.8335 0.679282 35.0515C1.01246 35.2695 1.4186 35.3463 1.80835 35.2648L37.861 27.7333C38.1637 27.6702 38.4396 27.5151 38.6508 27.2892C38.862 27.0632 38.9982 26.7775 39.0408 26.4712L41.5439 8.51899L50.0451 36.87C50.1463 37.2071 50.3627 37.4979 50.6565 37.6916C50.9504 37.8854 51.3029 37.9697 51.6526 37.9299C52.0024 37.8902 52.327 37.7288 52.5698 37.474C52.8126 37.2192 52.9582 36.8872 52.9811 36.536L54.2243 17.3424L59.0991 27.9025C59.241 28.21 59.4826 28.4605 59.7849 28.6133C60.0871 28.7661 60.4321 28.8122 60.7638 28.7442L60.7692 28.743C61.0997 28.6739 61.3973 28.4953 61.6138 28.2362C61.8304 27.9771 61.9532 27.6526 61.9626 27.315L62.4309 10.4219L69.7802 30.8529C69.8958 31.1739 70.1173 31.446 70.4082 31.6243C70.6991 31.8026 71.042 31.8764 71.3805 31.8337C71.719 31.7911 72.0329 31.6343 72.2704 31.3894C72.5079 31.1445 72.655 30.826 72.6872 30.4863L73.6698 20.0835L110.806 12.3256C110.999 12.2853 111.182 12.2074 111.345 12.0963C111.508 11.9852 111.647 11.8432 111.755 11.6782C111.863 11.5133 111.937 11.3287 111.974 11.135C112.011 10.9413 112.009 10.7423 111.968 10.5494C111.928 10.3565 111.85 10.1733 111.739 10.0104C111.628 9.84757 111.486 9.70817 111.321 9.60022C111.156 9.49226 110.972 9.41785 110.778 9.38126C110.584 9.34466 110.385 9.34659 110.193 9.38693Z" fill="#F6E0D4"/>
</svg>
