<svg width="194" height="194" viewBox="0 0 194 194" fill="none" xmlns="http://www.w3.org/2000/svg">
<g filter="url(#filter0_d_68_974)">
<circle cx="97" cy="77" r="39" fill="white"/>
</g>
<g clip-path="url(#clip0_68_974)">
<path d="M110.999 87.3617C110.042 85.6934 108.558 84.5636 106.991 84.1382C105.752 83.8001 104.468 83.9038 103.357 84.5317L100.052 78.754C102.098 74.674 106.689 65.5268 107.512 64.0847C108.58 62.2197 106.67 60 106.67 60L97.9988 75.1653L89.3299 60C89.3299 60 87.4212 62.2197 88.4875 64.0835C89.3122 65.5268 93.9047 74.6729 95.9476 78.7528L92.644 84.5306C91.533 83.9026 90.2465 83.7989 89.0106 84.1371C87.4413 84.5624 85.9579 85.6922 85.0013 87.3605C83.2835 90.3613 83.9398 93.9606 86.461 95.4039C87.5791 96.046 88.8739 96.1485 90.1216 95.8103C91.6874 95.3826 93.1742 94.2528 94.1297 92.588C94.5333 91.8837 94.816 91.1167 94.9662 90.3189V90.3201C94.9674 90.3142 94.9674 90.3083 94.9733 90.3024C94.9815 90.2388 94.9933 90.1752 94.9992 90.1056C95.7084 85.347 97.0492 82.9165 97.9976 81.736C98.9484 82.9165 100.29 85.3459 100.998 90.1056C101.005 90.1752 101.017 90.2388 101.023 90.3024C101.028 90.3083 101.028 90.3142 101.03 90.3201V90.3189C101.173 91.0823 101.448 91.8529 101.866 92.588C102.822 94.2528 104.309 95.3826 105.876 95.8103C107.124 96.1485 108.418 96.046 109.539 95.4039C112.061 93.9606 112.715 90.3625 110.999 87.3617ZM91.6768 91.1837C91.1348 92.1297 90.2759 92.8425 89.3817 93.0864C88.9835 93.1948 88.3991 93.2608 87.863 92.9533C86.7202 92.2994 86.5329 90.3778 87.4554 88.7637C88.0068 87.807 88.8421 87.1108 89.7528 86.8622C90.1475 86.7549 90.7319 86.6901 91.2703 86.9953C92.4143 87.6515 92.6004 89.5684 91.6768 91.1837ZM108.136 92.9533C107.6 93.2619 107.018 93.1948 106.619 93.0864C105.724 92.8425 104.866 92.1297 104.323 91.1837C103.401 89.5684 103.587 87.6515 104.731 86.9953C105.269 86.689 105.854 86.7549 106.249 86.8622C107.158 87.1108 107.996 87.807 108.543 88.7637C109.466 90.3778 109.28 92.2994 108.136 92.9533Z" fill="#0FAD74"/>
</g>
<defs>
<filter id="filter0_d_68_974" x="0" y="0" width="194" height="194" filterUnits="userSpaceOnUse" color-interpolation-filters="sRGB">
<feFlood flood-opacity="0" result="BackgroundImageFix"/>
<feColorMatrix in="SourceAlpha" type="matrix" values="0 0 0 0 0 0 0 0 0 0 0 0 0 0 0 0 0 0 127 0" result="hardAlpha"/>
<feOffset dy="20"/>
<feGaussianBlur stdDeviation="29"/>
<feComposite in2="hardAlpha" operator="out"/>
<feColorMatrix type="matrix" values="0 0 0 0 0 0 0 0 0 0 0 0 0 0 0 0 0 0 0.08 0"/>
<feBlend mode="normal" in2="BackgroundImageFix" result="effect1_dropShadow_68_974"/>
<feBlend mode="normal" in="SourceGraphic" in2="effect1_dropShadow_68_974" result="shape"/>
</filter>
<clipPath id="clip0_68_974">
<rect width="36" height="36" fill="white" transform="translate(80 60)"/>
</clipPath>
</defs>
</svg>
