<svg width="195" height="150" viewBox="0 0 195 150" fill="none" xmlns="http://www.w3.org/2000/svg">
<g clip-path="url(#clip0_68_790)">
<path d="M3.73694 139.116L3.39722 135.714C6.11499 135.374 8.49303 135.034 11.2108 134.694L11.5505 138.095C9.17248 138.776 6.45471 139.116 3.73694 139.116ZM19.7038 137.075L19.0244 133.673C21.7422 133.333 24.1202 132.653 26.838 132.313L27.5174 135.714C24.7997 136.395 22.4216 136.735 19.7038 137.075ZM35.331 134.014L34.6516 130.612C37.0296 129.932 39.7474 129.252 42.1254 128.571L43.1446 131.973C40.4268 132.653 37.7091 133.333 35.331 134.014ZM50.6185 129.592L49.5993 126.19C51.9774 125.51 54.6951 124.49 57.0732 123.81L58.0923 127.211C55.7143 127.891 52.9965 128.912 50.6185 129.592ZM65.5662 124.15L64.2073 121.088C66.5854 120.068 68.9634 119.048 71.3415 118.027L72.7003 121.088C70.3223 122.449 67.9442 123.469 65.5662 124.15ZM80.1742 118.027L78.8153 114.966C81.1934 113.946 83.5714 112.585 85.9495 111.565L87.6481 114.626C84.9303 115.646 82.5523 116.667 80.1742 118.027ZM94.1028 110.544L92.4042 107.483C94.7822 106.122 96.8206 104.762 99.1986 103.401L100.897 106.463C98.8589 108.163 96.4808 109.184 94.1028 110.544ZM107.692 102.381L105.993 99.6599C108.031 98.2993 110.409 96.9388 112.448 95.2381L114.486 97.9592C112.108 99.6599 110.07 101.02 107.692 102.381ZM120.941 93.1973L118.902 90.4762C120.941 88.7755 122.979 87.415 125.017 85.7143L127.056 88.4354C125.017 90.1361 122.979 91.8367 120.941 93.1973ZM133.171 83.3333L130.793 80.6123C132.831 78.9116 134.869 77.2109 136.568 75.5102L139.286 78.2313C137.247 79.932 135.209 81.6327 133.171 83.3333ZM145.061 72.7891L142.683 70.068C144.721 68.3674 146.42 66.3265 148.118 64.6259L150.497 67.0068C148.798 69.0476 146.76 70.7483 145.061 72.7891ZM155.932 61.2245L153.214 58.8435C154.913 56.8027 156.611 54.7619 158.31 53.0612L161.028 55.102C159.669 57.1429 157.631 59.1837 155.932 61.2245ZM166.124 48.9796L163.406 46.9388C165.105 44.898 166.463 42.8571 168.162 40.8163L170.88 42.8571C169.521 44.898 167.822 46.9388 166.124 48.9796ZM175.636 36.0544L172.918 34.0136C174.277 31.9728 175.976 29.5918 177.334 27.551L180.052 29.5918C178.693 31.6327 176.995 34.0136 175.636 36.0544ZM184.129 22.7891L181.071 21.0884C182.43 18.7075 183.789 16.6667 184.808 14.2857L187.866 15.9864C186.507 18.0272 185.488 20.4082 184.129 22.7891ZM191.603 8.5034L188.545 7.14286C189.564 4.7619 190.923 2.38095 191.943 0L195 1.36054C193.641 3.7415 192.622 6.12245 191.603 8.5034Z" fill="#01A368"/>
<path d="M16.6463 150L18.6847 147.279L5.09582 137.415L15.9669 124.49L13.2491 122.109L0 137.755L16.6463 150Z" fill="#01A368"/>
</g>
<defs>
<clipPath id="clip0_68_790">
<rect width="195" height="150" fill="white"/>
</clipPath>
</defs>
</svg>
