<svg width="35" height="37" viewBox="0 0 35 37" fill="none" xmlns="http://www.w3.org/2000/svg">
<path d="M10.6658 7.90265C9.89212 7.90265 9.28422 7.27633 9.28422 6.52107V1.38158C9.28422 0.626317 9.89212 0 10.6658 0C11.4395 0 12.0474 0.626317 12.0474 1.38158V6.50265C12.0474 7.27633 11.4395 7.90265 10.6658 7.90265Z" fill="white"/>
<path d="M24.3344 7.90265C23.5608 7.90265 22.9529 7.27633 22.9529 6.52107V1.38158C22.9529 0.607896 23.5792 0 24.3344 0C25.1081 0 25.716 0.626317 25.716 1.38158V6.50265C25.716 7.27633 25.1081 7.90265 24.3344 7.90265Z" fill="white"/>
<path d="M31.4448 4.60527C30.229 3.70264 28.479 4.56843 28.479 6.09738V6.28159C28.479 8.43686 26.9316 10.4263 24.7764 10.6474C22.2895 10.9053 20.1895 8.95265 20.1895 6.52107V4.60527C20.1895 3.59211 19.3606 2.76316 18.3474 2.76316H16.6527C15.6395 2.76316 14.8106 3.59211 14.8106 4.60527V6.52107C14.8106 7.97634 14.0553 9.26581 12.9132 9.98424C12.7474 10.0948 12.5632 10.1869 12.379 10.279C12.2132 10.3711 12.029 10.4448 11.8263 10.5C11.6053 10.5737 11.3658 10.629 11.1079 10.6474C10.8132 10.6842 10.5184 10.6842 10.2237 10.6474C9.96581 10.629 9.72634 10.5737 9.50528 10.5C9.32107 10.4448 9.13686 10.3711 8.95265 10.279C8.76844 10.1869 8.58423 10.0948 8.41844 9.98424C7.25791 9.17371 6.52107 7.7737 6.52107 6.28159V6.09738C6.52107 4.67896 5.01054 3.83159 3.81317 4.43948C3.79475 4.45791 3.77632 4.45791 3.7579 4.47633C3.68422 4.51317 3.62895 4.55001 3.55527 4.60527C3.50001 4.66054 3.42632 4.69738 3.37106 4.75264C2.85527 5.15791 2.39474 5.61843 2.0079 6.1158C1.80527 6.33686 1.63948 6.57633 1.49211 6.81581C1.47369 6.83423 1.45527 6.85265 1.43685 6.88949C1.27106 7.12896 1.12369 7.40528 0.994739 7.66318C0.957897 7.70002 0.939476 7.71844 0.939476 7.75528C0.828949 7.97634 0.718422 8.19739 0.644738 8.43686C0.589475 8.52897 0.571054 8.60265 0.534212 8.69476C0.423685 8.97107 0.350001 9.24739 0.276317 9.52371C0.202632 9.7816 0.147369 10.0579 0.110526 10.3342C0.0736843 10.5369 0.0552632 10.7395 0.0368421 10.9606C0.0184211 11.2184 0 11.4763 0 11.7342V27.8711C0 32.8264 4.0158 36.8422 8.97107 36.8422H26.029C30.9843 36.8422 35.0001 32.8264 35.0001 27.8711V11.7342C35.0001 8.80528 33.6001 6.24475 31.4448 4.60527ZM17.5 28.4053H8.95265C8.19739 28.4053 7.57107 27.779 7.57107 27.0238C7.57107 26.2501 8.19739 25.6237 8.95265 25.6237H17.5C18.2737 25.6237 18.8816 26.2501 18.8816 27.0238C18.8816 27.779 18.2737 28.4053 17.5 28.4053ZM22.6211 21.5711H8.95265C8.19739 21.5711 7.57107 20.9448 7.57107 20.1895C7.57107 19.4158 8.19739 18.7895 8.95265 18.7895H22.6211C23.3948 18.7895 24.0211 19.4158 24.0211 20.1895C24.0211 20.9448 23.3948 21.5711 22.6211 21.5711Z" fill="white"/>
</svg>
