<svg width="100" height="100" viewBox="0 0 100 100" fill="none" xmlns="http://www.w3.org/2000/svg">
<circle cx="50" cy="50" r="50" fill="#FFF3EE"/>
<path d="M69.5818 39.0848C68.9156 36.4722 67.4956 34.2194 65.4754 32.5699C63.5073 30.9631 61.0964 30.0781 58.6866 30.0781C56.8391 30.0781 55.077 30.5755 53.4489 31.5564C52.1632 32.3312 51.0066 33.385 49.9964 34.7003C47.6989 31.7056 44.6654 30.0781 41.3103 30.0781C38.9015 30.0781 36.4915 30.9631 34.5238 32.5699C32.5042 34.2194 31.0845 36.4719 30.4183 39.0844C29.9297 41.0006 29.7072 43.6898 30.6713 46.9241H36.725L38.911 42.5518C39.0083 42.3572 39.1579 42.1934 39.343 42.079C39.5281 41.9646 39.7414 41.904 39.959 41.9039C40.403 41.9039 40.8086 42.1548 41.007 42.5518L44.9791 50.4959L48.9513 42.5518C49.0485 42.3571 49.1981 42.1934 49.3832 42.0789C49.5683 41.9645 49.7816 41.9039 49.9993 41.9039C50.443 41.9039 50.8486 42.1548 51.0472 42.5518L53.2332 46.9241H61.3952C62.0425 46.9241 62.5668 47.4487 62.5668 48.0956C62.5668 48.7429 62.0425 49.2675 61.3952 49.2675H52.509C52.0653 49.2675 51.6598 49.0167 51.4611 48.6196L49.9993 45.6957L46.0271 53.6398C45.9297 53.8344 45.7802 53.998 45.5951 54.1124C45.41 54.2268 45.1967 54.2874 44.9791 54.2874C44.7615 54.2874 44.5482 54.2268 44.3631 54.1124C44.178 53.998 44.0285 53.8344 43.9311 53.6398L39.9593 45.6957L38.4972 48.6199C38.3998 48.8145 38.2502 48.9781 38.0652 49.0925C37.8801 49.2068 37.6668 49.2674 37.4493 49.2675H31.5489C31.9405 50.136 32.419 51.0351 33 51.9612C36.1897 57.0484 41.7196 61.7618 49.435 65.9705C49.6071 66.0644 49.8 66.1136 49.9961 66.1137C50.1921 66.1137 50.385 66.0646 50.5571 65.9708C58.275 61.7614 63.8064 57.0484 66.9975 51.9616C70.4454 46.4655 70.306 41.9257 69.5818 39.0848Z" fill="#FCA680"/>
</svg>
