<svg width="100" height="100" viewBox="0 0 100 100" fill="none" xmlns="http://www.w3.org/2000/svg">
<circle cx="50" cy="50" r="50" fill="#FFF3EE"/>
<path d="M50 33.3333C45.6334 33.3333 42.0834 36.8833 42.0834 41.25C42.0834 45.5333 45.4334 49 49.8 49.15C49.9334 49.1333 50.0667 49.1333 50.1667 49.15C50.2 49.15 50.2167 49.15 50.25 49.15C50.2667 49.15 50.2667 49.15 50.2834 49.15C54.55 49 57.9 45.5333 57.9167 41.25C57.9167 36.8833 54.3667 33.3333 50 33.3333Z" fill="#FCA680"/>
<path d="M58.4667 53.5833C53.8167 50.4833 46.2334 50.4833 41.5501 53.5833C39.4334 55 38.2667 56.9167 38.2667 58.9667C38.2667 61.0167 39.4334 62.9167 41.5334 64.3167C43.8667 65.8833 46.9334 66.6667 50.0001 66.6667C53.0667 66.6667 56.1334 65.8833 58.4667 64.3167C60.5667 62.9 61.7334 61 61.7334 58.9333C61.7167 56.8833 60.5667 54.9833 58.4667 53.5833Z" fill="#FCA680"/>
</svg>
