<svg width="57" height="57" viewBox="0 0 57 57" fill="none" xmlns="http://www.w3.org/2000/svg">
<g clip-path="url(#clip0_113_2949)">
<path d="M35.6881 7.0586C33.4166 5.56289 30.8274 4.84753 28.2004 4.98984C25.6413 5.1285 23.242 6.10654 21.4453 7.7432C20.0678 8.99797 19.0915 10.5661 18.5436 12.4035C18.1112 13.8547 17.9648 15.4259 18.1047 17.0931C14.3572 16.4207 10.9895 17.2676 8.48757 19.5467C6.69134 21.183 5.49534 23.48 5.11946 26.0149C4.73387 28.6168 5.2055 31.2611 6.48321 33.6616C7.87297 36.2721 10.8523 39.7531 17.1555 41.5103C22.9899 43.1369 30.3151 42.8956 38.9277 40.7929C39.1229 40.7451 39.2992 40.6498 39.4433 40.5185C39.5873 40.3873 39.6988 40.2207 39.7643 40.0308C42.6605 31.6494 43.5835 24.3772 42.5079 18.4162C41.3457 11.9758 38.1579 8.6851 35.6881 7.0586ZM37.7386 38.6472C27.4609 41.0641 20.6568 40.3739 16.201 38.7043L18.6435 36.4793C18.9746 36.1777 19.1068 35.7151 18.9851 35.2844L18.089 32.1107L26.4472 35.3367C26.652 35.4157 26.8747 35.4362 27.0904 35.3957C27.3062 35.3553 27.5064 35.2556 27.6686 35.1078C27.8309 34.96 27.9488 34.7699 28.0091 34.5589C28.0694 34.3478 28.0698 34.1242 28.0101 33.9129L25.5757 25.2909L28.6524 26.4783C28.8572 26.5573 29.0799 26.5777 29.2956 26.5373C29.5113 26.4969 29.7115 26.3972 29.8738 26.2494L36.5003 20.2131C36.9828 19.7736 37.0176 19.026 36.5781 18.5436C36.1387 18.0612 35.3911 18.0263 34.9086 18.4658L28.8222 24.0101L24.2219 22.2343C24.0171 22.1553 23.7944 22.1349 23.5787 22.1754C23.363 22.2159 23.1628 22.3156 23.0005 22.4634C22.8383 22.6112 22.7204 22.8012 22.66 23.0122C22.5997 23.2232 22.5993 23.4469 22.6588 23.6581L25.093 32.2803L16.7349 29.0544C16.5301 28.9754 16.3074 28.955 16.0916 28.9954C15.8759 29.0359 15.6757 29.1356 15.5135 29.2834C15.3512 29.4312 15.2333 29.6212 15.173 29.8322C15.1127 30.0433 15.1123 30.2669 15.1719 30.4782L16.5118 35.2239L13.8631 37.6367C10.691 35.8938 9.18558 33.7077 8.57002 32.5511C6.48444 28.6328 7.10487 24.0039 10.0794 21.2943C12.3293 19.2448 15.5616 18.7057 19.1805 19.7756C19.3754 19.8333 19.5818 19.8398 19.7799 19.7943C19.978 19.7489 20.161 19.6531 20.3113 19.5163L20.3115 19.516C20.4618 19.3792 20.5742 19.2059 20.6379 19.0129C20.7016 18.8198 20.7145 18.6137 20.6753 18.4142C19.9476 14.7103 20.7863 11.5411 23.0372 9.49067C26.013 6.77994 30.6807 6.59178 34.388 9.03287C36.9595 10.7263 44.7326 17.8368 37.7386 38.6472Z" fill="#01A368" fill-opacity="0.2"/>
</g>
<defs>
<clipPath id="clip0_113_2949">
<rect width="40.2799" height="40.2799" fill="white" transform="translate(0 27.1715) scale(1.00171) rotate(-42.3312)"/>
</clipPath>
</defs>
</svg>
