<svg width="100" height="100" viewBox="0 0 100 100" fill="none" xmlns="http://www.w3.org/2000/svg">
<circle cx="50" cy="50" r="50" fill="#EBF8F3"/>
<g clip-path="url(#clip0_104_2632)">
<path d="M64.8061 48.3135C64.3179 49.8165 63.4883 51.0132 62.7204 52.1209C61.5823 53.7644 60.4699 55.3158 60.4699 57.771V61.7447C60.4699 65.7302 57.2109 69.9977 52.3045 69.9977H51.3444L49.272 59.6364C49.115 58.8505 48.419 58.2803 47.6175 58.2803C46.8168 58.2803 46.1208 58.8505 45.9638 59.6364L43.8914 69.9977H42.9306C38.0249 69.9977 34.7698 65.7302 34.7698 61.7447V57.771C34.7698 55.3057 33.652 53.7566 32.5123 52.117C31.1828 50.2031 29.6744 48.0339 30.0618 44.4523C30.4946 40.4473 33.9973 36.1657 37.9031 35.1838C41.4487 34.2918 44.996 35.1854 47.6191 37.5789C48.7963 36.511 50.1766 35.7322 51.6631 35.2862C51.3952 36.2134 51.2523 37.1922 51.2523 38.2046C51.2523 44.0195 55.9829 48.7502 61.7979 48.7502C62.8431 48.7502 63.8523 48.5971 64.8061 48.3135Z" fill="#0FAD74"/>
<path d="M61.7979 30.0024C57.275 30.0024 53.5957 33.6817 53.5957 38.2046C53.5957 42.7275 57.275 46.4067 61.7979 46.4067C66.3208 46.4067 70 42.7275 70 38.2046C70 33.6817 66.3208 30.0024 61.7979 30.0024ZM65.3131 39.3763H62.9696V41.7198H60.6261V39.3763H58.2826V37.0328H60.6261V34.6894H62.9696V37.0328H65.3131V39.3763Z" fill="#0FAD74"/>
</g>
<defs>
<clipPath id="clip0_104_2632">
<rect width="40" height="40" fill="white" transform="translate(30 30)"/>
</clipPath>
</defs>
</svg>
