<svg width="68" height="68" viewBox="0 0 68 68" fill="none" xmlns="http://www.w3.org/2000/svg">
<g opacity="0.5">
<path d="M46.129 13.4321L45.9965 13.2995C44.5826 11.8856 42.2408 11.8856 40.8269 13.2995L40.6943 13.4321C41.4455 12.681 42.4175 12.3275 43.3896 12.3275C44.4059 12.2833 45.3779 12.681 46.129 13.4321Z" fill="#FCA680" fill-opacity="0.6"/>
<path d="M54.5678 21.8713C56.07 23.3736 56.07 25.8037 54.5678 27.2618L52.9329 28.8967L54.6561 27.1735C56.07 25.7596 56.07 23.4178 54.6561 22.0039L54.0817 21.4295L49.2656 16.6134L54.5678 21.8713Z" fill="#FCA680" fill-opacity="0.6"/>
<path d="M43.1242 38.7498L41.7986 40.0754L40.0312 41.8427L45.2008 36.6732L43.1242 38.7498Z" fill="#FCA680" fill-opacity="0.6"/>
<path d="M46.0408 21.9597L51.6523 27.5711L53.2871 25.9363C54.0382 25.1852 54.0382 23.9038 53.2871 23.1527L44.8037 14.6692C44.4502 14.3158 43.92 14.0948 43.3898 14.0948C42.8596 14.0948 42.3735 14.3158 41.9759 14.6692L26.7764 29.8687L32.3878 35.4802L33.0506 34.8174L38.662 40.4288L40.4294 38.6615L38.2643 36.4964L39.5899 35.1709L41.7549 37.3359L43.8316 35.2592L38.2202 29.6478L39.5457 28.3223L45.1572 33.9337L46.9245 32.1663L44.7595 30.0013L46.085 28.6757L48.2501 30.8408L50.3267 28.7641L44.7153 23.1527L46.0408 21.9597Z" fill="#FCA680" fill-opacity="0.6"/>
<path d="M46.4824 35.3918L48.2498 33.6244L46.4824 35.3918Z" fill="#FCA680" fill-opacity="0.6"/>
<path d="M49.5752 32.2989L51.6518 30.2222L49.5752 32.2989Z" fill="#FCA680" fill-opacity="0.6"/>
<path d="M18.7783 57.705L18.9109 57.8375C20.3248 59.2514 22.6666 59.2514 24.0805 57.8375L24.1688 57.7492C22.6666 59.1631 20.2806 59.1631 18.7783 57.705Z" fill="#FCA680" fill-opacity="0.6"/>
<path d="M10.2955 43.8311L10.163 43.9636C8.74906 45.3775 8.74906 47.7193 10.163 49.1332L10.2955 49.2658C8.83743 47.7193 8.83743 45.3333 10.2955 43.8311Z" fill="#FCA680" fill-opacity="0.6"/>
<path d="M54.1259 0L51.0771 3.04873L55.4514 7.423L60.5768 12.5484L64.9511 16.9227L67.9998 13.8739L54.1259 0Z" fill="#FCA680" fill-opacity="0.6"/>
<path d="M49.7074 13.2112L46.5703 13.8739L49.3098 16.6134L54.1259 21.4295L54.8328 18.2924L60.5768 12.5484L55.4514 7.423L49.7074 13.2112Z" fill="#FCA680" fill-opacity="0.6"/>
<path d="M11.62 45.1124C10.8689 45.8636 10.8689 47.1449 11.62 47.8961L20.1034 56.3795C20.4569 56.733 20.9871 56.9539 21.5173 56.9539C22.0475 56.9539 22.5336 56.733 22.9312 56.3795L24.5661 54.7447L18.9546 49.1332L20.2802 47.8077L25.8916 53.4191L27.659 51.6517L25.4939 49.4867L26.8195 48.1612L28.9845 50.3262L30.7519 48.5588L25.1405 42.9474L26.466 41.6219L32.0774 47.2333L34.1541 45.1566L31.9891 42.9916L33.3146 41.666L35.4796 43.8311L37.5563 41.7544L31.9449 36.143L32.6076 35.4802L26.9962 29.8688L11.62 45.1124Z" fill="#FCA680" fill-opacity="0.6"/>
<path d="M13.8736 52.8005L10.3389 49.2216L13.8736 52.8005Z" fill="#FCA680" fill-opacity="0.6"/>
<path d="M38.7498 43.1683L36.6731 45.2449L35.3476 46.5705L33.2709 48.6472L31.9454 49.9727L30.178 51.7401L28.8525 53.0656L27.0851 54.833L25.7596 56.1585L24.1247 57.7933C23.3736 58.5445 22.4015 58.898 21.4295 58.898C20.4574 58.898 19.4854 58.5445 18.7342 57.7933C20.2365 59.2956 22.6225 59.2956 24.1247 57.7933C24.1247 57.7933 24.1247 57.7933 24.1689 57.7492L39.3684 42.5497L38.7498 43.1683Z" fill="#FCA680" fill-opacity="0.6"/>
<path d="M54.5679 27.306C56.0702 25.8038 56.0702 23.3736 54.5679 21.9155L49.3099 16.6576L46.5705 13.9181L46.0845 13.4321C45.3333 12.681 44.3613 12.3275 43.3892 12.3275C42.4172 12.3275 41.4451 12.681 40.694 13.4321L10.295 43.8311C8.79273 45.3333 8.79273 47.7635 10.295 49.2216L13.874 52.8005L0.265107 66.4094C-0.0883691 66.7628 -0.0883691 67.3372 0.265107 67.7349C0.441845 67.9116 0.662768 68 0.927875 68C1.1488 68 1.41391 67.9116 1.59064 67.7349L15.1995 54.1261L18.7784 57.705C19.5296 58.4561 20.5016 58.8096 21.4737 58.8096C22.4457 58.8096 23.4178 58.4561 24.1689 57.705L25.8038 56.0702L27.1293 54.7446L28.8967 52.9773L30.2222 51.6517L31.9896 49.8843L33.3152 48.5588L35.3918 46.4821L36.7174 45.1566L38.794 43.0799L39.4568 42.4172L40.1196 41.7544L41.8869 39.987L43.2125 38.6615L45.2892 36.5848L46.6147 35.2593L48.3821 33.4919L49.7076 32.1663L51.7843 30.0897L53.1098 28.7641L54.5679 27.306ZM48.2495 30.9734L46.0845 28.8083L44.7589 30.1338L46.924 32.2989L45.1566 34.0663L39.5452 28.4548L38.2196 29.7804L43.8311 35.3918L41.7544 37.4685L39.5893 35.3034L38.2638 36.629L40.4289 38.794L38.6615 40.5614L33.05 34.95L32.3873 35.6127L31.7245 36.2755L37.3359 41.8869L35.2593 43.9636L33.0942 41.7986L31.7687 43.1241L33.9337 45.2892L31.8571 47.3658L26.2456 41.7544L24.9201 43.0799L30.5315 48.6914L28.7641 50.4587L26.5991 48.2937L25.2736 49.6192L27.4386 51.7843L25.6712 53.5517L20.0598 47.9402L18.7343 49.2658L24.3457 54.8772L22.7109 56.512C22.3574 56.8655 21.8272 57.0864 21.2969 57.0864C20.7667 57.0864 20.2807 56.8655 19.8831 56.512L11.3996 48.0286C10.6485 47.2775 10.6485 45.9961 11.3996 45.245L26.5991 30.0455L41.7986 14.846C42.1521 14.4925 42.6823 14.2716 43.2125 14.2716C43.7427 14.2716 44.2287 14.4925 44.6264 14.846L53.1098 23.3294C53.861 24.0806 53.861 25.3619 53.1098 26.1131L51.475 27.7479L45.8636 22.1365L44.538 23.462L50.1495 29.0734L48.2495 30.9734Z" fill="white" fill-opacity="0.8"/>
</g>
</svg>
