<svg width="58" height="58" viewBox="0 0 58 58" fill="none" xmlns="http://www.w3.org/2000/svg">
<rect width="42" height="42" rx="21" fill="#0FAD74" fill-opacity="0.08"/>
<g clip-path="url(#clip0_70_615)">
<path d="M54.5 18.7998H19.5C18.5721 18.8009 17.6825 19.17 17.0264 19.8262C16.3702 20.4823 16.0011 21.3719 16 22.2998V47.4998C16.0011 48.4277 16.3702 49.3173 17.0264 49.9735C17.6825 50.6296 18.5721 50.9987 19.5 50.9998H40.5V54.4998C40.5 54.6382 40.5411 54.7735 40.618 54.8886C40.6949 55.0037 40.8043 55.0934 40.9321 55.1464C41.06 55.1994 41.2008 55.2132 41.3365 55.1862C41.4723 55.1592 41.597 55.0926 41.6949 54.9947L44 52.6896L46.3051 54.9947C46.403 55.0926 46.5277 55.1592 46.6635 55.1862C46.7992 55.2132 46.94 55.1994 47.0679 55.1464C47.1957 55.0934 47.3051 55.0037 47.382 54.8886C47.4589 54.7735 47.5 54.6382 47.5 54.4998V50.9998H54.5C55.4279 50.9987 56.3175 50.6296 56.9736 49.9735C57.6298 49.3173 57.9989 48.4277 58 47.4998V22.2998C57.9989 21.3719 57.6298 20.4823 56.9736 19.8262C56.3175 19.17 55.4279 18.8009 54.5 18.7998ZM38.617 32.4953C38.5637 32.4707 38.5169 32.4338 38.4805 32.3877C38.4442 32.3415 38.4192 32.2875 38.4078 32.2299C38.3963 32.1722 38.3986 32.1127 38.4145 32.0562C38.4305 31.9996 38.4595 31.9477 38.4994 31.9045C38.8015 31.5762 38.9692 31.1463 38.9692 30.7002C38.9692 30.254 38.8015 29.8241 38.4994 29.4958C38.4594 29.4526 38.4303 29.4005 38.4143 29.3439C38.3983 29.2872 38.396 29.2276 38.4076 29.1699C38.4191 29.1121 38.4442 29.058 38.4807 29.0118C38.5172 28.9657 38.5642 28.9288 38.6177 28.9043C39.0222 28.7161 39.3412 28.3829 39.5118 27.9707C39.6824 27.5585 39.6921 27.0973 39.5389 26.6783C39.5185 26.6232 39.5115 26.564 39.5184 26.5056C39.5252 26.4472 39.5458 26.3913 39.5785 26.3424C39.6111 26.2936 39.6549 26.2531 39.7061 26.2244C39.7574 26.1956 39.8148 26.1794 39.8735 26.1771C40.3194 26.1584 40.7419 25.9728 41.0575 25.6573C41.373 25.3417 41.5586 24.9192 41.5773 24.4733C41.5796 24.4145 41.5958 24.357 41.6246 24.3057C41.6533 24.2544 41.6939 24.2106 41.7428 24.1779C41.7918 24.1453 41.8478 24.1247 41.9063 24.1179C41.9648 24.111 42.024 24.1182 42.0792 24.1387C42.4983 24.291 42.9593 24.2808 43.3713 24.1102C43.7833 23.9396 44.1165 23.6208 44.3052 23.2168C44.3296 23.1634 44.3664 23.1165 44.4124 23.08C44.4585 23.0436 44.5126 23.0185 44.5702 23.0071C44.6278 22.9956 44.6873 22.9979 44.7438 23.014C44.8004 23.03 44.8523 23.0592 44.8953 23.0992C45.5764 23.7257 46.6243 23.7257 47.3047 23.0992C47.3478 23.0592 47.3999 23.0301 47.4565 23.0141C47.5131 22.9981 47.5727 22.9958 47.6303 23.0074C47.688 23.0189 47.7421 23.044 47.7882 23.0805C47.8343 23.117 47.8711 23.164 47.8955 23.2175C48.0838 23.6217 48.4169 23.9406 48.8289 24.1111C49.2409 24.2817 49.7019 24.2915 50.1208 24.1387C50.176 24.1182 50.2352 24.111 50.2937 24.1179C50.3522 24.1247 50.4082 24.1453 50.4571 24.1779C50.5061 24.2106 50.5467 24.2544 50.5754 24.3057C50.6042 24.357 50.6204 24.4145 50.6227 24.4733C50.6416 24.9198 50.8277 25.3428 51.1439 25.6585C51.4602 25.9743 51.8835 26.1596 52.33 26.1778C52.3887 26.18 52.4461 26.1961 52.4973 26.2248C52.5486 26.2534 52.5924 26.2938 52.625 26.3427C52.6577 26.3915 52.6783 26.4474 52.6852 26.5057C52.692 26.5641 52.685 26.6232 52.6646 26.6783C52.5113 27.0974 52.521 27.5587 52.6917 27.971C52.8625 28.3832 53.1818 28.7163 53.5865 28.9043C53.6398 28.9289 53.6866 28.9658 53.723 29.0119C53.7593 29.0581 53.7843 29.1121 53.7957 29.1698C53.8072 29.2274 53.8049 29.2869 53.789 29.3434C53.773 29.4 53.744 29.4519 53.7041 29.4951C53.402 29.8234 53.2343 30.2533 53.2343 30.6995C53.2343 31.1456 53.402 31.5755 53.7041 31.9038C53.7441 31.947 53.7732 31.9991 53.7892 32.0557C53.8052 32.1124 53.8075 32.172 53.7959 32.2297C53.7844 32.2875 53.7593 32.3416 53.7228 32.3878C53.6863 32.434 53.6393 32.4708 53.5858 32.4953C53.1813 32.6835 52.8623 33.0167 52.6917 33.4289C52.5211 33.8411 52.5114 34.3023 52.6646 34.7213C52.685 34.7764 52.692 34.8356 52.6851 34.894C52.6782 34.9524 52.6576 35.0083 52.625 35.0572C52.5924 35.1061 52.5486 35.1465 52.4974 35.1753C52.4461 35.204 52.3887 35.2202 52.33 35.2225C51.8829 35.2404 51.459 35.4261 51.1426 35.7425C50.8263 36.0588 50.6406 36.4827 50.6227 36.9298C50.6204 36.9886 50.6042 37.0461 50.5754 37.0974C50.5467 37.1488 50.5061 37.1926 50.4571 37.2252C50.4082 37.2579 50.3522 37.2784 50.2937 37.2852C50.2352 37.2921 50.176 37.2849 50.1208 37.2644C49.7017 37.1119 49.2407 37.122 48.8286 37.2927C48.4166 37.4633 48.0834 37.7822 47.8948 38.1863C47.8713 38.2402 47.835 38.2875 47.789 38.3241C47.743 38.3608 47.6887 38.3855 47.6309 38.3963C47.5732 38.4084 47.5134 38.4063 47.4566 38.3904C47.3998 38.3744 47.3477 38.345 47.3047 38.3046C46.9762 38.0026 46.5462 37.835 46.1 37.835C45.6538 37.835 45.2238 38.0026 44.8953 38.3046C44.8523 38.3449 44.8002 38.3743 44.7434 38.3903C44.6866 38.4063 44.6268 38.4083 44.5691 38.3963C44.5112 38.3855 44.4569 38.3607 44.4107 38.3241C44.3646 38.2875 44.3281 38.2402 44.3045 38.1863C44.1163 37.782 43.7832 37.463 43.3712 37.2925C42.9591 37.1219 42.4981 37.1121 42.0792 37.2651C42.024 37.2856 41.9648 37.2928 41.9063 37.2859C41.8478 37.2791 41.7918 37.2586 41.7428 37.2259C41.6939 37.1933 41.6533 37.1495 41.6246 37.0981C41.5958 37.0468 41.5796 36.9893 41.5773 36.9305C41.5594 36.4833 41.3738 36.0592 41.0575 35.7426C40.7411 35.426 40.3172 35.2401 39.87 35.2218C39.8113 35.2196 39.7539 35.2035 39.7027 35.1748C39.6514 35.1462 39.6076 35.1058 39.575 35.0569C39.5423 35.0081 39.5217 34.9522 39.5148 34.8939C39.508 34.8355 39.515 34.7764 39.5354 34.7213C39.6889 34.3027 39.6798 33.8417 39.5097 33.4295C39.3396 33.0173 39.0211 32.6839 38.617 32.4953ZM46.3058 45.6042L46.1 45.81V39.23C46.1938 39.23 46.2841 39.265 46.3527 39.3287C46.5572 39.5207 46.8049 39.6608 47.0748 39.737C47.3448 39.8133 47.6291 39.8235 47.9039 39.7669C48.1784 39.7133 48.4361 39.5947 48.6553 39.421C48.8745 39.2474 49.0489 39.0237 49.1639 38.7687C49.2034 38.6836 49.2736 38.6165 49.3603 38.5807C49.4471 38.5449 49.5441 38.543 49.6322 38.5755C49.845 38.6511 50.0704 38.6847 50.2965 38.6756V45.81L48.6914 44.2049C48.5601 44.0737 48.3821 44 48.1965 44C48.0109 44 47.8329 44.0737 47.7016 44.2049L46.3058 45.6042ZM46.1 52.81L44.4949 51.2049C44.3636 51.0737 44.1856 51 44 51C43.8144 51 43.6364 51.0737 43.5051 51.2049L41.9 52.81V38.6742C42.1261 38.6833 42.3515 38.6497 42.5643 38.5741C42.6522 38.5415 42.7491 38.5431 42.8358 38.5788C42.9225 38.6145 42.9925 38.6816 43.0319 38.7666C43.1472 39.0222 43.3222 39.2464 43.5422 39.4202C43.7622 39.594 44.0208 39.7125 44.2961 39.7655C44.4291 39.7921 44.5642 39.8033 44.7 39.7998V47.4998C44.7 47.6382 44.7411 47.7735 44.818 47.8886C44.8949 48.0037 45.0042 48.0934 45.1321 48.1464C45.26 48.1994 45.4008 48.2132 45.5365 48.1862C45.6723 48.1592 45.797 48.0926 45.8949 47.9947L46.1 47.7896V52.81ZM56.6 47.4998C56.6 48.0568 56.3787 48.5909 55.9849 48.9847C55.5911 49.3786 55.057 49.5998 54.5 49.5998H47.5V46.3896L48.2 45.6896L50.5051 47.9947C50.603 48.0926 50.7277 48.1592 50.8635 48.1862C50.9992 48.2132 51.14 48.1994 51.2679 48.1464C51.3957 48.0934 51.5051 48.0037 51.582 47.8886C51.6589 47.7735 51.7 47.6382 51.7 47.4998V37.9147C51.896 37.6403 52.0073 37.3155 52.0213 36.9788C52.0254 36.8851 52.0645 36.7964 52.1309 36.7302C52.1972 36.664 52.286 36.625 52.3797 36.6211C52.6595 36.6103 52.9327 36.5334 53.177 36.3967C53.4213 36.2599 53.6298 36.0673 53.7853 35.8345C53.9408 35.6017 54.0389 35.3353 54.0716 35.0573C54.1044 34.7792 54.0708 34.4974 53.9736 34.2348C53.9414 34.1469 53.9433 34.0502 53.9791 33.9637C54.0149 33.8772 54.0819 33.8073 54.1668 33.7679C54.4213 33.651 54.6445 33.4754 54.8181 33.2555C54.9916 33.0357 55.1106 32.7778 55.1652 32.5031C55.2199 32.2284 55.2086 31.9446 55.1324 31.6751C55.0562 31.4056 54.9172 31.1579 54.7268 30.9525C54.6633 30.8835 54.6281 30.7932 54.6281 30.6995C54.6281 30.6057 54.6633 30.5154 54.7268 30.4464C54.9172 30.241 55.0562 29.9935 55.1324 29.724C55.2086 29.4545 55.2199 29.1708 55.1652 28.8961C55.1106 28.6214 54.9916 28.3636 54.8181 28.1439C54.6445 27.9241 54.4213 27.7486 54.1668 27.6317C54.0817 27.5926 54.0144 27.5227 53.9785 27.4362C53.9425 27.3497 53.9405 27.2528 53.9729 27.1648C54.0701 26.9022 54.1037 26.6204 54.0709 26.3423C54.0382 26.0643 53.9401 25.798 53.7846 25.5651C53.6291 25.3323 53.4206 25.1397 53.1763 25.0029C52.932 24.8662 52.6588 24.7893 52.379 24.7785C52.2853 24.7746 52.1965 24.7356 52.1302 24.6694C52.0638 24.6032 52.0247 24.5145 52.0206 24.4208C52.0101 24.1409 51.9335 23.8676 51.7969 23.6231C51.6604 23.3786 51.4678 23.1699 51.235 23.0142C51.0022 22.8586 50.7358 22.7603 50.4577 22.7275C50.1796 22.6947 49.8976 22.7283 49.635 22.8255C49.5472 22.8587 49.45 22.8572 49.3632 22.8215C49.2764 22.7858 49.2064 22.7184 49.1674 22.633C49.0505 22.3785 48.8749 22.1553 48.655 21.9817C48.4352 21.8082 48.1773 21.6892 47.9026 21.6346C47.6279 21.5799 47.3441 21.5912 47.0746 21.6674C46.8051 21.7436 46.5574 21.8826 46.352 22.073C46.2831 22.1364 46.1929 22.1716 46.0993 22.1716C46.0057 22.1716 45.9155 22.1364 45.8466 22.073C45.6412 21.8826 45.3937 21.7436 45.1242 21.6674C44.8547 21.5912 44.571 21.5799 44.2963 21.6346C44.0216 21.6892 43.7638 21.8082 43.5441 21.9817C43.3243 22.1553 43.1487 22.3785 43.0319 22.633C42.9927 22.7185 42.9227 22.7859 42.8358 22.8217C42.7489 22.8576 42.6516 22.8592 42.5636 22.8262C42.301 22.729 42.019 22.6954 41.7409 22.7282C41.4628 22.761 41.1964 22.8593 40.9636 23.0149C40.7308 23.1706 40.5382 23.3793 40.4017 23.6238C40.2651 23.8683 40.1885 24.1416 40.178 24.4215C40.1739 24.5152 40.1348 24.6039 40.0684 24.6701C40.0021 24.7363 39.9133 24.7753 39.8196 24.7792C39.5398 24.79 39.2666 24.8669 39.0223 25.0036C38.778 25.1404 38.5695 25.333 38.414 25.5658C38.2585 25.7987 38.1604 26.065 38.1277 26.343C38.0949 26.6211 38.1285 26.9029 38.2257 27.1655C38.2579 27.2534 38.256 27.3502 38.2202 27.4366C38.1844 27.5231 38.1174 27.593 38.0325 27.6324C37.778 27.7493 37.5548 27.9249 37.3812 28.1448C37.2077 28.3646 37.0887 28.6225 37.0341 28.8972C36.9794 29.1719 36.9907 29.4557 37.0669 29.7252C37.1431 29.9947 37.2821 30.2424 37.4725 30.4478C37.536 30.5168 37.5712 30.6071 37.5712 30.7009C37.5712 30.7946 37.536 30.8849 37.4725 30.9539C37.2821 31.1593 37.1431 31.4068 37.0669 31.6763C36.9907 31.9458 36.9794 32.2295 37.0341 32.5042C37.0887 32.7789 37.2077 33.0367 37.3812 33.2565C37.5548 33.4762 37.778 33.6518 38.0325 33.7686C38.1176 33.8078 38.1849 33.8776 38.2208 33.9641C38.2568 34.0507 38.2588 34.1476 38.2264 34.2355C38.1292 34.4981 38.0956 34.7799 38.1284 35.058C38.1611 35.336 38.2592 35.6024 38.4147 35.8352C38.5702 36.068 38.7787 36.2606 39.023 36.3974C39.2673 36.5341 39.5405 36.611 39.8203 36.6218C40.0142 36.6302 40.1703 36.7856 40.1787 36.9795C40.1927 37.3155 40.3047 37.6403 40.5 37.9147V49.5998H19.5C18.943 49.5998 18.4089 49.3786 18.0151 48.9847C17.6212 48.5909 17.4 48.0568 17.4 47.4998V22.2998C17.4 21.7429 17.6212 21.2087 18.0151 20.8149C18.4089 20.4211 18.943 20.1998 19.5 20.1998H54.5C55.057 20.1998 55.5911 20.4211 55.9849 20.8149C56.3787 21.2087 56.6 21.7429 56.6 22.2998V47.4998Z" fill="#0FAD74"/>
<path d="M23.7 43.9999C23.143 43.9999 22.6089 43.7787 22.215 43.3848C21.8212 42.991 21.6 42.4569 21.6 41.8999V27.8999C21.6 27.3429 21.8212 26.8088 22.215 26.415C22.6089 26.0212 23.143 25.7999 23.7 25.7999H36.3C36.4856 25.7999 36.6637 25.7262 36.7949 25.5949C36.9262 25.4636 37 25.2856 37 25.0999C37 24.9143 36.9262 24.7362 36.7949 24.6049C36.6637 24.4737 36.4856 24.3999 36.3 24.3999H23.7C22.772 24.401 21.8824 24.7701 21.2263 25.4263C20.5702 26.0824 20.2011 26.972 20.2 27.8999V41.8999C20.2011 42.8278 20.5702 43.7174 21.2263 44.3735C21.8824 45.0297 22.772 45.3988 23.7 45.3999H37C37.1856 45.3999 37.3637 45.3262 37.4949 45.1949C37.6262 45.0636 37.7 44.8856 37.7 44.6999C37.7 44.5142 37.6262 44.3362 37.4949 44.2049C37.3637 44.0737 37.1856 43.9999 37 43.9999H23.7Z" fill="#0FAD74"/>
<path d="M24.4 35.5996H34.2C34.3856 35.5996 34.5637 35.5259 34.695 35.3946C34.8262 35.2633 34.9 35.0853 34.9 34.8996C34.9 34.714 34.8262 34.5359 34.695 34.4046C34.5637 34.2734 34.3856 34.1996 34.2 34.1996H24.4C24.2143 34.1996 24.0363 34.2734 23.905 34.4046C23.7737 34.5359 23.7 34.714 23.7 34.8996C23.7 35.0853 23.7737 35.2633 23.905 35.3946C24.0363 35.5259 24.2143 35.5996 24.4 35.5996ZM24.4 32.7996H34.2C34.3856 32.7996 34.5637 32.7259 34.695 32.5946C34.8262 32.4633 34.9 32.2853 34.9 32.0996C34.9 31.914 34.8262 31.7359 34.695 31.6046C34.5637 31.4734 34.3856 31.3996 34.2 31.3996H24.4C24.2143 31.3996 24.0363 31.4734 23.905 31.6046C23.7737 31.7359 23.7 31.914 23.7 32.0996C23.7 32.2853 23.7737 32.4633 23.905 32.5946C24.0363 32.7259 24.2143 32.7996 24.4 32.7996ZM24.4 29.9996H34.2C34.3856 29.9996 34.5637 29.9259 34.695 29.7946C34.8262 29.6633 34.9 29.4853 34.9 29.2996C34.9 29.114 34.8262 28.9359 34.695 28.8046C34.5637 28.6734 34.3856 28.5996 34.2 28.5996H24.4C24.2143 28.5996 24.0363 28.6734 23.905 28.8046C23.7737 28.9359 23.7 29.114 23.7 29.2996C23.7 29.4853 23.7737 29.6633 23.905 29.7946C24.0363 29.9259 24.2143 29.9996 24.4 29.9996ZM23.7581 42.1796C23.7948 42.2639 23.8478 42.3402 23.9141 42.404C23.9803 42.4679 24.0584 42.518 24.144 42.5516C24.2297 42.5852 24.3211 42.6016 24.413 42.5999C24.505 42.5982 24.5957 42.5783 24.68 42.5415C25.3281 42.3007 25.9236 41.9374 26.4342 41.4712C26.6237 41.2821 26.7894 41.0705 26.9277 40.8412C27.1951 41.1422 27.5087 41.397 27.858 41.5972C28.3445 41.915 28.95 41.9927 29.5009 41.8072C29.7123 41.7253 29.9034 41.5986 30.0609 41.4362C30.378 41.6343 30.7266 41.775 31.092 41.8527L31.6212 41.978C32.7013 42.2944 33.8234 42.4428 34.949 42.419C35.0407 42.4124 35.1302 42.3878 35.2124 42.3466C35.2945 42.3054 35.3678 42.2484 35.428 42.1789C35.4881 42.1093 35.534 42.0287 35.563 41.9414C35.592 41.8542 35.6035 41.7621 35.5968 41.6704C35.5902 41.5787 35.5656 41.4892 35.5244 41.407C35.4832 41.3248 35.4262 41.2515 35.3567 41.1914C35.2872 41.1312 35.2065 41.0854 35.1192 41.0564C35.032 41.0274 34.9399 41.0159 34.8482 41.0225C33.8661 41.0351 32.8882 40.8986 31.9474 40.6165L31.4063 40.4884C30.7532 40.3379 30.5852 40.0747 30.5159 39.8892C30.4569 39.7317 30.3431 39.6006 30.1954 39.5201C30.0477 39.4396 29.8759 39.415 29.7115 39.4508C29.5471 39.4865 29.4011 39.5803 29.3002 39.715C29.1993 39.8496 29.1503 40.0161 29.1621 40.1839C29.1659 40.2456 29.1535 40.3072 29.1262 40.3626C29.0988 40.418 29.0573 40.4652 29.006 40.4996C28.8424 40.5204 28.6771 40.4778 28.544 40.3806C27.9779 40.0282 27.5522 39.4896 27.34 38.8574C27.2817 38.6999 27.1688 38.5686 27.0218 38.4875C26.8747 38.4063 26.7035 38.3807 26.5391 38.4154C26.3748 38.45 26.2284 38.5425 26.1267 38.6761C26.0249 38.8097 25.9746 38.9754 25.9848 39.143C25.9906 39.3907 25.9455 39.637 25.8524 39.8667C25.7592 40.0963 25.6198 40.3043 25.443 40.4779C25.0543 40.8178 24.6056 41.0823 24.12 41.2577C24.0357 41.2945 23.9594 41.3474 23.8956 41.4137C23.8318 41.4799 23.7816 41.558 23.748 41.6437C23.7144 41.7293 23.698 41.8207 23.6997 41.9126C23.7014 42.0046 23.7213 42.0953 23.7581 42.1796ZM46.1 36.2996C47.2076 36.2996 48.2903 35.9712 49.2112 35.3558C50.1321 34.7405 50.8499 33.8659 51.2737 32.8426C51.6976 31.8194 51.8085 30.6934 51.5924 29.6071C51.3763 28.5208 50.843 27.523 50.0598 26.7398C49.2766 25.9566 48.2788 25.4233 47.1925 25.2072C46.1062 24.9911 44.9802 25.102 43.957 25.5259C42.9337 25.9497 42.0591 26.6675 41.4438 27.5884C40.8284 28.5093 40.5 29.592 40.5 30.6996C40.5017 32.1843 41.0922 33.6077 42.142 34.6576C43.1919 35.7074 44.6153 36.2979 46.1 36.2996ZM46.1 26.4996C46.6515 26.4996 47.1977 26.6082 47.7073 26.8193C48.2168 27.0304 48.6798 27.3398 49.0698 27.7298C49.4599 28.1198 49.7692 28.5828 49.9803 29.0923C50.1914 29.6019 50.3 30.1481 50.3 30.6996C50.3 31.2512 50.1914 31.7973 49.9803 32.3069C49.7692 32.8165 49.4599 33.2795 49.0698 33.6695C48.6798 34.0595 48.2168 34.3688 47.7073 34.5799C47.1977 34.791 46.6515 34.8996 46.1 34.8996C44.9861 34.8996 43.9178 34.4571 43.1301 33.6695C42.3425 32.8818 41.9 31.8135 41.9 30.6996C41.9 29.5857 42.3425 28.5174 43.1301 27.7298C43.9178 26.9421 44.9861 26.4996 46.1 26.4996Z" fill="#0FAD74"/>
</g>
<defs>
<clipPath id="clip0_70_615">
<rect width="42" height="42" fill="white" transform="translate(16 16)"/>
</clipPath>
</defs>
</svg>
