<svg width="145" height="146" viewBox="0 0 145 146" fill="none" xmlns="http://www.w3.org/2000/svg">
<path d="M72.2571 0L76.2253 45.4003L92.8236 2.95702L83.8403 47.6363L111.724 11.5885L90.5169 51.927L127.427 25.1952L95.7142 57.925L138.66 42.6747L99.0111 65.1443L144.514 62.611L100.141 73L144.514 83.389L99.0111 80.8557L138.66 103.325L95.7142 88.075L127.427 120.805L90.5169 94.073L111.724 134.411L83.8403 98.3637L92.8236 143.043L76.2253 100.6L72.2571 146L68.2888 100.6L51.6906 143.043L60.6738 98.3637L32.7903 134.411L53.9973 94.073L17.0874 120.805L48.8 88.075L5.85394 103.325L45.503 80.8557L0.000114441 83.389L44.3736 73L0.000114441 62.611L45.503 65.1443L5.85394 42.6747L48.8 57.925L17.0874 25.1952L53.9973 51.927L32.7903 11.5885L60.6738 47.6363L51.6906 2.95702L68.2888 45.4003L72.2571 0Z" fill="#FCA680"/>
</svg>
