<svg width="15" height="18" viewBox="0 0 15 18" fill="none" xmlns="http://www.w3.org/2000/svg">
<path d="M11.4583 1.925V0.625C11.4583 0.283333 11.175 0 10.8333 0C10.4917 0 10.2083 0.283333 10.2083 0.625V1.875H4.79165V0.625C4.79165 0.283333 4.50832 0 4.16665 0C3.82499 0 3.54165 0.283333 3.54165 0.625V1.925C1.29165 2.13333 0.199988 3.475 0.0333209 5.46667C0.0166542 5.70833 0.216654 5.90833 0.449988 5.90833H14.55C14.7917 5.90833 14.9917 5.7 14.9667 5.46667C14.8 3.475 13.7083 2.13333 11.4583 1.925Z" fill="#0FAD74"/>
<path d="M14.1667 7.15869H0.833333C0.375 7.15869 0 7.53369 0 7.99202V13.1254C0 15.6254 1.25 17.292 4.16667 17.292H10.8333C13.75 17.292 15 15.6254 15 13.1254V7.99202C15 7.53369 14.625 7.15869 14.1667 7.15869ZM5.175 14.1337C5.13333 14.167 5.09167 14.2087 5.05 14.2337C5 14.267 4.95 14.292 4.9 14.3087C4.85 14.3337 4.8 14.3504 4.75 14.3587C4.69167 14.367 4.64167 14.3754 4.58333 14.3754C4.475 14.3754 4.36667 14.3504 4.26667 14.3087C4.15833 14.267 4.075 14.2087 3.99167 14.1337C3.84167 13.9754 3.75 13.7587 3.75 13.542C3.75 13.3254 3.84167 13.1087 3.99167 12.9504C4.075 12.8754 4.15833 12.817 4.26667 12.7754C4.41667 12.7087 4.58333 12.692 4.75 12.7254C4.8 12.7337 4.85 12.7504 4.9 12.7754C4.95 12.792 5 12.817 5.05 12.8504C5.09167 12.8837 5.13333 12.917 5.175 12.9504C5.325 13.1087 5.41667 13.3254 5.41667 13.542C5.41667 13.7587 5.325 13.9754 5.175 14.1337ZM5.175 11.217C5.01667 11.367 4.8 11.4587 4.58333 11.4587C4.36667 11.4587 4.15 11.367 3.99167 11.217C3.84167 11.0587 3.75 10.842 3.75 10.6254C3.75 10.4087 3.84167 10.192 3.99167 10.0337C4.225 9.80036 4.59167 9.72536 4.9 9.85869C5.00833 9.90036 5.1 9.95869 5.175 10.0337C5.325 10.192 5.41667 10.4087 5.41667 10.6254C5.41667 10.842 5.325 11.0587 5.175 11.217ZM8.09167 14.1337C7.93333 14.2837 7.71667 14.3754 7.5 14.3754C7.28333 14.3754 7.06667 14.2837 6.90833 14.1337C6.75833 13.9754 6.66667 13.7587 6.66667 13.542C6.66667 13.3254 6.75833 13.1087 6.90833 12.9504C7.21667 12.642 7.78333 12.642 8.09167 12.9504C8.24167 13.1087 8.33333 13.3254 8.33333 13.542C8.33333 13.7587 8.24167 13.9754 8.09167 14.1337ZM8.09167 11.217C8.05 11.2504 8.00833 11.2837 7.96667 11.317C7.91667 11.3504 7.86667 11.3754 7.81667 11.392C7.76667 11.417 7.71667 11.4337 7.66667 11.442C7.60833 11.4504 7.55833 11.4587 7.5 11.4587C7.28333 11.4587 7.06667 11.367 6.90833 11.217C6.75833 11.0587 6.66667 10.842 6.66667 10.6254C6.66667 10.4087 6.75833 10.192 6.90833 10.0337C6.98333 9.95869 7.075 9.90036 7.18333 9.85869C7.49167 9.72536 7.85833 9.80036 8.09167 10.0337C8.24167 10.192 8.33333 10.4087 8.33333 10.6254C8.33333 10.842 8.24167 11.0587 8.09167 11.217ZM11.0083 14.1337C10.85 14.2837 10.6333 14.3754 10.4167 14.3754C10.2 14.3754 9.98333 14.2837 9.825 14.1337C9.675 13.9754 9.58333 13.7587 9.58333 13.542C9.58333 13.3254 9.675 13.1087 9.825 12.9504C10.1333 12.642 10.7 12.642 11.0083 12.9504C11.1583 13.1087 11.25 13.3254 11.25 13.542C11.25 13.7587 11.1583 13.9754 11.0083 14.1337ZM11.0083 11.217C10.9667 11.2504 10.925 11.2837 10.8833 11.317C10.8333 11.3504 10.7833 11.3754 10.7333 11.392C10.6833 11.417 10.6333 11.4337 10.5833 11.442C10.525 11.4504 10.4667 11.4587 10.4167 11.4587C10.2 11.4587 9.98333 11.367 9.825 11.217C9.675 11.0587 9.58333 10.842 9.58333 10.6254C9.58333 10.4087 9.675 10.192 9.825 10.0337C9.90833 9.95869 9.99167 9.90036 10.1 9.85869C10.25 9.79202 10.4167 9.77536 10.5833 9.80869C10.6333 9.81703 10.6833 9.83369 10.7333 9.85869C10.7833 9.87536 10.8333 9.90036 10.8833 9.93369C10.925 9.96703 10.9667 10.0004 11.0083 10.0337C11.1583 10.192 11.25 10.4087 11.25 10.6254C11.25 10.842 11.1583 11.0587 11.0083 11.217Z" fill="#0FAD74"/>
</svg>
