<svg width="100" height="100" viewBox="0 0 100 100" fill="none" xmlns="http://www.w3.org/2000/svg">
<circle cx="50" cy="50" r="50" fill="#FFF3EE"/>
<path d="M60.5469 55.213L67.5781 58.7283V56.6613L60.5469 53.1457V55.213ZM60.5469 70H67.5781V61.349L60.5469 57.8337V70ZM67.5781 39.4803C67.5781 35.801 65.5342 32.4937 62.2429 30.848L60.5469 30V50.525L67.5781 54.0406V49.3537L64.3395 47.7344L67.5781 46.115V39.4803ZM52.3438 30C49.113 30 46.4844 32.6287 46.4844 35.8594V44.2188H44.1406V35.8594C44.1406 32.6287 41.512 30 38.2812 30C35.0505 30 32.4219 32.6287 32.4219 35.8594C32.4219 39.0901 35.0505 41.7188 38.2812 41.7188C39.5993 41.7188 40.8169 41.2809 41.7969 40.5436V57.4516C41.7969 61.061 42.6506 64.6751 44.2642 67.9034L45.3125 70L46.3608 67.9034C47.9744 64.6751 48.8281 61.061 48.8281 57.4516V40.5436C49.8081 41.2809 51.0257 41.7188 52.3438 41.7188C55.5745 41.7188 58.2031 39.0901 58.2031 35.8594C58.2031 32.6287 55.5745 30 52.3438 30ZM38.2812 39.375C36.3427 39.375 34.7656 37.798 34.7656 35.8594C34.7656 33.9208 36.3427 32.3438 38.2812 32.3438C40.2198 32.3438 41.7969 33.9208 41.7969 35.8594C41.7969 37.798 40.2198 39.375 38.2812 39.375ZM52.3438 39.375C50.4052 39.375 48.8281 37.798 48.8281 35.8594C48.8281 33.9208 50.4052 32.3438 52.3438 32.3438C54.2823 32.3438 55.8594 33.9208 55.8594 35.8594C55.8594 37.798 54.2823 39.375 52.3438 39.375Z" fill="#FCA680"/>
</svg>
