<svg width="91" height="91" viewBox="0 0 91 91" fill="none" xmlns="http://www.w3.org/2000/svg">
<g clip-path="url(#clip0_68_934)">
<path d="M84.4679 40.3064C85.0637 35.6162 84.1983 31.0273 81.9654 27.036C79.7901 23.148 76.427 20.1517 72.4971 18.6002C69.4843 17.4107 66.2894 17.0871 63.0022 17.6385C60.4062 18.0744 57.8417 19.0486 55.3466 20.5432C53.5276 14.1792 49.6279 9.57128 44.1555 7.41073C40.2267 5.85962 35.7259 5.75118 31.4818 7.10483C27.1255 8.49465 23.3592 11.2549 20.5905 15.0867C17.5798 19.254 14.4273 26.5687 16.5094 37.752C18.4366 48.1034 24.4204 59.352 34.2949 71.1851C34.5189 71.4531 34.8026 71.6553 35.1177 71.7797C35.4328 71.9042 35.7781 71.9506 36.1248 71.9075C51.4234 70.0124 63.4805 65.8864 71.9611 59.6446C81.1238 52.9009 83.8198 45.4064 84.4679 40.3064ZM36.7336 67.6867C25.0941 53.4951 20.9631 42.3468 20.1585 34.1142L25.5009 36.2234C26.2251 36.5093 27.0482 36.3615 27.6273 35.8419L31.8949 32.014L33.2577 47.5288C33.2911 47.9089 33.4296 48.2722 33.6579 48.578C33.8861 48.8838 34.195 49.12 34.5499 49.2601C34.9048 49.4002 35.2917 49.4387 35.6673 49.3713C36.0428 49.3039 36.3922 49.1333 36.6763 48.8785L48.2702 38.479L48.7719 44.1901C48.8053 44.5701 48.9439 44.9334 49.1722 45.2391C49.4004 45.5449 49.7093 45.781 50.0642 45.9211L64.558 51.6434C65.6133 52.06 66.8067 51.5421 67.2233 50.4869C67.6399 49.4317 67.1222 48.2383 66.0668 47.8216L52.7543 42.5657L52.0046 34.0262C51.9711 33.6462 51.8325 33.2829 51.6042 32.9772C51.3759 32.6715 51.0671 32.4353 50.7122 32.2952C50.3573 32.1551 49.9705 32.1166 49.5949 32.1839C49.2194 32.2513 48.87 32.4218 48.5859 32.6765L36.9915 43.0758L35.6287 27.5609C35.5953 27.1808 35.4567 26.8176 35.2285 26.5118C35.0002 26.2061 34.6913 25.9699 34.3365 25.8298C33.9816 25.6897 33.5947 25.6511 33.2191 25.7185C32.8436 25.7859 32.4942 25.9565 32.2101 26.2112L25.8285 31.9353L20.0351 29.648C20.3274 23.3627 22.5872 19.3398 23.9213 17.4937C28.4405 11.2392 36.1403 8.66435 42.6464 11.233C47.5673 13.1758 50.8831 17.8081 51.9832 24.2755C52.0423 24.6239 52.1902 24.9511 52.4128 25.2255C52.6353 25.4999 52.9249 25.7123 53.2536 25.842L53.2541 25.8422C53.5827 25.9719 53.9393 26.0147 54.2893 25.9665C54.6393 25.9182 54.971 25.7805 55.2523 25.5666C60.4763 21.5956 66.065 20.4788 70.9882 22.4225C77.497 24.9922 81.3636 32.1335 80.3913 39.7885C79.7166 45.0983 74.5684 62.6735 36.7336 67.6867Z" fill="#01A368" fill-opacity="0.2"/>
</g>
<defs>
<clipPath id="clip0_68_934">
<rect width="69.7519" height="69.7519" fill="white" transform="translate(25.7579) scale(1.0056) rotate(21.5444)"/>
</clipPath>
</defs>
</svg>
