<svg width="71" height="34" viewBox="0 0 71 34" fill="none" xmlns="http://www.w3.org/2000/svg">
<path d="M69.5583 0.0908749L45.3698 11.0459C45.1712 11.1358 45.0066 11.287 44.9001 11.4772C44.7936 11.6674 44.7507 11.8868 44.7779 12.1031L45.1885 15.3653L36.8379 2.18147C36.7104 1.98054 36.5169 1.83038 36.2906 1.75688C36.0643 1.68337 35.8195 1.69114 35.5983 1.77884C35.1437 1.96181 34.8795 2.44042 34.9732 2.92217L37.3622 15.2378L32.7676 9.2166C32.6298 9.03612 32.4358 8.9067 32.2163 8.84879C31.9968 8.79088 31.7642 8.80778 31.5553 8.89682C31.3461 8.98548 31.1726 9.14157 31.0623 9.34026C30.9521 9.53894 30.9115 9.76879 30.947 9.99322L32.7071 21.2847L23.3571 4.59447C23.2434 4.39116 23.0635 4.2329 22.8473 4.14599C22.6312 4.05909 22.3918 4.04877 22.169 4.11676C21.9461 4.18459 21.7532 4.32664 21.6222 4.5193C21.4913 4.71196 21.4302 4.94364 21.4491 5.17582L22.763 21.4077L0.599766 31.4455C0.353093 31.5572 0.160904 31.7623 0.0654769 32.0158C-0.0299507 32.2692 -0.0207985 32.5501 0.0909196 32.7968C0.202638 33.0435 0.407771 33.2357 0.661192 33.3311C0.914612 33.4265 1.19556 33.4174 1.44223 33.3056L24.2595 22.9717C24.4511 22.885 24.6113 22.7412 24.718 22.56C24.8248 22.3788 24.8729 22.169 24.8559 21.9593L23.8611 9.67235L33.6991 27.2338C33.8162 27.4426 34.0029 27.6036 34.2266 27.6887C34.4503 27.7738 34.6968 27.7777 34.9231 27.6995C35.1493 27.6214 35.3409 27.4662 35.4644 27.2611C35.5879 27.0561 35.6354 26.8142 35.5986 26.5776L33.5839 13.653L38.3823 19.9415C38.522 20.1247 38.7195 20.2552 38.9427 20.3119C39.1659 20.3686 39.4017 20.3481 39.6119 20.2539L39.6153 20.2523C39.8244 20.1575 39.9955 19.995 40.1009 19.7909C40.2063 19.5869 40.2399 19.3533 40.1961 19.1278L38.0074 7.84496L45.9089 20.3196C46.0332 20.5155 46.2204 20.6634 46.4399 20.7387C46.6594 20.814 46.898 20.8123 47.1164 20.7338C47.3347 20.6554 47.5199 20.5049 47.6413 20.3072C47.7627 20.1095 47.8132 19.8763 47.7844 19.6461L46.8973 12.5954L70.4005 1.95078C70.5226 1.89547 70.6326 1.81665 70.7242 1.71883C70.8159 1.621 70.8874 1.50608 70.9346 1.38062C70.9818 1.25517 71.0039 1.12164 70.9995 0.987663C70.9951 0.853688 70.9644 0.721885 70.909 0.599785C70.8538 0.477646 70.775 0.36759 70.6773 0.275905C70.5795 0.184219 70.4646 0.112704 70.3391 0.0654417C70.2137 0.0181795 70.0802 -0.00389789 69.9462 0.000466466C69.8122 0.00482908 69.6804 0.0355518 69.5583 0.0908749Z" fill="#F6E0D4"/>
</svg>
