<svg width="86" height="82" viewBox="0 0 86 82" fill="none" xmlns="http://www.w3.org/2000/svg">
<path d="M85.8958 45.879C85.2603 41.4762 81.8015 38.0175 77.3988 37.382V34.7762C77.3988 27.5867 71.9336 21.7331 65.2156 21.7331C58.6912 21.7331 53.2289 27.409 53.0325 34.3864H53.1156L53.0325 34.4007V62.6469C53.0325 71.6768 46.2816 79.0096 37.9827 79.0096C29.6839 79.0096 22.933 71.6668 22.933 62.6469V60.2003C25.0113 60.2003 27.2329 58.6939 27.2329 54.467V50.8623C36.4319 48.5102 42.9993 40.6112 42.9993 31.6559V28.6675H40.1327L40.0725 10.0129C40.0517 6.55989 37.5739 3.61158 34.1759 2.99686C33.4429 0.751404 31.0283 -0.474793 28.7827 0.258345C26.5372 0.991304 25.311 3.40589 26.0441 5.65153C26.7771 7.89699 29.1917 9.12319 31.4373 8.39005C32.0313 8.19613 32.5756 7.87444 33.0318 7.44759C33.4881 7.02074 33.8453 6.49911 34.0784 5.91939C34.9724 6.17373 35.7599 6.71091 36.323 7.45045C36.886 8.18999 37.1943 9.09206 37.2016 10.0215L37.2661 28.6675H34.3995V31.6975C34.2851 36.6831 30.9427 41.0156 26.1493 42.3914C23.5846 43.2052 20.8308 43.2052 18.2661 42.3914C13.4783 41.0109 10.1434 36.6791 10.0332 31.6975V28.6675H5.73324V10.0344C5.73727 9.09191 6.05087 8.17683 6.62578 7.42996C7.2007 6.68309 8.00508 6.1458 8.91519 5.90075C9.78754 8.12149 12.2949 9.21439 14.5157 8.34204C16.7364 7.46969 17.8293 4.96211 16.957 2.74156C16.0846 0.520999 13.577 -0.572079 11.3565 0.30027C10.7622 0.533744 10.2271 0.896028 9.7896 1.36106C9.35211 1.82609 9.02313 2.38231 8.82633 2.9897C5.39122 3.57664 2.87612 6.5495 2.86662 10.0344V28.6675H0V31.6487C0 40.6141 6.57173 48.5159 15.7664 50.8623V54.467C15.7664 58.6939 17.988 60.2003 20.0663 60.2003V62.6469C20.0663 73.2534 28.1029 81.8762 37.9827 81.8762C47.8625 81.8762 55.8991 73.2434 55.8991 62.6469V34.4695C56.0424 29.0301 60.2248 24.604 65.2156 24.604C70.3526 24.604 74.5321 29.1677 74.5321 34.7805V37.382C69.0478 38.1735 65.2436 43.2612 66.0351 48.7456C66.8267 54.23 71.9144 58.0342 77.3988 57.2426C82.8831 56.4511 86.6873 51.3632 85.8958 45.879ZM30.0995 5.73449C29.7194 5.73449 29.3548 5.58348 29.086 5.31468C28.8172 5.04588 28.6662 4.68131 28.6662 4.30118C28.6662 3.92104 28.8172 3.55647 29.086 3.28767C29.3548 3.01888 29.7194 2.86787 30.0995 2.86787C30.4797 2.86787 30.8442 3.01888 31.113 3.28767C31.3818 3.55647 31.5328 3.92104 31.5328 4.30118C31.5328 4.68131 31.3818 5.04588 31.113 5.31468C30.8442 5.58348 30.4797 5.73449 30.0995 5.73449ZM12.8998 2.86787C13.2799 2.86787 13.6445 3.01888 13.9133 3.28767C14.1821 3.55647 14.3331 3.92104 14.3331 4.30118C14.3331 4.68131 14.1821 5.04588 13.9133 5.31468C13.6445 5.58348 13.2799 5.73449 12.8998 5.73449C12.5197 5.73449 12.1551 5.58348 11.8863 5.31468C11.6175 5.04588 11.4665 4.68131 11.4665 4.30118C11.4665 3.92104 11.6175 3.55647 11.8863 3.28767C12.1551 3.01888 12.5197 2.86787 12.8998 2.86787ZM2.86662 31.6487V31.5341H7.16655V31.6975C7.27405 37.9272 11.4186 43.3639 17.3975 45.1176C20.5305 46.1096 23.8935 46.1096 27.0265 45.1176C33.0082 43.3662 37.1566 37.9293 37.2661 31.6975V31.5341H40.1327V31.6487C40.1327 39.6222 33.9867 46.6383 25.5129 48.3353C23.5231 48.7338 21.4851 48.8338 19.4658 48.632C18.8011 48.5676 18.1404 48.4676 17.4864 48.3325C9.01266 46.6383 2.86662 39.6222 2.86662 31.6487ZM20.0663 57.3337C18.7764 57.3337 18.633 55.327 18.633 54.467V51.4256C18.7477 51.4399 18.8652 51.4456 18.9813 51.4571C19.1247 51.4729 19.268 51.4843 19.4113 51.4972C20.0893 51.5574 20.773 51.5976 21.4624 51.599H21.5341C22.222 51.599 22.9043 51.5574 23.578 51.4972C23.7213 51.4843 23.8732 51.4729 24.0209 51.4571C24.1341 51.4442 24.2516 51.4399 24.3648 51.4256V54.467C24.3648 55.327 24.2215 57.3337 22.9315 57.3337H20.0663ZM75.9655 54.467C72.0075 54.467 68.7989 51.2584 68.7989 47.3005C68.7989 43.3426 72.0075 40.1339 75.9655 40.1339C79.9234 40.1339 83.132 43.3426 83.132 47.3005C83.1274 51.2566 79.9214 54.4624 75.9655 54.467Z" fill="white" fill-opacity="0.3"/>
</svg>
