<svg width="83" height="50" viewBox="0 0 83 50" fill="none" xmlns="http://www.w3.org/2000/svg">
<path fill-rule="evenodd" clip-rule="evenodd" d="M15.079 49.7864C11.2846 49.9624 9.42275 49.6397 6.61812 48.0934C-7.38203 40.375 2.00609 16.1652 23.7408 10.8418C28.3748 9.70709 30.7945 9.71821 34.8099 10.4241C31.1919 11.0815 27.5709 11.5085 23.9589 12.711C10.8443 17.0773 2.95271 29.4962 4.06138 38.7703C4.85731 45.4306 8.70153 47.1245 15.079 49.7864Z" fill="white" fill-opacity="0.3"/>
<path fill-rule="evenodd" clip-rule="evenodd" d="M35.2186 10.1522C32.2615 14.6204 30.3419 18.7449 35.6048 21.1521C41.1992 23.7111 46.5973 19.6175 49.8915 14.8335C53.354 9.8051 58.1957 0.068606 67.1534 -5.85018e-05L69.6245 0.341765L67.0151 1.03459C58.3894 3.49262 57.0706 9.50755 53.5302 15.5792C45.0485 30.1242 28.1652 25.772 29.9001 16.776C30.4917 13.7089 32.1003 12.2013 35.2186 10.1522Z" fill="white" fill-opacity="0.3"/>
<path fill-rule="evenodd" clip-rule="evenodd" d="M69.6244 0.34161C71.9194 5.30413 71.4146 5.07092 77.8206 6.92583C83.0892 8.45157 84.3384 10.635 81.568 15.7237L81.5638 15.724C81.0324 7.79545 79.8087 11.0822 73.5872 8.33398C69.5041 6.52964 68.7641 4.38715 69.6244 0.34161Z" fill="white" fill-opacity="0.3"/>
<path fill-rule="evenodd" clip-rule="evenodd" d="M23.9506 48.7013C20.5543 49.2073 18.8072 49.148 15.953 48.2551C7.39259 45.5766 4.79206 36.9055 8.35348 28.8572C11.0421 22.7814 16.8524 16.958 24.6422 14.2136C26.8448 13.4378 26.3823 13.6007 29.1775 13.2214C25.6398 14.8868 22.903 15.9401 19.7585 18.2849C11.3231 24.5748 8.38234 34.794 11.3522 41.2759C13.7162 46.4389 17.6725 47.2959 23.9506 48.7013Z" fill="white" fill-opacity="0.3"/>
<path fill-rule="evenodd" clip-rule="evenodd" d="M37.3067 42.0629C33.8616 43.717 31.2545 44.2857 27.7249 44.2789C11.3766 44.2491 8.01953 27.6725 23.3766 17.9342C25.3136 16.7062 24.867 16.981 27.5754 15.9224C25.0116 18.0838 22.3262 20.0301 20.3084 22.517C14.9415 29.131 16.1893 36.8704 22.0564 40.5192C26.752 43.4393 30.954 42.6856 37.3067 42.0629Z" fill="white" fill-opacity="0.3"/>
<path fill-rule="evenodd" clip-rule="evenodd" d="M36.7362 30.0496C45.4997 26.83 49.2185 26.5805 54.5546 19.1377C57.1821 15.4725 59.9993 8.2473 62.7781 5.77998C63.7782 4.89203 63.9401 4.83013 65.1578 4.51986L64.6429 5.12478C61.755 8.33866 61.2295 12.1182 59.7868 15.5558C57.211 21.6942 52.9708 26.3968 44.9811 28.915C41.616 29.9751 39.8947 30.1817 36.7362 30.0496Z" fill="white" fill-opacity="0.3"/>
<path fill-rule="evenodd" clip-rule="evenodd" d="M77.6016 20.4913C75.6134 21.4753 75.1869 21.6528 72.9467 21.417C66.1445 20.7007 62.652 14.7155 64.4686 9.03776C64.9989 7.38091 64.8365 7.78319 66.4435 5.9009L66.4436 5.90118C66.4514 10.3257 65.9834 11.2789 68.4955 14.9824C71.0378 18.7301 72.0122 19.7622 77.6016 20.4913Z" fill="white" fill-opacity="0.3"/>
</svg>
