<svg width="108" height="20" viewBox="0 0 108 20" fill="none" xmlns="http://www.w3.org/2000/svg">
<path d="M11.4417 2.92501L12.9084 5.85835C13.1084 6.26668 13.6417 6.65835 14.0917 6.73335L16.75 7.17501C18.45 7.45835 18.85 8.69168 17.625 9.90835L15.5584 11.975C15.2084 12.325 15.0167 13 15.125 13.4833L15.7167 16.0417C16.1834 18.0667 15.1084 18.85 13.3167 17.7917L10.825 16.3167C10.375 16.05 9.63338 16.05 9.17505 16.3167L6.68338 17.7917C4.90005 18.85 3.81671 18.0583 4.28338 16.0417L4.87505 13.4833C4.98338 13 4.79171 12.325 4.44171 11.975L2.37505 9.90835C1.15838 8.69168 1.55005 7.45835 3.25005 7.17501L5.90838 6.73335C6.35005 6.65835 6.88338 6.26668 7.08338 5.85835L8.55005 2.92501C9.35005 1.33335 10.65 1.33335 11.4417 2.92501Z" fill="#FFB800"/>
<path d="M33.4417 2.92501L34.9084 5.85835C35.1084 6.26668 35.6417 6.65835 36.0917 6.73335L38.75 7.17501C40.45 7.45835 40.85 8.69168 39.625 9.90835L37.5584 11.975C37.2084 12.325 37.0167 13 37.125 13.4833L37.7167 16.0417C38.1834 18.0667 37.1084 18.85 35.3167 17.7917L32.825 16.3167C32.375 16.05 31.6334 16.05 31.175 16.3167L28.6834 17.7917C26.9 18.85 25.8167 18.0583 26.2834 16.0417L26.875 13.4833C26.9834 13 26.7917 12.325 26.4417 11.975L24.375 9.90835C23.1584 8.69168 23.55 7.45835 25.25 7.17501L27.9084 6.73335C28.35 6.65835 28.8834 6.26668 29.0834 5.85835L30.55 2.92501C31.35 1.33335 32.65 1.33335 33.4417 2.92501Z" fill="#FFB800"/>
<path d="M55.4417 2.92501L56.9084 5.85835C57.1084 6.26668 57.6417 6.65835 58.0917 6.73335L60.75 7.17501C62.45 7.45835 62.85 8.69168 61.625 9.90835L59.5584 11.975C59.2084 12.325 59.0167 13 59.125 13.4833L59.7167 16.0417C60.1834 18.0667 59.1084 18.85 57.3167 17.7917L54.825 16.3167C54.375 16.05 53.6334 16.05 53.175 16.3167L50.6834 17.7917C48.9 18.85 47.8167 18.0583 48.2834 16.0417L48.875 13.4833C48.9834 13 48.7917 12.325 48.4417 11.975L46.375 9.90835C45.1584 8.69168 45.55 7.45835 47.25 7.17501L49.9084 6.73335C50.35 6.65835 50.8834 6.26668 51.0834 5.85835L52.55 2.92501C53.35 1.33335 54.65 1.33335 55.4417 2.92501Z" fill="#FFB800"/>
<path d="M77.4417 2.92501L78.9084 5.85835C79.1084 6.26668 79.6417 6.65835 80.0917 6.73335L82.75 7.17501C84.45 7.45835 84.85 8.69168 83.625 9.90835L81.5584 11.975C81.2084 12.325 81.0167 13 81.125 13.4833L81.7167 16.0417C82.1834 18.0667 81.1084 18.85 79.3167 17.7917L76.825 16.3167C76.375 16.05 75.6334 16.05 75.175 16.3167L72.6834 17.7917C70.9 18.85 69.8167 18.0583 70.2834 16.0417L70.875 13.4833C70.9834 13 70.7917 12.325 70.4417 11.975L68.375 9.90835C67.1584 8.69168 67.55 7.45835 69.25 7.17501L71.9084 6.73335C72.35 6.65835 72.8834 6.26668 73.0834 5.85835L74.55 2.92501C75.35 1.33335 76.65 1.33335 77.4417 2.92501Z" fill="#FFB800"/>
<path d="M99.4417 2.92501L100.908 5.85835C101.108 6.26668 101.642 6.65835 102.092 6.73335L104.75 7.17501C106.45 7.45835 106.85 8.69168 105.625 9.90835L103.558 11.975C103.208 12.325 103.017 13 103.125 13.4833L103.717 16.0417C104.183 18.0667 103.108 18.85 101.317 17.7917L98.825 16.3167C98.375 16.05 97.6334 16.05 97.175 16.3167L94.6834 17.7917C92.9 18.85 91.8167 18.0583 92.2834 16.0417L92.875 13.4833C92.9834 13 92.7917 12.325 92.4417 11.975L90.375 9.90835C89.1584 8.69168 89.55 7.45835 91.25 7.17501L93.9084 6.73335C94.35 6.65835 94.8834 6.26668 95.0834 5.85835L96.55 2.92501C97.35 1.33335 98.65 1.33335 99.4417 2.92501Z" fill="#FFB800"/>
</svg>
