<svg width="100" height="100" viewBox="0 0 100 100" fill="none" xmlns="http://www.w3.org/2000/svg">
<circle cx="50" cy="50" r="50" fill="#FFF3EE"/>
<path d="M55.6501 38.6833L58.0001 43.3833C58.3167 44.0333 59.1667 44.65 59.8834 44.7833L64.1334 45.4833C66.8501 45.9333 67.4834 47.9 65.5334 49.8667L62.2167 53.1833C61.6667 53.7333 61.3501 54.8167 61.5334 55.6L62.4834 59.7C63.2334 62.9333 61.5001 64.2 58.6501 62.5L54.6667 60.1333C53.9501 59.7 52.7501 59.7 52.0334 60.1333L48.0501 62.5C45.2001 64.1833 43.4667 62.9333 44.2167 59.7L45.1667 55.6C45.3167 54.8 45.0001 53.7167 44.4501 53.1667L41.1334 49.85C39.1834 47.9 39.8167 45.9333 42.5334 45.4667L46.7834 44.7667C47.5001 44.65 48.3501 44.0167 48.6667 43.3667L51.0167 38.6667C52.3001 36.1333 54.3667 36.1333 55.6501 38.6833Z" fill="#FCA680"/>
<path d="M43.3333 39.5833H33.3333C32.6499 39.5833 32.0833 39.0167 32.0833 38.3333C32.0833 37.65 32.6499 37.0833 33.3333 37.0833H43.3333C44.0166 37.0833 44.5833 37.65 44.5833 38.3333C44.5833 39.0167 44.0166 39.5833 43.3333 39.5833Z" fill="#FCA680"/>
<path d="M38.3333 62.9167H33.3333C32.6499 62.9167 32.0833 62.35 32.0833 61.6667C32.0833 60.9833 32.6499 60.4167 33.3333 60.4167H38.3333C39.0166 60.4167 39.5833 60.9833 39.5833 61.6667C39.5833 62.35 39.0166 62.9167 38.3333 62.9167Z" fill="#FCA680"/>
<path d="M34.9999 51.25H33.3333C32.6499 51.25 32.0833 50.6833 32.0833 50C32.0833 49.3167 32.6499 48.75 33.3333 48.75H34.9999C35.6833 48.75 36.2499 49.3167 36.2499 50C36.2499 50.6833 35.6833 51.25 34.9999 51.25Z" fill="#FCA680"/>
</svg>
