<svg width="24" height="24" viewBox="0 0 24 24" fill="none" xmlns="http://www.w3.org/2000/svg">
<path d="M22.3463 7.55906H16.4409V1.70079C16.446 1.48002 16.407 1.26047 16.3262 1.05493C16.2455 0.849393 16.1246 0.661993 15.9707 0.50367C15.8167 0.345347 15.6328 0.219269 15.4296 0.132794C15.2264 0.0463185 15.008 0.0011788 14.7872 6.30268e-06H9.49587C9.04003 -0.00121848 8.60184 0.176107 8.27515 0.494004C7.94846 0.811902 7.75924 1.24509 7.74803 1.70079V7.55906H1.74784C1.292 7.55783 0.853817 7.73516 0.527124 8.05306C0.200431 8.37095 0.0112127 8.80414 0 9.25984V14.5512C0.0112127 15.0069 0.200431 15.4401 0.527124 15.758C0.853817 16.0759 1.292 16.2532 1.74784 16.252H7.74803V22.2992C7.75924 22.7549 7.94846 23.1881 8.27515 23.506C8.60184 23.8239 9.04003 24.0012 9.49587 24H14.7872C15.008 23.9988 15.2264 23.9537 15.4296 23.8672C15.6328 23.7807 15.8167 23.6547 15.9707 23.4963C16.1246 23.338 16.2455 23.1506 16.3262 22.9451C16.407 22.7395 16.446 22.52 16.4409 22.2992V16.252H22.3463C22.5671 16.2508 22.7855 16.2057 22.9886 16.1192C23.1918 16.0327 23.3758 15.9066 23.5297 15.7483C23.6837 15.59 23.8045 15.4026 23.8853 15.197C23.966 14.9915 24.005 14.7719 24 14.5512V9.25984C24.005 9.03907 23.966 8.81952 23.8853 8.61398C23.8045 8.40844 23.6837 8.22104 23.5297 8.06272C23.3758 7.9044 23.1918 7.77832 22.9886 7.69184C22.7855 7.60537 22.5671 7.56023 22.3463 7.55906ZM21.3543 13.6063H15.5431C15.0873 13.6051 14.6491 13.7824 14.3224 14.1003C13.9957 14.4182 13.8065 14.8514 13.7953 15.3071V21.3543H10.3937V15.3071C10.3987 15.0863 10.3597 14.8668 10.279 14.6612C10.1982 14.4557 10.0774 14.2683 9.92342 14.11C9.76948 13.9516 9.58555 13.8256 9.38236 13.7391C9.17917 13.6526 8.96078 13.6075 8.73996 13.6063H2.64567V10.2047H8.73996C8.96078 10.2036 9.17917 10.1584 9.38236 10.0719C9.58555 9.98546 9.76948 9.85938 9.92342 9.70106C10.0774 9.54274 10.1982 9.35534 10.279 9.1498C10.3597 8.94426 10.3987 8.72471 10.3937 8.50394V2.64567H13.7953V8.50394C13.8065 8.95964 13.9957 9.39283 14.3224 9.71073C14.6491 10.0286 15.0873 10.2059 15.5431 10.2047H21.3543V13.6063Z" fill="#FCA680" fill-opacity="0.3"/>
</svg>
