<svg width="145" height="119" viewBox="0 0 145 119" fill="none" xmlns="http://www.w3.org/2000/svg">
<g clip-path="url(#clip0_68_983)">
<path d="M4.08974 119C6.34845 119 8.17949 117.163 8.17949 114.897C8.17949 112.63 6.34845 110.793 4.08974 110.793C1.83104 110.793 0 112.63 0 114.897C0 117.163 1.83104 119 4.08974 119Z" fill="#0BBCF4" fill-opacity="0.3"/>
<path d="M31.4166 119C33.6754 119 35.5064 117.163 35.5064 114.897C35.5064 112.63 33.6754 110.793 31.4166 110.793C29.1579 110.793 27.3269 112.63 27.3269 114.897C27.3269 117.163 29.1579 119 31.4166 119Z" fill="#0BBCF4" fill-opacity="0.3"/>
<path d="M58.9295 119C61.1882 119 63.0192 117.163 63.0192 114.897C63.0192 112.63 61.1882 110.793 58.9295 110.793C56.6708 110.793 54.8397 112.63 54.8397 114.897C54.8397 117.163 56.6708 119 58.9295 119Z" fill="#0BBCF4" fill-opacity="0.3"/>
<path d="M86.2564 110.793C84.0256 110.793 82.1666 112.658 82.1666 114.897C82.1666 117.135 84.0256 119 86.2564 119C88.4871 119 90.3461 117.135 90.3461 114.897C90.3461 112.658 88.4871 110.793 86.2564 110.793Z" fill="#0BBCF4" fill-opacity="0.3"/>
<path d="M113.583 110.793C111.353 110.793 109.494 112.658 109.494 114.897C109.494 117.135 111.353 119 113.583 119C115.814 119 117.673 117.135 117.673 114.897C117.673 112.658 115.814 110.793 113.583 110.793Z" fill="#0BBCF4" fill-opacity="0.3"/>
<path d="M140.91 119C143.169 119 145 117.163 145 114.897C145 112.63 143.169 110.793 140.91 110.793C138.652 110.793 136.821 112.63 136.821 114.897C136.821 117.163 138.652 119 140.91 119Z" fill="#0BBCF4" fill-opacity="0.3"/>
<path d="M4.08974 96.8041C6.34845 96.8041 8.17949 94.9669 8.17949 92.7006C8.17949 90.4343 6.34845 88.5972 4.08974 88.5972C1.83104 88.5972 0 90.4343 0 92.7006C0 94.9669 1.83104 96.8041 4.08974 96.8041Z" fill="#0BBCF4" fill-opacity="0.3"/>
<path d="M31.4166 96.8041C33.6754 96.8041 35.5064 94.9669 35.5064 92.7006C35.5064 90.4343 33.6754 88.5972 31.4166 88.5972C29.1579 88.5972 27.3269 90.4343 27.3269 92.7006C27.3269 94.9669 29.1579 96.8041 31.4166 96.8041Z" fill="#0BBCF4" fill-opacity="0.3"/>
<path d="M58.9295 96.8041C61.1882 96.8041 63.0192 94.9669 63.0192 92.7006C63.0192 90.4343 61.1882 88.5972 58.9295 88.5972C56.6708 88.5972 54.8397 90.4343 54.8397 92.7006C54.8397 94.9669 56.6708 96.8041 58.9295 96.8041Z" fill="#0BBCF4" fill-opacity="0.3"/>
<path d="M86.2564 88.5972C84.0256 88.5972 82.1666 90.4624 82.1666 92.7006C82.1666 94.9389 84.0256 96.8041 86.2564 96.8041C88.4871 96.8041 90.3461 94.9389 90.3461 92.7006C90.3461 90.4624 88.4871 88.5972 86.2564 88.5972Z" fill="#0BBCF4" fill-opacity="0.3"/>
<path d="M113.583 88.5972C111.353 88.5972 109.494 90.4624 109.494 92.7006C109.494 94.9389 111.353 96.8041 113.583 96.8041C115.814 96.8041 117.673 94.9389 117.673 92.7006C117.673 90.4624 115.814 88.5972 113.583 88.5972Z" fill="#0BBCF4" fill-opacity="0.3"/>
<path d="M140.91 96.8041C143.169 96.8041 145 94.9669 145 92.7006C145 90.4343 143.169 88.5972 140.91 88.5972C138.652 88.5972 136.821 90.4343 136.821 92.7006C136.821 94.9669 138.652 96.8041 140.91 96.8041Z" fill="#0BBCF4" fill-opacity="0.3"/>
<path d="M4.08974 66.4012C1.85897 66.4012 0 68.2665 0 70.5047C0 72.9295 1.85897 74.6081 4.08974 74.6081C6.32051 74.6081 8.17949 72.7429 8.17949 70.5047C8.17949 68.2665 6.32051 66.4012 4.08974 66.4012Z" fill="#0BBCF4" fill-opacity="0.3"/>
<path d="M31.4166 66.4012C29.1859 66.4012 27.3269 68.2665 27.3269 70.5047C27.3269 72.7429 29.1859 74.6081 31.4166 74.6081C33.6474 74.6081 35.5064 72.7429 35.5064 70.5047C35.5064 68.2665 33.6474 66.4012 31.4166 66.4012Z" fill="#0BBCF4" fill-opacity="0.3"/>
<path d="M58.9295 66.4012C56.6987 66.4012 54.8397 68.2665 54.8397 70.5047C54.8397 72.7429 56.6987 74.6081 58.9295 74.6081C61.1602 74.6081 63.0192 72.7429 63.0192 70.5047C63.0192 68.2665 61.1602 66.4012 58.9295 66.4012Z" fill="#0BBCF4" fill-opacity="0.3"/>
<path d="M86.2564 66.4012C84.0256 66.4012 82.1666 68.2665 82.1666 70.5047C82.1666 72.7429 84.0256 74.6081 86.2564 74.6081C88.4871 74.6081 90.3461 72.7429 90.3461 70.5047C90.3461 68.2665 88.4871 66.4012 86.2564 66.4012Z" fill="#0BBCF4" fill-opacity="0.3"/>
<path d="M113.583 66.4012C111.353 66.4012 109.494 68.2665 109.494 70.5047C109.494 72.7429 111.353 74.6081 113.583 74.6081C115.814 74.6081 117.673 72.7429 117.673 70.5047C117.673 68.2665 115.814 66.4012 113.583 66.4012Z" fill="#0BBCF4" fill-opacity="0.3"/>
<path d="M140.91 66.4012C138.68 66.4012 136.821 68.2665 136.821 70.5047C136.821 72.7429 138.68 74.6081 140.91 74.6081C143.141 74.6081 145 72.7429 145 70.5047C145 68.2665 143.327 66.4012 140.91 66.4012Z" fill="#0BBCF4" fill-opacity="0.3"/>
<path d="M4.08974 52.5987C6.34845 52.5987 8.17949 50.7616 8.17949 48.4953C8.17949 46.229 6.34845 44.3918 4.08974 44.3918C1.83104 44.3918 0 46.229 0 48.4953C0 50.7616 1.83104 52.5987 4.08974 52.5987Z" fill="#0BBCF4" fill-opacity="0.3"/>
<path d="M31.4166 52.5987C33.6754 52.5987 35.5064 50.7616 35.5064 48.4953C35.5064 46.229 33.6754 44.3918 31.4166 44.3918C29.1579 44.3918 27.3269 46.229 27.3269 48.4953C27.3269 50.7616 29.1579 52.5987 31.4166 52.5987Z" fill="#0BBCF4" fill-opacity="0.3"/>
<path d="M58.9295 52.5987C61.1882 52.5987 63.0192 50.7616 63.0192 48.4953C63.0192 46.229 61.1882 44.3918 58.9295 44.3918C56.6708 44.3918 54.8397 46.229 54.8397 48.4953C54.8397 50.7616 56.6708 52.5987 58.9295 52.5987Z" fill="#0BBCF4" fill-opacity="0.3"/>
<path d="M86.2564 44.3918C84.0256 44.3918 82.1666 46.2571 82.1666 48.4953C82.1666 50.7335 84.0256 52.5987 86.2564 52.5987C88.4871 52.5987 90.3461 50.7335 90.3461 48.4953C90.3461 46.0705 88.4871 44.3918 86.2564 44.3918Z" fill="#0BBCF4" fill-opacity="0.3"/>
<path d="M113.583 44.3918C111.353 44.3918 109.494 46.2571 109.494 48.4953C109.494 50.7335 111.353 52.5987 113.583 52.5987C115.814 52.5987 117.673 50.7335 117.673 48.4953C117.673 46.0705 115.814 44.3918 113.583 44.3918Z" fill="#0BBCF4" fill-opacity="0.3"/>
<path d="M140.91 52.5987C143.169 52.5987 145 50.7616 145 48.4953C145 46.229 143.169 44.3918 140.91 44.3918C138.652 44.3918 136.821 46.229 136.821 48.4953C136.821 50.7616 138.652 52.5987 140.91 52.5987Z" fill="#0BBCF4" fill-opacity="0.3"/>
<path d="M4.08974 30.4028C6.34845 30.4028 8.17949 28.5656 8.17949 26.2994C8.17949 24.0331 6.34845 22.1959 4.08974 22.1959C1.83104 22.1959 0 24.0331 0 26.2994C0 28.5656 1.83104 30.4028 4.08974 30.4028Z" fill="#0BBCF4" fill-opacity="0.3"/>
<path d="M31.4166 30.4028C33.6754 30.4028 35.5064 28.5656 35.5064 26.2994C35.5064 24.0331 33.6754 22.1959 31.4166 22.1959C29.1579 22.1959 27.3269 24.0331 27.3269 26.2994C27.3269 28.5656 29.1579 30.4028 31.4166 30.4028Z" fill="#0BBCF4" fill-opacity="0.3"/>
<path d="M58.9295 30.4028C61.1882 30.4028 63.0192 28.5656 63.0192 26.2994C63.0192 24.0331 61.1882 22.1959 58.9295 22.1959C56.6708 22.1959 54.8397 24.0331 54.8397 26.2994C54.8397 28.5656 56.6708 30.4028 58.9295 30.4028Z" fill="#0BBCF4" fill-opacity="0.3"/>
<path d="M86.2564 22.1959C84.0256 22.1959 82.1666 24.0611 82.1666 26.2994C82.1666 28.5376 84.0256 30.4028 86.2564 30.4028C88.4871 30.4028 90.3461 28.5376 90.3461 26.2994C90.3461 24.0611 88.4871 22.1959 86.2564 22.1959Z" fill="#0BBCF4" fill-opacity="0.3"/>
<path d="M113.583 22.1959C111.353 22.1959 109.494 24.0611 109.494 26.2994C109.494 28.5376 111.353 30.4028 113.583 30.4028C115.814 30.4028 117.673 28.5376 117.673 26.2994C117.673 24.0611 115.814 22.1959 113.583 22.1959Z" fill="#0BBCF4" fill-opacity="0.3"/>
<path d="M140.91 30.4028C143.169 30.4028 145 28.5656 145 26.2994C145 24.0331 143.169 22.1959 140.91 22.1959C138.652 22.1959 136.821 24.0331 136.821 26.2994C136.821 28.5656 138.652 30.4028 140.91 30.4028Z" fill="#0BBCF4" fill-opacity="0.3"/>
<path d="M4.08974 0C1.85897 0 0 1.8652 0 4.10345C0 6.34169 1.85897 8.2069 4.08974 8.2069C6.32051 8.2069 8.17949 6.34169 8.17949 4.10345C8.17949 1.8652 6.32051 0 4.08974 0Z" fill="#0BBCF4" fill-opacity="0.3"/>
<path d="M31.4166 0C29.1859 0 27.3269 1.8652 27.3269 4.10345C27.3269 6.34169 29.1859 8.2069 31.4166 8.2069C33.6474 8.2069 35.5064 6.34169 35.5064 4.10345C35.5064 1.8652 33.6474 0 31.4166 0Z" fill="#0BBCF4" fill-opacity="0.3"/>
<path d="M58.9295 0C56.6987 0 54.8397 1.8652 54.8397 4.10345C54.8397 6.34169 56.6987 8.2069 58.9295 8.2069C61.1602 8.2069 63.0192 6.34169 63.0192 4.10345C63.0192 1.8652 61.1602 0 58.9295 0Z" fill="#0BBCF4" fill-opacity="0.3"/>
<path d="M86.2564 0C84.0256 0 82.1666 1.8652 82.1666 4.10345C82.1666 6.34169 84.0256 8.2069 86.2564 8.2069C88.4871 8.2069 90.3461 6.34169 90.3461 4.10345C90.3461 1.8652 88.4871 0 86.2564 0Z" fill="#0BBCF4" fill-opacity="0.3"/>
<path d="M113.583 0C111.353 0 109.494 1.8652 109.494 4.10345C109.494 6.34169 111.353 8.2069 113.583 8.2069C115.814 8.2069 117.673 6.34169 117.673 4.10345C117.673 1.8652 115.814 0 113.583 0Z" fill="#0BBCF4" fill-opacity="0.3"/>
<path d="M140.91 0C138.68 0 136.821 1.8652 136.821 4.10345C136.821 6.34169 138.68 8.2069 140.91 8.2069C143.141 8.2069 145 6.34169 145 4.10345C145 1.8652 143.327 0 140.91 0Z" fill="#0BBCF4" fill-opacity="0.3"/>
</g>
<defs>
<clipPath id="clip0_68_983">
<rect width="145" height="119" fill="white"/>
</clipPath>
</defs>
</svg>
