<svg width="55" height="54" viewBox="0 0 55 54" fill="none" xmlns="http://www.w3.org/2000/svg">
<path fill-rule="evenodd" clip-rule="evenodd" d="M24.2224 21.5572C25.5711 28.1657 27.1807 34.1364 35.1096 35.386C52.0387 38.0553 56.3907 12.8414 41.2571 6.47435C33.023 3.01008 25.5832 6.24594 20.2524 12.1586C11.4505 21.9216 5.46618 37.5421 1.40565 50.1648C0.635947 52.5573 1.06743 51.4408 0.00951503 53.754L0.00915437 53.7531C-0.346616 40.7414 10.2425 15.626 19.061 6.67046C30.0649 -4.50604 49.6559 -1.59617 54.1445 15.0871C60.0496 37.0333 33.7535 46.1204 25.5409 31.4295C23.3352 27.4834 23.7274 25.5565 24.2224 21.5572Z" fill="#0FAD74" fill-opacity="0.2"/>
</svg>
