<svg width="85" height="87" viewBox="0 0 85 87" fill="none" xmlns="http://www.w3.org/2000/svg">
<path d="M63.2186 42.5586C59.7041 42.5595 56.242 43.4108 53.1278 45.0396C50.0136 46.6684 47.3397 49.0265 45.3342 51.9126C44.9916 51.8072 44.6674 51.7046 44.3617 51.6051L43.1269 48.1027C46.9436 45.2432 47.9891 40.7781 48.2744 38.6153C50.8411 37.919 53.1982 34.9032 54.1426 30.9067C54.6515 28.7451 53.9063 26.7326 52.2877 25.8985C51.839 25.6676 51.3418 25.547 50.8373 25.5466C50.9209 24.9194 51.0081 24.1522 51.0985 23.2102C51.3097 21.0061 51.4438 18.7799 51.4438 18.2157C51.4438 17.8158 51.4518 17.4036 51.4602 16.9673C51.5276 13.4869 51.6114 9.15576 47.7724 5.27283C44.3271 1.78829 39.4497 -0.132637 34.3924 0.00712927C29.3545 0.144897 24.6302 2.29465 21.4307 5.90514C21.3325 6.01625 21.2328 6.12809 21.1315 6.24065C19.2017 8.39695 16.5585 11.3502 16.7482 18.9131C16.7664 19.6534 17.4752 23.0459 18.2093 25.6315C17.7814 25.674 17.3664 25.8022 16.989 26.0085C15.4352 26.8482 14.7228 28.8165 15.216 30.9069C16.1611 34.9103 18.5259 37.9297 21.0984 38.6184C21.4059 40.7394 22.4825 45.1603 26.2018 48.0222L24.5728 51.3722C23.4096 51.7368 22.0986 52.098 20.7455 52.4771C11.9998 54.9284 0 58.2851 0 69.1908V80.5935C0 83.2872 1.44074 86.1502 4.02688 86.1502H63.2947C63.3065 86.1502 63.318 86.1487 63.3296 86.1483C69.0979 86.1152 74.6178 83.7968 78.6797 79.7011C82.7416 75.6054 85.0142 70.0664 84.9995 64.2981C84.9848 58.5298 82.684 53.0025 78.6013 48.9275C74.5186 44.8526 68.9869 42.5623 63.2186 42.5586ZM23.0279 7.93694C23.1319 7.82086 23.2344 7.70575 23.3356 7.59161C26.0699 4.50584 30.1253 2.66815 34.4622 2.54965C38.8201 2.4286 43.0113 4.0749 45.9633 7.0609C49.0469 10.1796 48.9776 13.7588 48.9165 16.9167C48.9067 17.3493 48.9011 17.7819 48.8996 18.2146C48.8996 18.4843 48.8724 19.0439 48.8258 19.7559C48.2106 17.4689 47.3504 15.2601 46.1659 13.9685L46.0718 13.7802C45.9643 13.5653 45.7982 13.3852 45.5927 13.2607C45.3871 13.1363 45.1505 13.0726 44.9103 13.077C44.67 13.0814 44.436 13.1538 44.2351 13.2858C44.0343 13.4177 43.875 13.6038 43.7755 13.8226C41.7256 18.3317 39.6948 18.1501 36.3306 17.85C35.9337 17.8133 35.5365 17.7805 35.1389 17.7517C33.8588 17.6608 33.3957 18.4089 33.2559 18.7331C32.8412 19.6964 33.4175 20.7366 34.4726 21.97C31.114 21.569 30.2627 19.1125 29.4957 16.8965C28.9633 15.3586 28.3601 13.6152 26.6058 13.6152C25.7605 13.5987 24.9215 13.7632 24.145 14.0977C23.3686 14.4322 22.6727 14.929 22.104 15.5547C20.8003 16.9542 20.0657 18.9494 19.6568 20.9047C19.4912 20.2279 19.3698 19.541 19.2933 18.8484C19.1273 12.2952 21.1995 9.97964 23.0279 7.93694ZM23.5272 37.4432C23.5118 37.1154 23.3713 36.8061 23.1346 36.5789C22.8978 36.3517 22.583 36.224 22.2549 36.2222H22.1995C20.3362 36.2222 18.3687 33.1826 17.692 30.3216C17.433 29.2238 17.7731 28.4763 18.1986 28.2462C18.6797 27.9866 19.1928 28.4438 19.3909 28.6526C19.5572 28.8277 19.7699 28.9519 20.0041 29.0106C20.2384 29.0693 20.4845 29.0601 20.7138 28.9841C20.943 28.9081 21.1459 28.7684 21.2987 28.5814C21.4514 28.3944 21.5479 28.1677 21.5766 27.9279C21.7019 27.7097 21.7595 27.4591 21.7418 27.208C21.6066 25.2566 21.7431 19.6703 23.9665 17.2877C24.2809 16.9388 24.6641 16.6588 25.092 16.4652C25.5199 16.2716 25.9832 16.1686 26.4528 16.1626C26.644 16.4387 26.8992 17.1757 27.0906 17.7292C28.0335 20.4532 29.7885 25.5226 37.566 24.4131C37.8044 24.379 38.0283 24.278 38.2116 24.1218C38.3949 23.9656 38.5301 23.7605 38.6015 23.5304C38.6728 23.3004 38.6774 23.0548 38.6147 22.8223C38.552 22.5897 38.4245 22.3798 38.2472 22.2168C37.6304 21.6497 37.045 21.0496 36.4935 20.4189C39.4846 20.6786 42.5356 20.7764 45.0572 16.8086C46.6508 19.7973 47.4805 25.7404 47.6837 28.1004C47.711 28.4176 47.8562 28.713 48.0906 28.9283C48.325 29.1437 48.6317 29.2633 48.95 29.2636C48.9863 29.2636 49.0227 29.262 49.0603 29.2587C49.2908 29.239 49.5115 29.1567 49.6987 29.0208C49.8858 28.8848 50.0324 28.7004 50.1225 28.4874C50.3736 28.2391 50.7568 27.9712 51.1221 28.159C51.5888 28.3994 51.9254 29.2197 51.6661 30.3218C50.9898 33.1833 49.0225 36.2227 47.1586 36.2227H47.1268C46.8799 36.2187 46.637 36.2861 46.4275 36.4168C46.2497 36.5277 46.1022 36.6808 45.9981 36.8626C45.894 37.0443 45.8365 37.249 45.8308 37.4584C45.7762 38.4988 45.2835 43.8185 40.9487 46.5126C40.9417 46.5167 40.9351 46.5215 40.9282 46.5258C39.2405 47.5671 37.138 48.0952 34.6791 48.0952C32.2269 48.0952 30.1291 47.5551 28.4432 46.4893C24.17 43.7912 23.5982 38.4804 23.527 37.4432H23.5272ZM26.6226 52.9753L28.3856 49.3504C30.2112 50.2057 32.3208 50.6394 34.6792 50.6394C37.0035 50.6394 39.0851 50.2276 40.8915 49.4159L42.1685 53.038C42.2324 53.2195 42.3366 53.3841 42.4734 53.5194C42.6101 53.6548 42.7757 53.7574 42.9578 53.8195C43.2748 53.9276 43.6104 54.0379 43.9645 54.1505C43.341 55.3212 42.8265 56.5468 42.4273 57.8117C41.2499 59.2061 38.779 61.3389 34.6792 61.3389C33.2958 61.3539 31.9247 61.077 30.6554 60.5264C29.3861 59.9758 28.2472 59.1638 27.3129 58.1434C25.9708 56.7039 25.2113 55.0992 24.9552 53.9175C25.2672 53.8217 25.5731 53.7257 25.8719 53.6287C26.0345 53.5758 26.1847 53.4906 26.3137 53.3784C26.4426 53.2661 26.5478 53.129 26.6226 52.9753ZM2.54452 80.5935V69.1908C2.54452 60.2146 13.027 57.283 21.4317 54.9273C21.7874 54.8275 22.1493 54.7292 22.4954 54.6316C23.4159 58.4989 27.5629 63.8827 34.6727 63.8827C37.1092 63.9135 39.5016 63.2319 41.556 61.9216C41.0699 66.2678 41.9022 70.6596 43.9447 74.5266C45.9871 78.3936 49.1454 81.5569 53.009 83.6056H4.02688C3.217 83.6056 2.54452 81.9864 2.54452 80.5935ZM63.2186 83.6056C59.4111 83.6056 55.6891 82.4765 52.5233 80.3612C49.3575 78.2458 46.8901 75.2392 45.433 71.7215C43.976 68.2039 43.5947 64.3331 44.3375 60.5988C45.0804 56.8645 46.9138 53.4343 49.6062 50.742C52.2985 48.0497 55.7287 46.2162 59.463 45.4734C63.1973 44.7305 67.0681 45.1118 70.5857 46.5688C74.1034 48.0259 77.11 50.4933 79.2254 53.6591C81.3407 56.8249 82.4698 60.5469 82.4698 64.3544C82.4642 69.4584 80.4341 74.3517 76.825 77.9608C73.2159 81.5699 68.3226 83.6 63.2186 83.6056Z" fill="#FCA680" fill-opacity="0.3"/>
</svg>
