<svg width="100" height="100" viewBox="0 0 100 100" fill="none" xmlns="http://www.w3.org/2000/svg">
<circle cx="50" cy="50" r="50" fill="#FFF3EE"/>
<g clip-path="url(#clip0_104_2808)">
<path d="M66.8903 33.0834C62.7767 28.9721 56.0855 28.9721 51.9719 33.0834L43.2746 41.7808L53.1491 51.6553C55.1815 49.9629 57.7581 48.9032 60.6032 48.9032C62.2351 48.9032 63.7879 49.2422 65.2009 49.8475L66.8903 48.0019C71.0027 43.8894 71.0027 37.1971 66.8903 33.0834ZM51.5054 53.3263L41.6172 43.4381L33.1048 51.9588C28.9924 56.0713 28.9924 62.7636 33.1048 66.8772C37.2183 70.9883 43.9876 71.0667 48.1013 66.9552L49.8269 65.2213C49.2216 63.8084 48.8826 62.2555 48.8826 60.6236C48.8827 57.8516 49.8905 55.3352 51.5054 53.3263ZM51.2268 60.6237C51.2268 65.4005 54.8122 69.2991 59.4311 69.8818V51.3655C54.8122 51.9482 51.2268 55.8466 51.2268 60.6237ZM61.7751 51.3655V69.8818C66.394 69.2991 69.9794 65.4005 69.9794 60.6236C69.9794 55.8466 66.3941 51.9482 61.7751 51.3655Z" fill="#FCA680"/>
</g>
<defs>
<clipPath id="clip0_104_2808">
<rect width="40" height="40" fill="white" transform="translate(30 30)"/>
</clipPath>
</defs>
</svg>
