<svg width="30" height="23" viewBox="0 0 30 23" fill="none" xmlns="http://www.w3.org/2000/svg">
<path d="M2.69663 21.0674C1.01124 19.2135 0 17.191 0 13.8202C0 7.92136 4.21349 2.69663 10.1124 0L11.6292 2.19101C6.06742 5.22473 4.88765 9.10114 4.55057 11.6292C5.39327 11.1236 6.57304 10.9551 7.75282 11.1236C10.7865 11.4607 13.1461 13.8202 13.1461 17.0225C13.1461 18.5394 12.4719 20.0562 11.4607 21.236C10.2809 22.4158 8.9326 22.9214 7.2472 22.9214C5.39327 22.9214 3.70787 22.0787 2.69663 21.0674ZM19.5506 21.0674C17.8652 19.2135 16.854 17.191 16.854 13.8202C16.854 7.92136 21.0674 2.69663 26.9663 0L28.4832 2.19101C22.9214 5.22473 21.7416 9.10114 21.4045 11.6292C22.2472 11.1236 23.427 10.9551 24.6068 11.1236C27.6405 11.4607 30 13.8202 30 17.0225C30 18.5394 29.3259 20.0562 28.3146 21.236C27.3034 22.4158 25.7866 22.9214 24.1012 22.9214C22.2472 22.9214 20.5618 22.0787 19.5506 21.0674Z" fill="#0FAD74" fill-opacity="0.5"/>
</svg>
