<svg width="68" height="68" viewBox="0 0 68 68" fill="none" xmlns="http://www.w3.org/2000/svg">
<g opacity="0.5">
<path d="M46.1282 13.432L45.9957 13.2994C44.5818 11.8855 42.24 11.8855 40.8261 13.2994L40.6936 13.432C41.4447 12.6809 42.4168 12.3274 43.3888 12.3274C44.405 12.2832 45.3771 12.6809 46.1282 13.432Z" fill="#FCA680" fill-opacity="0.6"/>
<path d="M54.5674 21.8712C56.0696 23.3734 56.0696 25.8036 54.5674 27.2616L52.9326 28.8965L54.6558 27.1733C56.0696 25.7594 56.0696 23.4176 54.6558 22.0037L54.0813 21.4293L49.2653 16.6133L54.5674 21.8712Z" fill="#FCA680" fill-opacity="0.6"/>
<path d="M43.1239 38.7495L41.7983 40.0751L40.031 41.8424L45.2005 36.6729L43.1239 38.7495Z" fill="#FCA680" fill-opacity="0.6"/>
<path d="M46.04 21.9595L51.6514 27.5709L53.2862 25.9361C54.0373 25.185 54.0373 23.9036 53.2862 23.1525L44.8028 14.6691C44.4494 14.3157 43.9192 14.0947 43.389 14.0947C42.8588 14.0947 42.3727 14.3157 41.9751 14.6691L26.7757 29.8685L32.3871 35.4799L33.0499 34.8171L38.6613 40.4285L40.4286 38.6612L38.2636 36.4962L39.5891 35.1706L41.7541 37.3357L43.8308 35.259L38.2194 29.6476L39.5449 28.3221L45.1563 33.9335L46.9237 32.1661L44.7587 30.0011L46.0842 28.6755L48.2492 30.8406L50.3259 28.7639L44.7145 23.1525L46.04 21.9595Z" fill="#FCA680" fill-opacity="0.6"/>
<path d="M46.4821 35.3915L48.2495 33.6242L46.4821 35.3915Z" fill="#FCA680" fill-opacity="0.6"/>
<path d="M49.5748 32.2987L51.6515 30.222L49.5748 32.2987Z" fill="#FCA680" fill-opacity="0.6"/>
<path d="M18.7782 57.7046L18.9107 57.8371C20.3246 59.251 22.6664 59.251 24.0803 57.8371L24.1687 57.7487C22.6664 59.1626 20.2804 59.1627 18.7782 57.7046Z" fill="#FCA680" fill-opacity="0.6"/>
<path d="M10.295 43.8307L10.1624 43.9633C8.74851 45.3772 8.74851 47.719 10.1624 49.1328L10.295 49.2654C8.83687 47.719 8.83687 45.333 10.295 43.8307Z" fill="#FCA680" fill-opacity="0.6"/>
<path d="M54.126 0L51.0773 3.04871L55.4515 7.42294L60.5769 12.5483L64.9511 16.9226L67.9998 13.8738L54.126 0Z" fill="#FCA680" fill-opacity="0.6"/>
<path d="M49.7071 13.2111L46.57 13.8738L49.3094 16.6133L54.1255 21.4294L54.8324 18.2923L60.5764 12.5483L55.451 7.42295L49.7071 13.2111Z" fill="#FCA680" fill-opacity="0.6"/>
<path d="M11.6204 45.1121C10.8693 45.8632 10.8693 47.1446 11.6204 47.8957L20.1038 56.3791C20.4572 56.7326 20.9874 56.9535 21.5177 56.9535C22.0479 56.9535 22.5339 56.7326 22.9316 56.3791L24.5664 54.7443L18.955 49.1329L20.2805 47.8073L25.8919 53.4187L27.6593 51.6514L25.4942 49.4864L26.8198 48.1608L28.9848 50.3258L30.7522 48.5585L25.1408 42.9471L26.4663 41.6216L32.0777 47.233L34.1544 45.1563L31.9893 42.9913L33.3149 41.6657L35.4799 43.8308L37.5565 41.7541L31.9451 36.1427L32.6079 35.4799L26.9965 29.8686L11.6204 45.1121Z" fill="#FCA680" fill-opacity="0.6"/>
<path d="M13.8735 52.8002L10.3388 49.2212L13.8735 52.8002Z" fill="#FCA680" fill-opacity="0.6"/>
<path d="M38.7495 43.168L36.6729 45.2446L35.3474 46.5701L33.2707 48.6468L31.9452 49.9723L30.1778 51.7397L28.8523 53.0652L27.0849 54.8326L25.7594 56.1581L24.1246 57.7929C23.3734 58.5441 22.4014 58.8975 21.4293 58.8975C20.4573 58.8975 19.4852 58.5441 18.7341 57.7929C20.2364 59.2952 22.6223 59.2952 24.1246 57.7929C24.1246 57.7929 24.1246 57.7929 24.1687 57.7487L39.3681 42.5494L38.7495 43.168Z" fill="#FCA680" fill-opacity="0.6"/>
<path d="M54.5675 27.3058C56.0698 25.8036 56.0698 23.3735 54.5675 21.9154L49.3096 16.6574L46.5702 13.918L46.0841 13.432C45.333 12.6809 44.361 12.3274 43.3889 12.3274C42.4169 12.3274 41.4448 12.6809 40.6937 13.432L10.2949 43.8307C8.79267 45.333 8.79267 47.7631 10.2949 49.2212L13.8739 52.8001L0.265105 66.4089C-0.0883684 66.7624 -0.0883684 67.3367 0.265105 67.7344C0.441842 67.9111 0.662763 67.9995 0.927869 67.9995C1.14879 67.9995 1.41389 67.9111 1.59063 67.7344L15.1994 54.1257L18.7783 57.7046C19.5294 58.4557 20.5015 58.8092 21.4735 58.8092C22.4456 58.8092 23.4176 58.4557 24.1688 57.7046L25.8036 56.0698L27.1291 54.7442L28.8965 52.9769L30.222 51.6514L31.9894 49.884L33.3149 48.5585L35.3916 46.4818L36.7171 45.1563L38.7938 43.0796L39.4565 42.4169L40.1193 41.7541L41.8866 39.9867L43.2122 38.6612L45.2888 36.5845L46.6144 35.259L48.3817 33.4916L49.7073 32.1661L51.7839 30.0895L53.1095 28.7639L54.5675 27.3058ZM48.2492 30.9731L46.0841 28.8081L44.7586 30.1336L46.9237 32.2987L45.1563 34.066L39.5449 28.4546L38.2194 29.7802L43.8308 35.3916L41.7541 37.4682L39.5891 35.3032L38.2635 36.6287L40.4286 38.7937L38.6612 40.5611L33.0498 34.9497L32.387 35.6125L31.7243 36.2752L37.3357 41.8866L35.259 43.9633L33.094 41.7983L31.7685 43.1238L33.9335 45.2888L31.8568 47.3655L26.2454 41.7541L24.9199 43.0796L30.5313 48.691L28.7639 50.4584L26.5989 48.2934L25.2734 49.6189L27.4384 51.7839L25.671 53.5513L20.0596 47.9399L18.7341 49.2654L24.3455 54.8768L22.7107 56.5116C22.3572 56.8651 21.827 57.086 21.2968 57.086C20.7666 57.086 20.2806 56.8651 19.8829 56.5116L11.3995 48.0282C10.6484 47.2771 10.6484 45.9958 11.3995 45.2446L26.5989 30.0453L41.7983 14.8459C42.1517 14.4924 42.682 14.2715 43.2122 14.2715C43.7424 14.2715 44.2284 14.4924 44.6261 14.8459L53.1095 23.3293C53.8606 24.0804 53.8606 25.3617 53.1095 26.1129L51.4746 27.7477L45.8632 22.1363L44.5377 23.4618L50.1491 29.0732L48.2492 30.9731Z" fill="white" fill-opacity="0.8"/>
</g>
</svg>
