<svg width="26" height="37" viewBox="0 0 26 37" fill="none" xmlns="http://www.w3.org/2000/svg">
<path d="M12.9999 0C8.16183 0 4.2286 3.93324 4.2286 8.7713C4.2286 13.517 7.94024 17.3579 12.7783 17.5241C12.926 17.5057 13.0738 17.5057 13.1846 17.5241C13.2215 17.5241 13.24 17.5241 13.2769 17.5241C13.2954 17.5241 13.2954 17.5241 13.3138 17.5241C18.0411 17.3579 21.7527 13.517 21.7712 8.7713C21.7712 3.93324 17.838 0 12.9999 0Z" fill="white"/>
<path d="M22.3807 22.4361C17.2287 19.0014 8.8267 19.0014 3.63778 22.4361C1.29261 24.0057 0 26.1293 0 28.4006C0 30.6719 1.29261 32.777 3.61931 34.3281C6.20454 36.0639 9.60226 36.9318 13 36.9318C16.3977 36.9318 19.7954 36.0639 22.3807 34.3281C24.7074 32.7585 26 30.6534 26 28.3636C25.9815 26.0923 24.7074 23.9872 22.3807 22.4361Z" fill="white"/>
</svg>
