<svg width="100" height="100" viewBox="0 0 100 100" fill="none" xmlns="http://www.w3.org/2000/svg">
<circle cx="50" cy="50" r="50" fill="#EBF8F3"/>
<path d="M43.8167 40.4833C43.1167 40.4833 42.5667 39.9167 42.5667 39.2333V34.5833C42.5667 33.9 43.1167 33.3333 43.8167 33.3333C44.5167 33.3333 45.0667 33.9 45.0667 34.5833V39.2167C45.0667 39.9167 44.5167 40.4833 43.8167 40.4833Z" fill="#01A368"/>
<path d="M56.1833 40.4833C55.4833 40.4833 54.9333 39.9167 54.9333 39.2333V34.5833C54.9333 33.8833 55.5 33.3333 56.1833 33.3333C56.8833 33.3333 57.4333 33.9 57.4333 34.5833V39.2167C57.4333 39.9167 56.8833 40.4833 56.1833 40.4833Z" fill="#01A368"/>
<path d="M62.6166 37.5C61.5166 36.6833 59.9333 37.4667 59.9333 38.85V39.0167C59.9333 40.9667 58.5333 42.7667 56.5833 42.9667C54.3333 43.2 52.4333 41.4333 52.4333 39.2333V37.5C52.4333 36.5833 51.6833 35.8333 50.7666 35.8333H49.2333C48.3166 35.8333 47.5666 36.5833 47.5666 37.5V39.2333C47.5666 40.55 46.8833 41.7167 45.85 42.3667C45.7 42.4667 45.5333 42.55 45.3666 42.6333C45.2166 42.7167 45.05 42.7833 44.8666 42.8333C44.6666 42.9 44.45 42.95 44.2166 42.9667C43.95 43 43.6833 43 43.4166 42.9667C43.1833 42.95 42.9666 42.9 42.7666 42.8333C42.6 42.7833 42.4333 42.7167 42.2666 42.6333C42.1 42.55 41.9333 42.4667 41.7833 42.3667C40.7333 41.6333 40.0666 40.3667 40.0666 39.0167V38.85C40.0666 37.5667 38.7 36.8 37.6166 37.35C37.6 37.3667 37.5833 37.3667 37.5666 37.3833C37.5 37.4167 37.45 37.45 37.3833 37.5C37.3333 37.55 37.2666 37.5833 37.2166 37.6333C36.75 38 36.3333 38.4167 35.9833 38.8667C35.8 39.0667 35.65 39.2833 35.5166 39.5C35.5 39.5167 35.4833 39.5333 35.4666 39.5667C35.3166 39.7833 35.1833 40.0333 35.0666 40.2667C35.0333 40.3 35.0166 40.3167 35.0166 40.35C34.9166 40.55 34.8166 40.75 34.75 40.9667C34.7 41.05 34.6833 41.1167 34.65 41.2C34.55 41.45 34.4833 41.7 34.4166 41.95C34.35 42.1833 34.3 42.4333 34.2666 42.6833C34.2333 42.8667 34.2166 43.05 34.2 43.25C34.1833 43.4833 34.1666 43.7167 34.1666 43.95V58.55C34.1666 63.0333 37.8 66.6667 42.2833 66.6667H57.7166C62.2 66.6667 65.8333 63.0333 65.8333 58.55V43.95C65.8333 41.3 64.5666 38.9833 62.6166 37.5ZM50 59.0333H42.2666C41.5833 59.0333 41.0166 58.4667 41.0166 57.7833C41.0166 57.0833 41.5833 56.5167 42.2666 56.5167H50C50.7 56.5167 51.25 57.0833 51.25 57.7833C51.25 58.4667 50.7 59.0333 50 59.0333ZM54.6333 52.85H42.2666C41.5833 52.85 41.0166 52.2833 41.0166 51.6C41.0166 50.9 41.5833 50.3333 42.2666 50.3333H54.6333C55.3333 50.3333 55.9 50.9 55.9 51.6C55.9 52.2833 55.3333 52.85 54.6333 52.85Z" fill="#01A368"/>
</svg>
