<svg width="100" height="100" viewBox="0 0 100 100" fill="none" xmlns="http://www.w3.org/2000/svg">
<circle cx="50" cy="50" r="50" fill="#EBF8F3"/>
<g clip-path="url(#clip0_104_2703)">
<path d="M59.1829 40.2065C61.4734 40.2065 63.3302 38.3497 63.3302 36.0592C63.3302 33.7687 61.4734 31.9119 59.1829 31.9119C56.8924 31.9119 55.0356 33.7687 55.0356 36.0592C55.0356 38.3497 56.8924 40.2065 59.1829 40.2065Z" fill="#0FAD74"/>
<path d="M69.7515 52.774L63.3688 41.8185C63.0631 41.2937 62.4422 40.9228 61.9744 40.9228H56.5414C56.0736 40.9228 55.4528 41.2937 55.147 41.8185L50.3381 50.0728L44.9997 40.9097C44.6599 40.3264 44.0464 40.0031 43.4165 40.0042C43.4049 40.0035 43.3935 40.0025 43.3817 40.0025H38.2493C38.2376 40.0025 38.2261 40.0035 38.2146 40.0042C37.5846 40.003 36.9712 40.3263 36.6314 40.9097L30.2486 51.8652C29.7408 52.7366 30.0357 53.8546 30.9071 54.3623C31.1855 54.5251 31.5022 54.6108 31.8247 54.6108C32.4532 54.6108 33.0649 54.2859 33.4042 53.7038L36.2194 48.8715V50.9404L34.9595 60.0194C34.8534 60.7841 35.4474 61.4664 36.2195 61.4664V67.0236C36.2195 68.0685 37.032 68.9584 38.0762 68.9956C39.1724 69.0346 40.0736 68.1574 40.0736 67.0698V61.4663H41.596V67.0235C41.596 68.0685 42.4085 68.9584 43.4529 68.9955C44.5492 69.0344 45.45 68.1573 45.45 67.0697V61.4662C46.2221 61.4662 46.8162 60.7839 46.7101 60.0192L45.45 50.94V48.9376L48.2266 53.7036C48.3211 53.8656 48.9766 55.011 49.4227 55.2709C49.7011 55.4337 50.0178 55.5194 50.3402 55.5195C50.9688 55.5195 51.5805 55.1947 51.9198 54.6124L54.6557 49.9163L54.6293 66.0796C54.6293 67.1439 55.492 68.0066 56.5562 68.0066C56.5607 68.0066 56.565 68.006 56.5694 68.0059C56.5739 68.0059 56.5782 68.0066 56.5827 68.0066C57.647 68.0066 58.5098 67.1439 58.5098 66.0796L58.4834 56.3269C58.4834 55.9214 58.7893 55.5674 59.194 55.5412C59.298 55.5343 59.4023 55.5488 59.5005 55.5838C59.5986 55.6189 59.6886 55.6737 59.7647 55.7449C59.8408 55.8161 59.9015 55.9022 59.943 55.9978C59.9845 56.0935 60.0059 56.1966 60.0059 56.3008V66.0334C60.0059 67.0782 60.8184 67.9681 61.8625 68.0054C62.9588 68.0444 63.8599 67.1673 63.8599 66.0796V49.9164L66.5958 54.6125C66.935 55.1947 67.5468 55.5195 68.1753 55.5195C68.4874 55.5195 68.8038 55.4394 69.0929 55.271C69.9643 54.7633 70.2591 53.6453 69.7515 52.774ZM34.3338 39.2154L35.3604 39.1238C35.9507 39.0713 36.3667 38.5195 36.2512 37.9381C36.075 37.0496 36.0141 35.8166 36.7517 35.0542C36.7509 35.0863 36.7493 35.1181 36.7493 35.1503C36.7493 37.4407 38.6061 39.2975 40.8965 39.2975C43.1868 39.2975 45.0436 37.4407 45.0436 35.1503C45.0436 35.1181 45.0419 35.0863 45.041 35.0542C45.7788 35.8167 45.7178 37.0496 45.5415 37.9381C45.4262 38.5195 45.8421 39.0713 46.4324 39.1238L47.4589 39.2154C48.0015 39.2637 48.4825 38.8688 48.5405 38.3272C48.6818 37.0119 48.6572 35.0387 47.9134 34.2551C46.8155 33.0986 45.4575 33.0869 44.5803 33.2463C43.8904 31.9141 42.5003 31.003 40.8966 31.003C39.2928 31.003 37.9026 31.914 37.2127 33.2463C36.3355 33.0869 34.9773 33.0986 33.8795 34.2551C33.1359 35.0387 33.1113 37.012 33.2522 38.3272C33.3104 38.8688 33.7913 39.2637 34.3338 39.2154Z" fill="#0FAD74"/>
</g>
<defs>
<clipPath id="clip0_104_2703">
<rect width="40" height="40" fill="white" transform="translate(30 30)"/>
</clipPath>
</defs>
</svg>
