<svg width="100" height="100" viewBox="0 0 100 100" fill="none" xmlns="http://www.w3.org/2000/svg">
<circle cx="50" cy="50" r="50" fill="#FFF3EE"/>
<g clip-path="url(#clip0_104_2789)">
<path fill-rule="evenodd" clip-rule="evenodd" d="M47.1502 46.805C47.9188 45.8629 51.0026 42.7542 55.955 46.1923C56.0028 46.2256 56.0437 46.268 56.0751 46.3172C56.1066 46.3663 56.1281 46.4211 56.1384 46.4785C56.1487 46.5359 56.1475 46.5948 56.1351 46.6517C56.1226 46.7087 56.099 46.7627 56.0657 46.8105C56.0324 46.8584 55.9899 46.8992 55.9408 46.9307C55.8917 46.9622 55.8369 46.9837 55.7795 46.9939C55.7221 47.0042 55.6632 47.0031 55.6063 46.9906C55.5493 46.9782 55.4953 46.9546 55.4475 46.9213C50.6446 43.5855 47.9336 47.2129 47.7084 47.5321C47.6599 47.6135 47.5866 47.6773 47.4993 47.7141C47.412 47.751 47.3152 47.759 47.223 47.737C45.4062 47.3061 43.6852 47.2175 41.9782 48.1088C40.5175 48.8719 39.3668 50.2634 38.6065 52.2077C38.1008 54.712 39.8559 56.7153 40.0598 56.9376C42.0409 58.7914 46.6593 59.1153 48.7871 57.6989C49.3149 57.3473 50.8863 56.3914 52.7715 56.0998C53.3085 55.9964 54.0237 55.9909 54.5662 56.0537C55.3755 56.1469 55.823 55.8599 56.3111 55.5461C57.5218 54.771 58.9345 53.8649 64.6804 56.3065C66.1827 55.9835 67.3951 55.5941 68.2625 54.9224C69.1225 54.2552 69.6614 53.2799 69.8358 51.7601C70.3894 46.9194 69.5331 42.8483 67.4496 39.6916C65.3337 36.4887 61.9436 34.2132 57.4738 33.022C51.7952 31.5087 45.9838 31.5677 41.132 33.046C36.4906 34.4615 32.7351 37.1799 30.8416 41.0646C30.1809 42.424 29.9015 43.9373 30.0333 45.443C30.1606 46.8521 30.6644 48.2159 31.5789 49.3324C33.5904 51.7897 36.9262 51.738 37.8683 51.6697C38.7098 49.6323 39.9694 48.1596 41.5685 47.3236C43.1427 46.5023 45.0288 46.3049 47.1502 46.805ZM54.366 50.3133C55.4622 50.5209 57.3714 50.8817 58.3901 49.2392C58.9299 48.37 59.5417 47.8034 60.0907 47.295C60.8704 46.5734 61.5053 45.9847 61.4656 44.7002C61.4618 44.6408 61.47 44.5812 61.4898 44.5251C61.5095 44.4689 61.5404 44.4173 61.5805 44.3733C61.6206 44.3294 61.6692 44.2939 61.7234 44.2692C61.7775 44.2444 61.8361 44.2308 61.8956 44.2292C61.9551 44.2276 62.0143 44.238 62.0697 44.2598C62.1251 44.2816 62.1756 44.3143 62.218 44.3561C62.2605 44.3978 62.2941 44.4476 62.3169 44.5027C62.3396 44.5577 62.3511 44.6167 62.3505 44.6762C62.4031 46.3593 61.6345 47.0708 60.6914 47.9437C60.1876 48.4106 59.6266 48.931 59.144 49.708C57.8041 51.8662 55.5176 51.4335 54.2027 51.1843C52.2917 50.8245 51.1189 49.9479 49.063 50.782C47.9557 51.2323 46.4858 51.5728 45.3019 51.2369C44.0774 50.89 42.8022 52.4494 43.1888 53.6785C43.2238 53.7908 43.2127 53.9125 43.1581 54.0167C43.1034 54.1208 43.0096 54.199 42.8972 54.234C42.7849 54.269 42.6633 54.2579 42.5591 54.2033C42.4549 54.1486 42.3767 54.0548 42.3417 53.9424C41.7484 52.0536 43.6308 49.8417 45.5409 50.3834C46.5227 50.6621 47.8173 50.3299 48.7299 49.9589C51.1567 48.9734 52.1856 49.9017 54.366 50.3133ZM64.1388 54.1399C63.7743 53.697 63.5298 53.0031 63.6414 52.431C63.6996 52.1348 63.8518 51.8976 64.1046 51.7721C64.7234 51.4665 65.2894 51.064 65.7813 50.5799C65.8661 50.5046 65.9765 50.4644 66.09 50.4678C66.2034 50.4712 66.3113 50.5178 66.3914 50.5981C66.4716 50.6784 66.5181 50.7864 66.5213 50.8998C66.5245 51.0132 66.4842 51.1236 66.4087 51.2083C66.071 51.5425 65.7006 51.842 65.3033 52.1025C64.6435 52.538 64.351 52.3479 64.554 53.0547C64.6675 53.4497 64.9683 53.8898 65.4214 53.8898C65.4814 53.8871 65.5414 53.8966 65.5977 53.9176C65.654 53.9387 65.7054 53.971 65.7489 54.0126C65.7924 54.0541 65.827 54.104 65.8506 54.1593C65.8742 54.2145 65.8864 54.274 65.8864 54.3341C65.8864 54.3942 65.8742 54.4537 65.8506 54.509C65.827 54.5643 65.7924 54.6142 65.7489 54.6557C65.7054 54.6972 65.654 54.7295 65.5977 54.7506C65.5414 54.7717 65.4814 54.7812 65.4214 54.7784C64.8779 54.7784 64.4461 54.5118 64.1388 54.1399ZM59.3184 43.9989C59.2036 44.0261 59.0827 44.0065 58.9824 43.9446C58.882 43.8826 58.8104 43.7834 58.7832 43.6686C57.9416 40.1382 54.7139 42.7117 54.7047 42.7182C54.6121 42.791 54.4945 42.8241 54.3776 42.8101C54.2607 42.7962 54.1541 42.7364 54.0813 42.6439C54.0085 42.5514 53.9755 42.4337 53.9894 42.3168C54.0033 42.2 54.0631 42.0934 54.1556 42.0206C54.1685 42.0114 58.4805 38.5714 59.6478 43.4637C59.6614 43.5205 59.6636 43.5794 59.6544 43.6371C59.6452 43.6947 59.6247 43.75 59.5941 43.7997C59.5635 43.8494 59.5234 43.8926 59.4761 43.9268C59.4288 43.961 59.3752 43.9855 59.3184 43.9989ZM64.1655 43.6751C64.2102 43.6376 64.2617 43.6093 64.3173 43.5918C64.3729 43.5743 64.4313 43.568 64.4894 43.5731C64.5474 43.5783 64.6038 43.5948 64.6555 43.6218C64.7071 43.6488 64.7529 43.6857 64.7902 43.7304C64.7939 43.735 65.904 45.0296 65.785 46.7801C66.2426 46.7865 66.7963 47.1529 67.2632 48.5065C67.3015 48.6179 67.294 48.7399 67.2423 48.8457C67.1907 48.9515 67.0991 49.0325 66.9877 49.0708C66.8764 49.1091 66.7544 49.1016 66.6486 49.0499C66.5428 48.9983 66.4618 48.9067 66.4235 48.7954C65.9806 47.5127 65.6189 47.7416 65.5441 47.808C65.4796 47.888 65.3894 47.9431 65.2888 47.9641C65.1882 47.9851 65.0835 47.9706 64.9924 47.9231C64.9013 47.8755 64.8294 47.798 64.789 47.7035C64.7487 47.609 64.7422 47.5035 64.7709 47.4048C65.0772 46.3464 64.817 45.1459 64.1102 44.2998C64.0727 44.2551 64.0444 44.2036 64.027 44.148C64.0095 44.0924 64.0031 44.0339 64.0083 43.9759C64.0134 43.9179 64.0299 43.8614 64.0569 43.8098C64.0839 43.7582 64.1208 43.7124 64.1655 43.6751ZM48.2279 53.4894C48.2933 53.3913 48.3949 53.3231 48.5105 53.3C48.6261 53.2768 48.7462 53.3004 48.8443 53.3657C49.9885 54.1288 51.7362 52.1357 53.2089 52.6736C54.5792 53.1747 56.1248 53.1793 57.4858 52.6497C57.5944 52.6114 57.7136 52.617 57.8182 52.6652C57.9227 52.7134 58.0044 52.8004 58.0459 52.9078C58.0875 53.0151 58.0855 53.1345 58.0406 53.2404C57.9956 53.3464 57.9111 53.4307 57.8051 53.4755C56.2466 54.0818 54.4758 54.0808 52.9071 53.5069C51.8967 53.1378 50.03 55.2241 48.3516 54.1057C48.2535 54.0404 48.1854 53.9387 48.1622 53.8231C48.139 53.7076 48.1626 53.5875 48.2279 53.4894ZM64.3298 42.326C64.2225 42.3732 64.1008 42.3759 63.9915 42.3335C63.8822 42.2911 63.7941 42.2071 63.7466 42.0999C62.6596 39.6547 60.684 39.5227 60.6785 39.5227C60.561 39.514 60.4518 39.459 60.3749 39.3698C60.298 39.2806 60.2596 39.1645 60.2683 39.047C60.277 38.9296 60.332 38.8204 60.4212 38.7434C60.5104 38.6665 60.6265 38.6282 60.744 38.6369C60.7514 38.6369 63.2502 38.8048 64.5549 41.7419C64.6025 41.8492 64.6054 41.971 64.5632 42.0805C64.521 42.1901 64.437 42.2783 64.3298 42.326ZM52.1708 42.7182C52.054 42.7292 51.9375 42.6934 51.847 42.6187C51.7565 42.544 51.6994 42.4364 51.6882 42.3195C51.6873 42.3029 51.2185 37.9042 53.9517 36.7895C53.6841 35.1046 55.357 34.6026 55.3635 34.6008C55.4758 34.5659 55.5974 34.5771 55.7015 34.6319C55.8056 34.6866 55.8836 34.7805 55.9185 34.8928C55.9534 35.0052 55.9422 35.1268 55.8874 35.2308C55.8327 35.3349 55.7388 35.413 55.6265 35.4479C55.6237 35.4488 54.7729 35.7035 54.8265 36.5672C55.596 36.4721 56.552 36.5856 57.734 36.999C57.845 37.0377 57.9361 37.1188 57.9872 37.2247C58.0383 37.3305 58.0454 37.4523 58.0067 37.5633C57.968 37.6742 57.8868 37.7653 57.781 37.8165C57.6752 37.8676 57.5534 37.8746 57.4424 37.8359C51.8967 35.8982 52.5685 42.218 52.5703 42.2356C52.5758 42.2935 52.5698 42.3519 52.5527 42.4075C52.5356 42.4631 52.5077 42.5148 52.4706 42.5597C52.4334 42.6045 52.3879 42.6415 52.3364 42.6687C52.285 42.6959 52.2287 42.7127 52.1708 42.7182ZM40.3283 42.636C40.3002 42.7502 40.2278 42.8485 40.1272 42.9093C40.0266 42.9702 39.9059 42.9885 39.7917 42.9604C39.6776 42.9322 39.5793 42.8599 39.5184 42.7593C39.4576 42.6587 39.4392 42.538 39.4674 42.4238C39.4702 42.4146 40.3015 38.8436 44.3533 40.045C44.4092 40.0613 44.4613 40.0885 44.5066 40.125C44.552 40.1615 44.5897 40.2066 44.6176 40.2577C44.6456 40.3087 44.6632 40.3648 44.6694 40.4227C44.6757 40.4805 44.6705 40.5391 44.6541 40.5949C44.6378 40.6508 44.6106 40.7029 44.5741 40.7482C44.5376 40.7936 44.4925 40.8313 44.4415 40.8592C44.3904 40.8872 44.3343 40.9048 44.2764 40.911C44.2186 40.9173 44.16 40.9121 44.1042 40.8958C40.9502 39.961 40.3302 42.6287 40.3283 42.636ZM36.2941 41.6192C36.2747 41.7352 36.2101 41.8388 36.1144 41.9071C36.0187 41.9755 35.8998 42.003 35.7838 41.9837C35.6678 41.9643 35.5642 41.8997 35.4959 41.804C35.4275 41.7083 35.4 41.5894 35.4193 41.4734C35.4212 41.4595 36.1704 36.7397 40.1336 36.6124C40.2517 35.5918 41.1117 33.5073 46.4765 35.446C46.5313 35.4659 46.5815 35.4964 46.6245 35.5357C46.6674 35.575 46.7022 35.6223 46.7268 35.6751C46.7515 35.7278 46.7655 35.7849 46.768 35.843C46.7706 35.9012 46.7617 35.9593 46.7418 36.014C46.722 36.0687 46.6915 36.119 46.6522 36.1619C46.6129 36.2048 46.5655 36.2396 46.5128 36.2643C46.4601 36.2889 46.403 36.3029 46.3448 36.3055C46.2867 36.308 46.2286 36.2991 46.1739 36.2793C40.9327 34.3849 40.9862 36.7342 41.0065 36.9889C41.0173 37.0537 41.0134 37.1201 40.9953 37.1833C40.9772 37.2464 40.9452 37.3048 40.9018 37.3541C40.8583 37.4034 40.8044 37.4424 40.744 37.4683C40.6836 37.4942 40.6182 37.5063 40.5525 37.5037C38.1017 37.4216 36.665 39.3981 36.2941 41.6192ZM47.1972 41.9929C46.6085 39.9333 46.7331 39.818 47.7066 38.9202L47.9585 38.6858C49.7412 36.9972 49.8732 34.3028 49.8732 34.2935C49.8798 34.1761 49.9328 34.066 50.0205 33.9876C50.1082 33.9092 50.2235 33.8689 50.341 33.8755C50.4585 33.8821 50.5685 33.9351 50.6469 34.0229C50.7253 34.1106 50.7656 34.2259 50.759 34.3434C50.759 34.3517 50.6104 37.3949 48.5693 39.328C48.4604 39.4314 48.3802 39.5052 48.3073 39.5725C47.6918 40.1409 47.6124 40.2138 48.0517 41.7502C48.0839 41.8635 48.0697 41.985 48.0123 42.0879C47.955 42.1907 47.8591 42.2666 47.7458 42.2988C47.6325 42.331 47.511 42.3168 47.4081 42.2595C47.3053 42.2021 47.2294 42.1062 47.1972 41.9929ZM35.6343 48.2851C35.5779 48.3885 35.4828 48.4653 35.3699 48.4987C35.2569 48.5321 35.1353 48.5193 35.0318 48.4632C35.0225 48.4586 31.7791 46.7506 33.966 43.1325C34.0268 43.0317 34.1252 42.9591 34.2395 42.9308C34.3538 42.9025 34.4746 42.9208 34.5755 42.9816C34.6763 43.0424 34.7488 43.1408 34.7771 43.2551C34.8054 43.3694 34.7871 43.4903 34.7263 43.5911C33.0257 46.4045 35.4488 47.6788 35.4553 47.6825C35.6712 47.7988 35.7506 48.0701 35.6343 48.2851Z" fill="#FCA680"/>
<path fill-rule="evenodd" clip-rule="evenodd" d="M64.1334 59.6644C64.8005 58.5478 64.4212 57.6805 64.6372 57.2135C64.5656 57.2141 64.495 57.1973 64.4314 57.1646C59.0343 54.855 57.8255 55.6301 56.7911 56.2936C56.1636 56.6959 55.5869 57.065 54.4658 56.9358C54.0374 56.8881 53.605 56.8887 53.1767 56.9376C52.3056 59.6939 56.7449 62.1659 57.4868 62.5572C61.5008 62.2683 63.3573 60.9645 64.1334 59.6644Z" fill="#FCA680"/>
<path fill-rule="evenodd" clip-rule="evenodd" d="M55.8597 62.6144C54.2514 61.5495 51.8089 59.5047 52.2241 57.1111C50.8788 57.4479 49.7844 58.1012 49.3359 58.3947C49.5205 59.6902 49.5768 60.4459 49.6137 60.9396C49.6478 61.3945 49.6635 61.5993 49.7456 61.7839C49.8241 61.9574 49.9763 62.1751 50.2522 62.571C50.8059 63.3646 51.8273 64.828 53.7522 68.089C54.8438 68.0493 55.4039 67.4089 55.6309 67.0583C55.2581 66.5656 54.6463 65.5856 54.3003 64.7358C53.9783 63.9422 53.7024 62.5691 54.973 62.6042C55.2775 62.6125 55.5728 62.6153 55.8597 62.6144Z" fill="#FCA680"/>
</g>
<defs>
<clipPath id="clip0_104_2789">
<rect width="40" height="40" fill="white" transform="translate(30 30)"/>
</clipPath>
</defs>
</svg>
