<svg width="58" height="58" viewBox="0 0 58 58" fill="none" xmlns="http://www.w3.org/2000/svg">
<rect width="42" height="42" rx="21" fill="#FCA680" fill-opacity="0.08"/>
<path d="M28.9525 31.2502C28.8898 31.1993 28.8176 31.1613 28.7402 31.1383C28.6627 31.1152 28.5815 31.1077 28.5011 31.1161C28.4208 31.1245 28.3429 31.1486 28.2718 31.1871C28.2008 31.2256 28.138 31.2778 28.0872 31.3405C27.8386 31.647 27.5091 31.8157 27.1591 31.8157C26.8092 31.8157 26.4797 31.6469 26.2311 31.3405C26.1279 31.2152 25.9793 31.1357 25.8178 31.1195C25.6562 31.1032 25.4948 31.1515 25.3687 31.2538C25.2426 31.3561 25.162 31.504 25.1445 31.6655C25.1271 31.8269 25.1741 31.9887 25.2754 32.1156C25.7551 32.707 26.4417 33.0462 27.1591 33.0462C27.8766 33.0462 28.5631 32.707 29.0428 32.1156C29.1456 31.9888 29.1938 31.8265 29.1769 31.6642C29.1599 31.5019 29.0792 31.353 28.9525 31.2502ZM24.3474 27.5981C24.1842 27.5981 24.0278 27.663 23.9124 27.7783C23.797 27.8937 23.7322 28.0502 23.7322 28.2134V28.9163C23.7322 29.0795 23.797 29.236 23.9124 29.3514C24.0278 29.4667 24.1842 29.5316 24.3474 29.5316C24.5106 29.5316 24.6671 29.4667 24.7825 29.3514C24.8978 29.236 24.9627 29.0795 24.9627 28.9163V28.2134C24.9627 28.0502 24.8978 27.8937 24.7825 27.7783C24.6671 27.663 24.5106 27.5981 24.3474 27.5981ZM29.9709 27.5981C29.8077 27.5981 29.6512 27.663 29.5358 27.7783C29.4204 27.8937 29.3556 28.0502 29.3556 28.2134V28.9163C29.3556 29.0795 29.4204 29.236 29.5358 29.3514C29.6512 29.4667 29.8077 29.5316 29.9709 29.5316C30.134 29.5316 30.2905 29.4667 30.4059 29.3514C30.5213 29.236 30.5861 29.0795 30.5861 28.9163V28.2134C30.5861 28.0502 30.5213 27.8937 30.4059 27.7783C30.2905 27.663 30.134 27.5981 29.9709 27.5981ZM49.3374 34.7648C49.2747 34.7139 49.2025 34.6758 49.125 34.6528C49.0476 34.6298 48.9664 34.6223 48.886 34.6307C48.8057 34.6391 48.7277 34.6632 48.6567 34.7017C48.5857 34.7402 48.5229 34.7923 48.472 34.8551C48.2235 35.1615 47.8939 35.3303 47.544 35.3303C47.1941 35.3303 46.8645 35.1615 46.616 34.8551C46.5655 34.7912 46.5028 34.7379 46.4316 34.6984C46.3603 34.659 46.282 34.634 46.201 34.625C46.1201 34.6161 46.0381 34.6233 45.96 34.6462C45.8818 34.6692 45.809 34.7074 45.7457 34.7587C45.6825 34.81 45.63 34.8734 45.5915 34.9451C45.5529 35.0168 45.5289 35.0955 45.521 35.1766C45.513 35.2576 45.5213 35.3395 45.5452 35.4173C45.5691 35.4952 45.6083 35.5675 45.6604 35.6301C46.14 36.2216 46.8266 36.5608 47.544 36.5608C48.2615 36.5608 48.948 36.2216 49.4276 35.6301C49.5304 35.5034 49.5786 35.341 49.5617 35.1788C49.5448 35.0165 49.4641 34.8676 49.3374 34.7648ZM44.7323 31.1128C44.5691 31.1128 44.4126 31.1776 44.2973 31.293C44.1819 31.4084 44.1171 31.5649 44.1171 31.728V32.431C44.1171 32.5941 44.1819 32.7506 44.2973 32.866C44.4126 32.9814 44.5691 33.0462 44.7323 33.0462C44.8955 33.0462 45.052 32.9814 45.1673 32.866C45.2827 32.7506 45.3475 32.5941 45.3475 32.431V31.728C45.3475 31.5649 45.2827 31.4084 45.1673 31.293C45.052 31.1776 44.8955 31.1128 44.7323 31.1128ZM50.3557 31.1128C50.1926 31.1128 50.0361 31.1776 49.9207 31.293C49.8053 31.4084 49.7405 31.5649 49.7405 31.728V32.431C49.7405 32.5941 49.8053 32.7506 49.9207 32.866C50.0361 32.9814 50.1926 33.0462 50.3557 33.0462C50.5189 33.0462 50.6754 32.9814 50.7908 32.866C50.9062 32.7506 50.971 32.5941 50.971 32.431V31.728C50.971 31.5649 50.9062 31.4084 50.7908 31.293C50.6754 31.1776 50.5189 31.1128 50.3557 31.1128Z" fill="#FCA680"/>
<path d="M56.2879 43.2794L51.468 41.3515C51.4419 41.341 51.4178 41.3277 51.3933 41.3149C54.7224 40.5575 56.2991 39.2907 56.369 39.2334C56.4509 39.1663 56.514 39.0793 56.5524 38.9807C56.5908 38.8821 56.6031 38.7752 56.5882 38.6705C56.5812 38.6218 55.8914 33.7375 55.8914 28.9166C55.8914 24.3138 52.1467 20.5691 47.5439 20.5691C42.9411 20.5691 39.1965 24.3137 39.1965 28.9166C39.1965 30.1777 39.1393 31.7203 39.0461 33.1805L37.703 33.8521L33.7605 31.881C33.7492 31.8753 33.7373 31.8712 33.7257 31.8663C33.9171 31.3101 34.0365 30.7317 34.0809 30.1453C34.9056 29.8905 35.5065 29.1209 35.5065 28.2137C35.5065 27.6026 35.2335 27.0545 34.8036 26.6835V22.5901C34.8036 21.4593 34.2322 20.4013 33.2952 19.7655C32.9778 18.5859 31.9179 17.7573 30.6737 17.7573H25.0502C21.9978 17.7573 19.5145 20.2407 19.5145 23.2931V26.6834C19.0846 27.0543 18.8116 27.6025 18.8116 28.2136C18.8116 29.1209 19.4124 29.8904 20.2371 30.1452C20.3925 32.2107 21.4569 34.0254 23.0291 35.1934V36.8939L17.9412 38.4203C16.7801 38.7687 16 39.8171 16 41.0294V47.8955C16 48.0587 16.0648 48.2152 16.1802 48.3306C16.2956 48.446 16.4521 48.5108 16.6152 48.5108H16.7029V55.6278C16.7029 55.7909 16.7677 55.9474 16.8831 56.0628C16.9985 56.1782 17.155 56.243 17.3182 56.243C17.4813 56.243 17.6378 56.1782 17.7532 56.0628C17.8686 55.9474 17.9334 55.7909 17.9334 55.6278V48.5108H20.2176V55.6278C20.2176 55.7909 20.2824 55.9474 20.3978 56.0628C20.5132 56.1782 20.6696 56.243 20.8328 56.243C20.996 56.243 21.1525 56.1782 21.2679 56.0628C21.3832 55.9474 21.4481 55.7909 21.4481 55.6278V45.0194C21.4486 44.4816 21.2893 43.9557 20.9906 43.5084L19.9389 41.9309C19.8476 41.7971 19.7072 41.7048 19.5481 41.6739C19.3891 41.643 19.2243 41.676 19.0895 41.7659C18.9547 41.8558 18.8608 41.9952 18.8282 42.1538C18.7955 42.3125 18.8268 42.4777 18.9152 42.6134L19.9668 44.191C20.1309 44.4371 20.2177 44.7235 20.2177 45.0194V47.2803H17.2305V41.0294C17.2305 40.3647 17.6582 39.7899 18.2949 39.5988L20.407 38.9652C21.1425 42.0449 23.9357 44.2932 27.1592 44.2932C28.3172 44.2932 29.4419 44.0076 30.449 43.4643C30.8171 43.9664 31.4107 44.2932 32.0796 44.2932H32.1673V44.3809C32.1673 46.4434 33.302 48.2448 34.979 49.1971V50.2006C34.979 50.2384 34.9549 50.2718 34.9191 50.2838L32.6241 51.0488C32.0814 51.2292 31.6093 51.5759 31.275 52.0398C30.9406 52.5038 30.7609 53.0612 30.7614 53.6331V55.6278C30.7614 55.7909 30.8263 55.9474 30.9416 56.0628C31.057 56.1782 31.2135 56.243 31.3767 56.243C31.5399 56.243 31.6963 56.1782 31.8117 56.0628C31.9271 55.9474 31.9919 55.7909 31.9919 55.6278V53.6331C31.9916 53.3196 32.0901 53.0139 32.2735 52.7595C32.4568 52.5052 32.7156 52.3151 33.0131 52.2162L33.688 51.9912C34.5808 53.3228 36.0824 54.1343 37.703 54.1343C38.4968 54.1344 39.2784 53.939 39.9787 53.5652C40.679 53.1914 41.2764 52.6509 41.7181 51.9913L42.3928 52.2162C42.6903 52.3151 42.9491 52.5052 43.1325 52.7596C43.3158 53.0139 43.4143 53.3196 43.414 53.6331V55.6278C43.414 55.7909 43.4788 55.9474 43.5942 56.0628C43.7096 56.1782 43.8661 56.243 44.0293 56.243C44.1924 56.243 44.3489 56.1782 44.4643 56.0628C44.5797 55.9474 44.6445 55.7909 44.6445 55.6278V53.6331C44.645 53.0612 44.4653 52.5038 44.131 52.0399C43.7966 51.576 43.3246 51.2292 42.7819 51.0489L40.4869 50.2839C40.4694 50.2781 40.4542 50.2669 40.4435 50.252C40.4327 50.2371 40.4269 50.2191 40.4269 50.2007V49.1972C41.6826 48.4842 42.633 47.2951 43.0317 45.8765C44.1943 47.093 45.8181 47.808 47.5438 47.808C50.2683 47.808 52.6587 46.0469 53.4822 43.4826L55.8307 44.422C56.401 44.6501 56.7695 45.1945 56.7695 45.8087V48.6862H54.4853V47.8956C54.4853 47.7324 54.4205 47.576 54.3051 47.4606C54.1898 47.3452 54.0333 47.2804 53.8701 47.2804C53.7069 47.2804 53.5504 47.3452 53.4351 47.4606C53.3197 47.576 53.2549 47.7324 53.2549 47.8956V55.6278C53.2549 55.791 53.3197 55.9475 53.4351 56.0629C53.5504 56.1783 53.7069 56.2431 53.8701 56.2431C54.0333 56.2431 54.1898 56.1783 54.3051 56.0629C54.4205 55.9475 54.4853 55.791 54.4853 55.6278V49.9167H56.0666V55.6278C56.0666 55.791 56.1314 55.9475 56.2468 56.0629C56.3622 56.1783 56.5187 56.2431 56.6818 56.2431C56.845 56.2431 57.0015 56.1783 57.1169 56.0629C57.2322 55.9475 57.2971 55.791 57.2971 55.6278V49.9167H57.3848C57.5479 49.9167 57.7044 49.8518 57.8198 49.7365C57.9351 49.6211 58 49.4646 58 49.3015V45.8087C58.0002 44.6883 57.3282 43.6955 56.2879 43.2794ZM40.4271 28.9165C40.4271 24.9922 43.6198 21.7995 47.5441 21.7995C51.4684 21.7995 54.661 24.9922 54.661 28.9165C54.661 33.0479 55.1585 37.2242 55.3202 38.4715C54.7689 38.8322 53.3573 39.6266 50.971 40.1486V39.1696C51.2991 38.984 51.6115 38.7719 51.9049 38.5352C53.1155 37.5567 53.971 36.1862 54.3136 34.6763C54.4281 34.1702 54.4858 33.653 54.4857 33.1342C54.4857 29.6568 51.9708 29.1575 49.5388 28.6747C47.9912 28.3675 46.391 28.0498 45.1168 27.0304C45.0263 26.958 44.9171 26.9126 44.802 26.8995C44.6869 26.8864 44.5703 26.9061 44.4659 26.9563C44.3614 27.0065 44.2733 27.0852 44.2116 27.1833C44.1499 27.2814 44.1172 27.3949 44.1172 27.5108C44.1172 27.5271 44.0904 29.146 41.7715 29.7257C41.6132 29.7652 41.4771 29.8661 41.3931 30.006C41.3092 30.1459 41.2842 30.3135 41.3238 30.4718C41.3634 30.6301 41.4642 30.7662 41.6042 30.8502C41.7441 30.9341 41.9116 30.9591 42.0699 30.9195C44.0108 30.4343 44.8026 29.3455 45.1254 28.5274C46.4596 29.3181 47.9541 29.6147 49.2991 29.8817C51.8986 30.3978 53.2552 30.7768 53.2552 33.1343C53.2552 33.563 53.2075 33.9902 53.1136 34.4041C52.8318 35.6456 52.1279 36.7729 51.1313 37.5784C50.1059 38.4073 48.8654 38.8453 47.5441 38.8453C46.3395 38.8453 45.1931 38.4758 44.2202 37.7777C43.861 36.7967 43.2853 35.9093 42.5359 35.1814V32.4313C42.5359 32.3264 42.5091 32.2233 42.458 32.1317C42.407 32.0401 42.3333 31.9631 42.2441 31.9079C42.1549 31.8528 42.0531 31.8214 41.9483 31.8167C41.8435 31.812 41.7393 31.8341 41.6455 31.8811L40.3172 32.5452C40.39 31.2639 40.4271 30.0458 40.4271 28.9165ZM41.3054 33.4266V35.6532L39.0787 34.54L41.3054 33.4266ZM34.1007 33.4266L36.3273 34.54L34.1007 35.6532V33.4266ZM30.7614 40.1633V40.7476C30.3209 41.128 30.0585 41.6847 30.0585 42.272C29.1823 42.7897 28.1868 43.0627 27.1591 43.0627C24.4829 43.0627 22.1676 41.1794 21.5883 38.6109L23.1083 38.1548C23.4833 40.0488 25.1568 41.4815 27.1592 41.4815C28.7492 41.4815 30.1313 40.5777 30.8212 39.2574C30.7814 39.5578 30.7615 39.8604 30.7614 40.1633ZM24.2598 37.3506V35.9255C25.1426 36.3332 26.1247 36.561 27.1592 36.561C28.1603 36.562 29.1497 36.3452 30.0586 35.9255V37.3515C30.0586 38.9502 28.758 40.2509 27.1592 40.2509C25.5631 40.2509 24.2643 38.9545 24.2599 37.3594L24.2598 37.3506ZM27.1592 35.3305C24.01 35.3305 21.4481 32.7686 21.4481 29.6194C21.4481 29.4563 21.3832 29.2998 21.2679 29.1844C21.1525 29.069 20.996 29.0042 20.8328 29.0042C20.3969 29.0042 20.0422 28.6495 20.0422 28.2136C20.0422 27.7777 20.3968 27.423 20.8328 27.423H22.2387C22.3678 27.423 22.4936 27.3823 22.5984 27.3068C22.7032 27.2313 22.7815 27.1248 22.8223 27.0023L23.387 25.3082C24.8009 25.2763 29.1837 25.0775 31.6518 23.8434C31.7978 23.7704 31.9087 23.6425 31.9603 23.4877C32.0119 23.3329 31.9999 23.164 31.927 23.018C31.8908 22.9458 31.8408 22.8813 31.7798 22.8284C31.7188 22.7754 31.6479 22.735 31.5712 22.7095C31.4946 22.6839 31.4137 22.6737 31.3331 22.6795C31.2525 22.6852 31.1738 22.7067 31.1015 22.7429C28.4535 24.0669 22.9962 24.0838 22.9414 24.0838C22.8123 24.0838 22.6865 24.1244 22.5817 24.2C22.477 24.2755 22.3987 24.382 22.3579 24.5045L21.7952 26.1926H20.8328C20.8035 26.1926 20.7742 26.1936 20.7451 26.1948V23.2931C20.7451 20.9192 22.6765 18.9878 25.0504 18.9878H30.6738C31.4085 18.9878 32.0257 19.5173 32.1416 20.2467C32.1562 20.3382 32.1912 20.4253 32.2441 20.5014C32.2969 20.5774 32.3663 20.6406 32.447 20.6861C33.1417 21.0779 33.5732 21.8074 33.5732 22.5901V26.1946C33.5441 26.1933 33.515 26.1924 33.4856 26.1924H32.7826C32.6195 26.1924 32.463 26.2572 32.3476 26.3726C32.2322 26.488 32.1674 26.6445 32.1674 26.8076C32.1674 26.9708 32.2322 27.1273 32.3476 27.2427C32.463 27.3581 32.6195 27.4229 32.7826 27.4229H33.4856C33.9215 27.4229 34.2762 27.7775 34.2762 28.2135C34.2762 28.6495 33.9216 29.0041 33.4856 29.0041C33.3224 29.0041 33.1659 29.0689 33.0505 29.1843C32.9351 29.2997 32.8703 29.4562 32.8703 29.6194C32.8703 32.7685 30.3084 35.3305 27.1592 35.3305ZM31.289 37.3517V35.1934C31.9017 34.7384 32.4358 34.1862 32.8702 33.5587V35.1814C32.1869 35.845 31.6472 36.6419 31.2846 37.5228C31.287 37.4659 31.289 37.409 31.289 37.3517ZM40.4904 51.582C39.8131 52.4094 38.7956 52.9037 37.7031 52.9037C36.6119 52.9037 35.5937 52.4091 34.9161 51.5819L35.3082 51.4512C35.5708 51.3639 35.7993 51.1962 35.9611 50.9717C36.1229 50.7472 36.2098 50.4774 36.2096 50.2007V49.7103C36.6956 49.8471 37.1982 49.9166 37.7031 49.9167C38.2081 49.9166 38.7106 49.8471 39.1967 49.7103V50.2007C39.1964 50.4774 39.2833 50.7472 39.4451 50.9717C39.6069 51.1961 39.8354 51.3639 40.098 51.4511L40.4904 51.582ZM42.6236 43.0627C42.4605 43.0627 42.304 43.1275 42.1886 43.2429C42.0732 43.3583 42.0084 43.5148 42.0084 43.678V44.3809C42.0083 46.7548 40.077 48.6862 37.7031 48.6862C35.3291 48.6862 33.3979 46.7548 33.3979 44.3809V43.678C33.3979 43.5148 33.333 43.3583 33.2177 43.2429C33.1023 43.1275 32.9458 43.0627 32.7826 43.0627H32.0797C31.6438 43.0627 31.2891 42.7081 31.2891 42.2721C31.2891 41.9915 31.4376 41.7377 31.6862 41.593C31.7406 41.5609 31.7898 41.5206 31.8319 41.4734C33.3527 41.4294 38.2828 41.1432 41.5229 39.2916C41.6646 39.2107 41.7683 39.0768 41.8113 38.9193C41.8542 38.7619 41.8328 38.5939 41.7519 38.4522C41.6709 38.3105 41.537 38.2068 41.3796 38.1639C41.2222 38.1209 41.0541 38.1423 40.9125 38.2233C38.074 39.8452 33.6138 40.17 31.992 40.2348V40.1633C31.992 39.019 32.3385 37.9109 32.9664 36.9766C33.0159 37.0558 33.0828 37.1227 33.1621 37.172C33.2513 37.2271 33.3531 37.2585 33.4579 37.2633C33.5627 37.268 33.6669 37.2458 33.7607 37.1989L37.7031 35.2277L41.6456 37.1989C41.7394 37.2458 41.8436 37.268 41.9484 37.2632C42.0531 37.2585 42.1549 37.2271 42.2442 37.172C42.3234 37.1226 42.3903 37.0558 42.4398 36.9766C43.0677 37.9109 43.4142 39.019 43.4142 40.1633V41.0612C43.4142 41.1689 43.4424 41.2746 43.4961 41.3679C43.5497 41.4612 43.627 41.5388 43.72 41.593C43.9687 41.7377 44.1172 41.9915 44.1172 42.2721C44.1172 42.708 43.7625 43.0627 43.3266 43.0627H42.6236ZM47.5441 46.5774C45.8408 46.5774 44.2605 45.7102 43.3406 44.2929C44.4485 44.2852 45.3476 43.3818 45.3476 42.2722C45.3476 41.6848 45.0852 41.1281 44.6447 40.7477V40.1634C44.6447 39.9157 44.6313 39.6695 44.6051 39.4255C45.5174 39.8532 46.5134 40.0756 47.5441 40.0756C48.2943 40.0756 49.0361 39.9513 49.7406 39.7164V40.6174C49.7406 41.4486 50.2392 42.1852 51.011 42.4939L52.3377 43.0246C51.7018 45.1269 49.7602 46.5774 47.5441 46.5774Z" fill="#FCA680"/>
<path d="M39.4966 45.3088C39.4338 45.2579 39.3617 45.2199 39.2842 45.1969C39.2068 45.1738 39.1256 45.1663 39.0452 45.1747C38.9649 45.1831 38.8869 45.2072 38.8159 45.2457C38.7449 45.2842 38.6821 45.3364 38.6312 45.3991C38.3826 45.7056 38.0531 45.8743 37.7032 45.8743C37.3534 45.8743 37.0238 45.7056 36.7752 45.3991C36.672 45.2738 36.5234 45.1943 36.3619 45.1781C36.2003 45.1618 36.0389 45.2101 35.9128 45.3124C35.7867 45.4147 35.7061 45.5626 35.6886 45.7241C35.6712 45.8855 35.7182 46.0473 35.8195 46.1741C36.2993 46.7655 36.9858 47.1048 37.7032 47.1048C38.4207 47.1048 39.1072 46.7656 39.5869 46.1742C39.6896 46.0475 39.7378 45.8851 39.7209 45.7228C39.704 45.5605 39.6233 45.4116 39.4966 45.3088Z" fill="#FCA680"/>
<path d="M35.6055 43.5933C35.9453 43.5933 36.2207 43.3178 36.2207 42.978C36.2207 42.6382 35.9453 42.3628 35.6055 42.3628C35.2657 42.3628 34.9902 42.6382 34.9902 42.978C34.9902 43.3178 35.2657 43.5933 35.6055 43.5933Z" fill="#FCA680"/>
<path d="M39.7893 43.5933C40.1291 43.5933 40.4045 43.3178 40.4045 42.978C40.4045 42.6382 40.1291 42.3628 39.7893 42.3628C39.4495 42.3628 39.1741 42.6382 39.1741 42.978C39.1741 43.3178 39.4495 43.5933 39.7893 43.5933Z" fill="#FCA680"/>
</svg>
