<svg width="89" height="90" viewBox="0 0 89 90" fill="none" xmlns="http://www.w3.org/2000/svg">
<path fill-rule="evenodd" clip-rule="evenodd" d="M31.6783 32.1448C25.4877 36.7278 19.5338 40.5058 11.8789 35.4754C-3.70087 25.2365 9.65862 1.98972 27.0269 5.65068C36.4031 7.6268 41.5982 16.6731 41.9641 25.1862C42.7663 43.8145 30.2741 72.4976 17.5711 86.939L15.1214 89.6389C19.3067 87.2947 18.3992 88.0814 21.7158 84.8497C35.0093 71.8925 48.865 40.4985 47.5767 22.5483C46.3309 5.18101 27.6831 -6.39655 11.5913 3.84537C-10.1415 17.6779 4.88472 45.3622 22.9844 39.3788C27.8384 37.7746 29.0096 35.8494 31.6783 32.1448Z" fill="#0FAD74" fill-opacity="0.2"/>
<path fill-rule="evenodd" clip-rule="evenodd" d="M52.0071 55.0786C53.3522 61.6697 54.9576 67.6247 62.8657 68.8711C79.7504 71.5334 84.091 46.3856 68.9971 40.0353C60.7846 36.5801 53.3643 39.8075 48.0475 45.7046C39.2687 55.442 33.3001 71.0215 29.2502 83.6111C28.4825 85.9973 28.9129 84.8838 27.8577 87.1909L27.8574 87.19C27.5025 74.2124 38.0639 49.1629 46.8593 40.2309C57.8343 29.0837 77.3739 31.9859 81.8507 48.6254C87.7403 70.514 61.5132 79.5773 53.3221 64.9249C51.1222 60.9892 51.5134 59.0673 52.0071 55.0786Z" fill="#0FAD74" fill-opacity="0.2"/>
<path fill-rule="evenodd" clip-rule="evenodd" d="M30.5572 28.6937C28.511 31.1196 26.0546 33.7088 22.3124 31.4451C14.5918 26.7736 23.5581 13.1446 32.6479 21.9824C38.4521 27.626 34.9933 45.7686 33.3113 52.3799C32.3358 56.2114 31.1584 59.827 29.8004 63.5462C29.0702 65.546 29.4062 64.4736 28.8602 66.5053C35.1823 58.181 41.687 33.7983 37.3313 23.8439C34.6777 17.7782 25.7497 13.9001 20.4378 19.042C13.3763 25.8783 19.9538 35.5305 26.7408 33.1048C29.1548 32.2415 29.8473 30.7359 30.5572 28.6937Z" fill="#0FAD74" fill-opacity="0.2"/>
<path fill-rule="evenodd" clip-rule="evenodd" d="M54.4875 53.3965C54.3796 56.1768 54.4392 59.3048 58.2005 60.0508C65.9615 61.5891 68.2068 47.4634 57.1005 47.8163C49.7502 48.0494 40.9593 62.9966 38.1202 68.4898C36.7655 71.1091 35.5846 73.7201 34.4233 76.4329L33.8838 77.6942L33.2395 78.8823C34.212 69.9821 44.3989 50.1171 52.9756 46.2592C58.263 43.881 66.3468 46.6659 66.7459 53.1277C67.2774 61.728 57.314 64.0909 54.3535 58.5086C53.2994 56.5236 53.7409 55.1381 54.4875 53.3965Z" fill="#0FAD74" fill-opacity="0.2"/>
<path fill-rule="evenodd" clip-rule="evenodd" d="M-5.21846e-05 55.6127C8.04013 59.8389 26.0351 63.4262 30.5018 53.6649C34.3051 45.3549 23.7929 35.7841 17.7334 44.3204C16.3358 46.2896 16.0813 49.3066 18.5386 50.5128C18.3643 49.8061 18.0463 49.1005 17.9827 48.4367C17.4327 42.6887 28.7176 41.1067 27.6953 50.3043C26.6526 59.6826 6.01891 56.2906 -5.21846e-05 55.6127Z" fill="#0FAD74" fill-opacity="0.2"/>
<path fill-rule="evenodd" clip-rule="evenodd" d="M47.9592 36.6968C50.3195 29.9195 58.9209 17.1315 67.5453 20.727C75.5404 24.0597 72.0599 36.6808 65.5774 32.3872C63.9886 31.3357 63.7077 29.9852 64.1014 28.2608C67.484 35.6131 73.0256 28.7855 67.7759 24.2862C61.8904 19.2402 51.2274 32.9216 47.9592 36.6968Z" fill="#0FAD74" fill-opacity="0.2"/>
<path fill-rule="evenodd" clip-rule="evenodd" d="M71.0659 34.4329C75.5369 32.2167 86.0337 30.0556 88.5655 36.0402C90.9127 41.5876 83.0388 46.1592 81.9111 40.8709C81.6347 39.5755 82.1523 38.7678 83.187 38.1039C81.2869 43.4013 87.3621 42.709 86.9472 37.9195C86.4814 32.5482 74.5255 34.1492 71.0659 34.4329Z" fill="#0FAD74" fill-opacity="0.2"/>
</svg>
